aileron_heavy.sfdir

StartChar: exclam
Encoding: 33 33 249
Width: 271
Flags: MW
HStem: -14 166<110.5 159.5> 670 20G<62 209 209 209>
VStem: 52 167<44.5 93.5> 68 135
LayerCount: 2
Fore
SplineSet
197 203 m 1xd0
 74 203 l 1
 62 690 l 1
 209 690 l 1
 197 203 l 1xd0
135 152 m 0xe0
 184 152 219 118 219 69 c 0
 219 20 184 -14 135 -14 c 0
 86 -14 52 20 52 69 c 0
 52 118 86 152 135 152 c 0xe0
EndSplineSet
EndChar

StartChar: quotedbl
Encoding: 34 34 256
Width: 392
Flags: MW
HStem: 451 284<58 164 58 58 235 235 235 341>
VStem: 50.5 120.5 228 120.5
LayerCount: 2
Fore
SplineSet
164 451 m 1
 58 451 l 1
 43 735 l 1
 178 735 l 1
 164 451 l 1
341 451 m 1
 235 451 l 1
 221 735 l 1
 356 735 l 1
 341 451 l 1
EndSplineSet
EndChar

StartChar: numbersign
Encoding: 35 35 251
Width: 642
Flags: MW
HStem: 0 21G<112 203 112 112 291 382 291 291> 206 86<71 156 71 174 265 335 71 247 444 541> 399 86<101 197 101 215 101 288 306 376 485 571> 670 20G<259 350 350 350 438 529 529 529>
VStem: 71 500<206 485 292 485>
LayerCount: 2
Fore
SplineSet
467 399 m 1
 444 292 l 1
 541 292 l 1
 541 206 l 1
 426 206 l 1
 382 0 l 1
 291 0 l 1
 335 206 l 1
 247 206 l 1
 203 0 l 1
 112 0 l 1
 156 206 l 1
 71 206 l 1
 71 292 l 1
 174 292 l 1
 197 399 l 1
 101 399 l 1
 101 485 l 1
 215 485 l 1
 259 690 l 1
 350 690 l 1
 306 485 l 1
 394 485 l 1
 438 690 l 1
 529 690 l 1
 485 485 l 1
 571 485 l 1
 571 399 l 1
 467 399 l 1
376 399 m 1
 288 399 l 1
 265 292 l 1
 353 292 l 1
 376 399 l 1
EndSplineSet
EndChar

StartChar: dollar
Encoding: 36 36 283
Width: 642
Flags: MW
HStem: -12 21G<281 281 371 371> 681 20G<281 281> 682 20G<371 371>
VStem: 73 145<490.5 533.5 490.5 559.5> 281 90<-90 -12 -90 -12 101 263 431 589 702 780> 444 152<154 195.5>
LayerCount: 2
Fore
SplineSet
596 186 m 0xac
 596 70 501 1 371 -12 c 1
 371 -90 l 1
 281 -90 l 1
 281 -12 l 1
 147 0 57 65 45 197 c 1
 195 197 l 1
 204 145 236 113 281 101 c 1
 281 284 l 1
 150 329 73 383 73 496 c 0
 73 623 170 688 281 701 c 1
 281 780 l 1
 371 780 l 1xdc
 371 702 l 1
 511 687 579 605 593 493 c 1
 442 493 l 1
 436 540 415 575 371 589 c 1
 371 414 l 1
 530 363 596 302 596 186 c 0xac
218 513 m 0xbc
 218 468 240 447 281 431 c 1
 281 591 l 1
 242 581 218 554 218 513 c 0xbc
371 263 m 1
 371 98 l 1
 418 107 444 131 444 177 c 0
 444 214 426 243 371 263 c 1
EndSplineSet
EndChar

StartChar: percent
Encoding: 37 37 303
Width: 772
Flags: MW
HStem: -14 78<563 599.5 563 630> 0 21G<109 223 109 109> 241 78<563 599.5> 370 78<172.5 209 172.5 239.5> 625 78<172.5 209> 670 20G<556 670 670 670>
VStem: 34 102<508.5 565.5 508.5 589.5> 246 102<508.5 565.5> 424 102<124.5 181.5 124.5 205.5> 636 102<124.5 181.5>
LayerCount: 2
Fore
SplineSet
191 703 m 0xbbc0
 288 703 348 642 348 537 c 0
 348 432 288 370 191 370 c 0
 93 370 34 432 34 537 c 0
 34 642 93 703 191 703 c 0xbbc0
223 0 m 1x77c0
 109 0 l 1
 556 690 l 1
 670 690 l 1
 223 0 l 1x77c0
191 625 m 0xbbc0
 154 625 136 594 136 537 c 0
 136 480 154 448 191 448 c 0
 227 448 246 480 246 537 c 0
 246 594 227 625 191 625 c 0xbbc0
581 319 m 0
 679 319 738 258 738 153 c 0
 738 48 679 -14 581 -14 c 0
 484 -14 424 48 424 153 c 0
 424 258 484 319 581 319 c 0
581 241 m 0
 545 241 526 210 526 153 c 0
 526 96 545 64 581 64 c 0
 618 64 636 96 636 153 c 0
 636 210 618 241 581 241 c 0
EndSplineSet
EndChar

StartChar: ampersand
Encoding: 38 38 311
Width: 680
Flags: MW
HStem: -14 116<296.5 349.5 296.5 378.5> 289 122<374 425 397 425 397 425 582 675> 588 116<320.5 372> 674 20G<456 456>
VStem: 49 165<160.5 223.5 160.5 225> 88 165<470.5 530 470.5 570.5> 425 157<110 289 12 289 411 497>
LayerCount: 2
Fore
SplineSet
675 411 m 1xe6
 675 289 l 1
 582 289 l 1
 582 12 l 1
 510 -4 427 -14 330 -14 c 0
 169 -14 49 31 49 177 c 0xea
 49 273 114 336 214 353 c 1
 140 374 88 433 88 508 c 0
 88 633 186 704 351 704 c 0xe6
 393 704 426 701 456 694 c 1xd6
 456 580 l 1
 415 587 390 588 354 588 c 0
 287 588 253 559 253 501 c 0
 253 440 291 415 340 412 c 0
 358 411 380 411 397 411 c 2
 425 411 l 1
 425 497 l 1
 582 497 l 1
 582 411 l 1
 675 411 l 1xe6
214 197 m 0
 214 124 259 102 334 102 c 0
 365 102 388 103 425 110 c 1
 425 289 l 1
 385 289 l 2
 363 289 352 289 332 288 c 0
 254 283 214 250 214 197 c 0
EndSplineSet
EndChar

StartChar: quotesingle
Encoding: 39 39 257
Width: 209
Flags: MW
HStem: 451 284<47 153 47 47>
VStem: 40 120.5
LayerCount: 2
Fore
SplineSet
153 451 m 1
 47 451 l 1
 33 735 l 1
 168 735 l 1
 153 451 l 1
EndSplineSet
EndChar

StartChar: parenleft
Encoding: 40 40 265
Width: 381
Flags: MW
HStem: -80 860<262 343 262 343>
VStem: 114 97<267.5 432.5 267.5 440.5>
LayerCount: 2
Fore
SplineSet
262 780 m 1
 343 780 l 1
 257 653 211 515 211 350 c 0
 211 185 257 47 343 -80 c 1
 262 -80 l 1
 167 28 114 170 114 350 c 0
 114 531 167 672 262 780 c 1
EndSplineSet
EndChar

StartChar: parenright
Encoding: 41 41 266
Width: 379
Flags: MW
HStem: -80 860<35 116 35 116>
VStem: 167 96<267.5 432.5>
LayerCount: 2
Fore
SplineSet
35 780 m 1
 116 780 l 1
 210 672 263 531 263 350 c 0
 263 170 210 28 116 -80 c 1
 35 -80 l 1
 121 47 167 185 167 350 c 0
 167 515 121 653 35 780 c 1
EndSplineSet
EndChar

StartChar: asterisk
Encoding: 42 42 243
Width: 613
Flags: MW
HStem: 70 405<226 358 255 387>
VStem: 261.5 90
LayerCount: 2
Fore
SplineSet
345 322 m 1
 476 379 l 1
 507 281 l 1
 367 249 l 1
 470 130 l 1
 387 70 l 1
 306 202 l 1
 226 70 l 1
 143 130 l 1
 246 249 l 1
 106 281 l 1
 137 379 l 1
 268 322 l 1
 255 475 l 1
 358 475 l 1
 345 322 l 1
EndSplineSet
EndChar

StartChar: plus
Encoding: 43 43 305
Width: 642
Flags: MW
HStem: 277 80<100 276 100 276 366 542>
VStem: 276 90<78 277 78 277 357 556>
LayerCount: 2
Fore
SplineSet
542 277 m 1
 366 277 l 1
 366 78 l 1
 276 78 l 1
 276 277 l 1
 100 277 l 1
 100 357 l 1
 276 357 l 1
 276 556 l 1
 366 556 l 1
 366 357 l 1
 542 357 l 1
 542 277 l 1
EndSplineSet
EndChar

StartChar: comma
Encoding: 44 44 247
Width: 255
Flags: MW
HStem: -123 277<52 97 -27 201>
VStem: -27 228
LayerCount: 2
Fore
SplineSet
201 144 m 1
 97 -123 l 1
 -27 -123 l 1
 52 154 l 1
 201 154 l 1
 201 144 l 1
EndSplineSet
EndChar

StartChar: hyphen
Encoding: 45 45 269
Width: 304
Flags: MW
HStem: 240 86<32 272 32 272>
VStem: 32 240<240 326 240 326>
LayerCount: 2
Fore
SplineSet
272 240 m 1
 32 240 l 1
 32 326 l 1
 272 326 l 1
 272 240 l 1
EndSplineSet
EndChar

StartChar: period
Encoding: 46 46 252
Width: 255
Flags: MW
HStem: -14 182<103.5 157>
VStem: 39 182<50.5 104>
LayerCount: 2
Fore
SplineSet
130 168 m 0
 184 168 221 131 221 77 c 0
 221 24 184 -14 130 -14 c 0
 77 -14 39 24 39 77 c 0
 39 131 77 168 130 168 c 0
EndSplineSet
EndChar

StartChar: slash
Encoding: 47 47 259
Width: 335
Flags: MW
HStem: -30 750<-5 340 -5 340>
VStem: -5 345
LayerCount: 2
Fore
SplineSet
89 -30 m 1
 -5 -30 l 1
 246 720 l 1
 340 720 l 1
 89 -30 l 1
EndSplineSet
EndChar

StartChar: zero
Encoding: 48 48 232
Width: 642
Flags: MW
HStem: -14 116<283.5 358.5 283.5 419.5> 588 116<283.5 358.5>
VStem: 45 165<259 432 259 457> 432 165<259 432>
LayerCount: 2
Fore
SplineSet
321 704 m 0
 518 704 597 569 597 345 c 0
 597 123 518 -14 321 -14 c 0
 123 -14 45 123 45 345 c 0
 45 569 123 704 321 704 c 0
321 102 m 0
 396 102 432 173 432 345 c 0
 432 519 396 588 321 588 c 0
 246 588 210 519 210 345 c 0
 210 173 246 102 321 102 c 0
EndSplineSet
EndChar

StartChar: one
Encoding: 49 49 233
Width: 642
Flags: MW
HStem: 0 21G<326 483 326 326> 670 20G<410 483 483 483>
VStem: 326 157<0 526 526 526>
LayerCount: 2
Fore
SplineSet
483 690 m 1
 483 0 l 1
 326 0 l 1
 326 526 l 1
 121 416 l 1
 121 559 l 1
 286 655 l 2
 326 678 366 690 410 690 c 2
 483 690 l 1
EndSplineSet
EndChar

StartChar: two
Encoding: 50 50 234
Width: 642
Flags: MW
HStem: 0 123<301 576 301 576> 590 116<297.5 356.5>
VStem: 417 165<463 524.5>
LayerCount: 2
Fore
SplineSet
301 123 m 1
 576 123 l 1
 576 0 l 1
 59 0 l 1
 59 71 l 1
 284 288 l 2
 381 381 417 430 417 496 c 0
 417 553 385 590 328 590 c 0
 267 590 236 551 229 473 c 2
 228 463 l 1
 71 463 l 1
 72 473 l 2
 87 623 180 706 342 706 c 0
 498 706 582 626 582 504 c 0
 582 419 542 357 413 232 c 2
 301 123 l 1
EndSplineSet
EndChar

StartChar: three
Encoding: 51 51 235
Width: 642
Flags: MW
HStem: -14 116<279 345.5 279 397> 298 105.5 588 116<291 347.5>
VStem: 37 156.5 408 165<482 529.5> 424 165<169 229>
LayerCount: 2
Fore
SplineSet
444 365 m 1xe4
 539 344 589 291 589 202 c 0
 589 71 479 -14 315 -14 c 0
 151 -14 51 65 37 205 c 2
 36 215 l 1
 193 215 l 1
 194 205 l 1
 204 145 246 102 312 102 c 0
 379 102 424 141 424 197 c 0xf4
 424 261 379 295 297 298 c 1
 272 298 l 1
 272 403 l 1
 297 404 l 1
 367 408 408 447 408 504 c 0
 408 555 375 588 320 588 c 0
 262 588 230 545 225 488 c 2
 224 478 l 1
 68 478 l 1
 69 488 l 2
 81 607 167 704 336 704 c 0
 494 704 573 622 573 522 c 0xe8
 573 442 530 386 444 365 c 1xe4
EndSplineSet
EndChar

StartChar: four
Encoding: 52 52 236
Width: 642
Flags: MW
HStem: 0 21G<365 522 365 365> 159 123<203 365 203 365 522 607> 670 20G<353 522 522 522>
VStem: 365 157<0 159 0 159 282 519 519 519>
LayerCount: 2
Fore
SplineSet
607 159 m 1
 522 159 l 1
 522 0 l 1
 365 0 l 1
 365 159 l 1
 37 159 l 1
 37 244 l 1
 353 690 l 1
 522 690 l 1
 522 282 l 1
 607 282 l 1
 607 159 l 1
365 282 m 1
 365 519 l 1
 350 493 336 470 323 451 c 2
 203 282 l 1
 365 282 l 1
EndSplineSet
EndChar

StartChar: five
Encoding: 53 53 237
Width: 642
Flags: MW
HStem: -14 116<283.5 349.5 283.5 391> 350 116<341.5 350.5> 568 122<248 562 248 248>
VStem: 425 165<189.5 262.5>
LayerCount: 2
Fore
SplineSet
361 466 m 0
 503 466 590 377 590 231 c 0
 590 71 460 -14 322 -14 c 0
 163 -14 73 49 58 191 c 2
 57 201 l 1
 214 201 l 1
 215 191 l 1
 223 136 254 102 313 102 c 0
 386 102 425 153 425 226 c 0
 425 299 385 350 316 350 c 0
 265 350 234 329 214 279 c 1
 69 279 l 1
 119 690 l 1
 562 690 l 1
 562 568 l 1
 248 568 l 1
 223 394 l 1
 254 440 l 1
 286 459 322 466 361 466 c 0
EndSplineSet
EndChar

StartChar: six
Encoding: 54 54 238
Width: 642
Flags: MW
HStem: -14 116<290 356 290 395.5> 347 116<342.5 356> 588 116<296.5 357.5>
VStem: 51 160<363 363 363 451> 428 165<188.5 258.5>
LayerCount: 2
Fore
SplineSet
367 463 m 0
 520 463 593 363 593 240 c 0
 593 76 467 -14 324 -14 c 0
 144 -14 51 91 51 327 c 0
 51 575 172 704 342 704 c 0
 487 704 570 628 585 508 c 1
 586 498 l 1
 428 498 l 1
 426 508 l 1
 411 563 382 588 333 588 c 0
 260 588 216 521 211 363 c 1
 244 425 l 1
 281 455 318 463 367 463 c 0
322 102 m 0
 390 102 428 156 428 221 c 0
 428 296 391 347 321 347 c 0
 265 347 217 304 217 225 c 0
 217 152 258 102 322 102 c 0
EndSplineSet
EndChar

StartChar: seven
Encoding: 55 55 239
Width: 642
Flags: MW
HStem: 0 21G<101 272 101 101> 568 122<55 412 55 598>
VStem: 55 543<605 690 605 690 605 690>
LayerCount: 2
Fore
SplineSet
598 690 m 1
 598 605 l 1
 272 0 l 1
 101 0 l 1
 412 568 l 1
 55 568 l 1
 55 690 l 1
 598 690 l 1
EndSplineSet
EndChar

StartChar: eight
Encoding: 56 56 240
Width: 642
Flags: MW
HStem: -15 116<286.5 358.5 286.5 394.5> 304 114<300.5 353.5 300.5 356> 588 116<302.5 355>
VStem: 49 164<170.5 232.5 170.5 240.5> 82 161<477.5 530.5 477.5 568> 415 161<477.5 530.5> 429 163<170 230.5>
LayerCount: 2
Fore
SplineSet
461 366 m 1xf2
 531 343 592 286 592 195 c 0
 592 45 470 -15 319 -15 c 0
 158 -15 49 45 49 195 c 0xf2
 49 286 113 342 183 366 c 1
 126 386 82 430 82 511 c 0
 82 625 172 704 330 704 c 0
 487 704 576 625 576 511 c 0xec
 576 430 522 386 461 366 c 1xf2
328 588 m 0xec
 277 588 243 556 243 505 c 0
 243 450 274 418 327 418 c 0
 380 418 415 450 415 505 c 0
 415 556 382 588 328 588 c 0xec
321 101 m 0xf2
 396 101 429 140 429 200 c 0
 429 261 392 304 320 304 c 0
 255 304 213 263 213 202 c 0
 213 139 252 101 321 101 c 0xf2
EndSplineSet
EndChar

StartChar: nine
Encoding: 57 57 241
Width: 642
Flags: MW
HStem: -14 116<283 345.5 283 386> 227 116<285.5 299.5> 588 116<285.5 351.5>
VStem: 49 165<432 501.5> 431 159<328 328>
LayerCount: 2
Fore
SplineSet
318 704 m 0
 497 704 590 600 590 363 c 0
 590 115 473 -14 299 -14 c 0
 151 -14 69 62 57 183 c 2
 56 193 l 1
 214 193 l 1
 216 183 l 2
 228 127 257 102 309 102 c 0
 382 102 426 169 431 328 c 1
 397 265 l 1
 360 236 324 227 275 227 c 0
 121 227 49 327 49 450 c 0
 49 614 175 704 318 704 c 0
321 343 m 0
 377 343 424 386 424 465 c 0
 424 538 384 588 319 588 c 0
 252 588 214 534 214 469 c 0
 214 395 250 343 321 343 c 0
EndSplineSet
EndChar

StartChar: colon
Encoding: 58 58 246
Width: 255
Flags: MW
HStem: -14 21G<103.5 157> -14 182<103.5 157> 365 182<103.5 157> 527 20G<103.5 157>
VStem: 39 182<50.5 104 429.5 483>
LayerCount: 2
Fore
SplineSet
130 547 m 0x98
 184 547 221 510 221 456 c 0
 221 403 184 365 130 365 c 0xa8
 77 365 39 403 39 456 c 0
 39 510 77 547 130 547 c 0x98
130 168 m 0x58
 184 168 221 131 221 77 c 0
 221 24 184 -14 130 -14 c 0
 77 -14 39 24 39 77 c 0
 39 131 77 168 130 168 c 0x58
EndSplineSet
EndChar

StartChar: semicolon
Encoding: 59 59 258
Width: 255
Flags: MW
HStem: -123 280<52 97 -27 201> 365 182<103.5 157> 527 20G<103.5 157>
VStem: 39 182<429.5 483>
LayerCount: 2
Fore
SplineSet
130 547 m 0xb0
 184 547 221 510 221 456 c 0
 221 403 184 365 130 365 c 0xd0
 77 365 39 403 39 456 c 0
 39 510 77 547 130 547 c 0xb0
201 139 m 1
 97 -123 l 1
 -27 -123 l 1
 52 157 l 1
 201 157 l 1
 201 139 l 1
EndSplineSet
EndChar

StartChar: less
Encoding: 60 60 296
Width: 642
Flags: MW
HStem: 23 485<560 560>
VStem: 106 454<23 325 23 325>
LayerCount: 2
Fore
SplineSet
560 402 m 1
 205 266 l 1
 560 129 l 1
 560 23 l 1
 106 206 l 1
 106 325 l 1
 560 508 l 1
 560 402 l 1
EndSplineSet
EndChar

StartChar: equal
Encoding: 61 61 291
Width: 642
Flags: MW
HStem: 177 80<85 557 85 557> 377 80<85 557 85 557>
VStem: 85 472<177 257 177 257 377 457 177 457>
LayerCount: 2
Fore
SplineSet
557 377 m 1
 85 377 l 1
 85 457 l 1
 557 457 l 1
 557 377 l 1
557 177 m 1
 85 177 l 1
 85 257 l 1
 557 257 l 1
 557 177 l 1
EndSplineSet
EndChar

StartChar: greater
Encoding: 62 62 292
Width: 642
Flags: MW
HStem: 23 485<70 70>
VStem: 70 453<23 325 128 325 206 508 206 508>
LayerCount: 2
Fore
SplineSet
523 325 m 1
 523 206 l 1
 70 23 l 1
 70 128 l 1
 424 265 l 1
 70 401 l 1
 70 508 l 1
 523 325 l 1
EndSplineSet
EndChar

StartChar: question
Encoding: 63 63 254
Width: 567
Flags: MW
HStem: -14 166<252.5 301.5> 479 225<31 361.5 31 361.5> 588 116<251 304>
VStem: 31 158<479 479> 194 167<44.5 93.5> 210 131<203 203> 358 165<481.5 529.5>
LayerCount: 2
Fore
SplineSet
287 704 m 0xb2
 436 704 523 632 523 514 c 0xb2
 523 436 489 387 417 325 c 0
 364 279 346 255 341 203 c 1
 210 203 l 1xb6
 213 278 233 314 279 365 c 0
 337 428 358 461 358 502 c 0
 358 557 331 588 277 588 c 0xb2
 225 588 193 553 189 479 c 1xd2
 31 479 l 1
 35 619 134 704 287 704 c 0xb2
277 152 m 0xa8
 326 152 361 118 361 69 c 0
 361 20 326 -14 277 -14 c 0
 228 -14 194 20 194 69 c 0
 194 118 228 152 277 152 c 0xa8
EndSplineSet
EndChar

StartChar: at
Encoding: 64 64 313
Width: 911
Flags: MW
HStem: -127 87<346 471> 70 86<655.5 696.5 655.5 697> 72 108<343.5 446.5> 380 108<447 457 380 486> 606 87<405 575.5>
VStem: 47 96<163.5 366 163.5 380> 241 147<224.5 286.5 224.5 309> 508.96 23.04 769 97<278.5 424>
LayerCount: 2
Fore
SplineSet
685 470 m 1xdf80
 645 305 l 1
 632 247 630 230 630 214 c 0
 630 180 641 156 670 156 c 0
 723 156 769 218 769 339 c 0
 769 509 659 606 492 606 c 0
 318 606 143 477 143 255 c 0
 143 72 252 -40 440 -40 c 0
 524 -40 606 -18 670 29 c 1
 703 -47 l 1
 615 -104 514 -127 428 -127 c 0
 250 -127 47 -21 47 249 c 0
 47 511 249 693 495 693 c 0
 734 693 866 530 866 347 c 0
 866 146 758 70 636 70 c 0
 565 70 515 101 497 163 c 1xdf80
 469 105 l 1
 439 81 408 72 378 72 c 0xbf80
 309 72 241 111 241 239 c 0
 241 379 322 488 438 488 c 0
 476 488 504 476 517 460 c 1
 532 406 l 1
 552 470 l 1
 685 470 l 1xdf80
430 180 m 0xbf80
 463 180 483 212 492 249 c 2
 506 312 l 2
 516 357 501 380 471 380 c 0
 423 380 388 323 388 250 c 0
 388 199 405 180 430 180 c 0xbf80
EndSplineSet
EndChar

StartChar: A
Encoding: 65 65 1
Width: 690
GlyphClass: 2
Flags: MW
HStem: 0 21G<10 177 10 10 529 529 529 699> 195 123<280 427 280 466 241 427> 554 136<354 354> 670 20G<259 453 453 453>
VStem: 10 689<0 0>
LayerCount: 2
Fore
SplineSet
466 195 m 1xd8
 241 195 l 1
 177 0 l 1
 10 0 l 1
 259 690 l 1
 453 690 l 1
 699 0 l 1
 529 0 l 1
 466 195 l 1xd8
354 554 m 1xe8
 280 318 l 1
 427 318 l 1
 354 554 l 1xe8
EndSplineSet
Position2: "'cpsp' Capital Spacing in Latin lookup 0 subtable" dx=5 dy=0 dh=10 dv=0
EndChar

StartChar: B
Encoding: 66 66 12
Width: 668
GlyphClass: 2
Flags: MW
HStem: 0 123<242 347> 297 115<242 336 336 344 242 346 242 336> 568 122<242 242 242 333>
VStem: 85 157<123 297 412 568> 449 164<478.5 514> 474 164<183 237>
LayerCount: 2
Fore
SplineSet
508 373 m 1xf4
 596 350 638 294 638 207 c 0xf4
 638 79 538 16 445 4 c 0
 411 0 388 0 347 0 c 2
 85 0 l 1
 85 690 l 1
 348 690 l 2
 384 690 402 690 437 686 c 0
 549 672 613 604 613 512 c 0xf8
 613 445 577 397 508 373 c 1xf4
242 568 m 1
 242 412 l 1
 336 412 l 2
 352 412 368 413 382 415 c 0
 425 422 449 445 449 491 c 0
 449 537 422 559 381 565 c 0xf8
 367 567 349 568 333 568 c 2
 242 568 l 1
397 124 m 0xf4
 438 127 474 157 474 209 c 0
 474 265 438 291 394 295 c 0
 378 297 362 297 346 297 c 2
 242 297 l 1
 242 123 l 1
 352 123 l 2
 368 123 384 123 397 124 c 0xf4
EndSplineSet
Position2: "'cpsp' Capital Spacing in Latin lookup 0 subtable" dx=5 dy=0 dh=10 dv=0
EndChar

StartChar: D
Encoding: 68 68 18
Width: 739
GlyphClass: 2
Flags: MW
HStem: 0 123<242 312 312 326.5 242 332> 568 122<242 313 242 242>
VStem: 85 157<123 568 123 690 123 690> 544 165<285.5 417>
LayerCount: 2
Fore
SplineSet
421 686 m 0
 581 668 709 567 709 354 c 0
 709 141 580 23 420 4 c 0
 385 0 369 0 332 0 c 2
 85 0 l 1
 85 690 l 1
 333 690 l 2
 370 690 386 690 421 686 c 0
382 125 m 0
 479 136 544 219 544 352 c 0
 544 482 480 554 383 565 c 0
 360 567 342 568 313 568 c 2
 242 568 l 1
 242 123 l 1
 312 123 l 2
 341 123 359 123 382 125 c 0
EndSplineSet
Position2: "'cpsp' Capital Spacing in Latin lookup 0 subtable" dx=5 dy=0 dh=10 dv=0
EndChar

StartChar: F
Encoding: 70 70 31
Width: 603
GlyphClass: 2
Flags: MW
HStem: 0 21G<85 242 85 85> 285 122<242 554 242 554> 568 122<242 242 242 587>
VStem: 85 157<0 285 407 568>
LayerCount: 2
Fore
SplineSet
242 568 m 1
 242 407 l 1
 554 407 l 1
 554 285 l 1
 242 285 l 1
 242 0 l 1
 85 0 l 1
 85 690 l 1
 587 690 l 1
 587 568 l 1
 242 568 l 1
EndSplineSet
Position2: "'cpsp' Capital Spacing in Latin lookup 0 subtable" dx=5 dy=0 dh=10 dv=0
EndChar

StartChar: H
Encoding: 72 72 36
Width: 760
GlyphClass: 2
Flags: MW
HStem: 0 21G<85 242 85 85 544 700 544 544> 277 123<242 544 242 544> 670 20G<85 242 242 242 544 700 700 700>
VStem: 85 157<0 277 0 400 400 690> 544 156<0 277 277 277 400 690 0 690>
LayerCount: 2
Fore
SplineSet
700 690 m 1
 700 0 l 1
 544 0 l 1
 544 277 l 1
 242 277 l 1
 242 0 l 1
 85 0 l 1
 85 690 l 1
 242 690 l 1
 242 400 l 1
 544 400 l 1
 544 690 l 1
 700 690 l 1
EndSplineSet
Position2: "'cpsp' Capital Spacing in Latin lookup 0 subtable" dx=5 dy=0 dh=10 dv=0
EndChar

StartChar: I
Encoding: 73 73 38
Width: 302
GlyphClass: 2
Flags: MW
HStem: 0 21G<85 242 85 85> 670 20G<85 242 242 242>
VStem: 85 157<0 690>
LayerCount: 2
Fore
SplineSet
242 0 m 1
 85 0 l 1
 85 690 l 1
 242 690 l 1
 242 0 l 1
EndSplineSet
Position2: "'cpsp' Capital Spacing in Latin lookup 0 subtable" dx=5 dy=0 dh=10 dv=0
EndChar

StartChar: J
Encoding: 74 74 47
Width: 615
GlyphClass: 2
Flags: MW
HStem: -14 116<281.5 340 281.5 389.5> 670 20G<405 562 562 562>
VStem: 50.5 156.5 405 157<275 290 290 690>
LayerCount: 2
Fore
SplineSet
562 690 m 1
 562 290 l 2
 562 260 562 238 559 191 c 0
 552 71 475 -14 304 -14 c 0
 132 -14 55 79 51 224 c 2
 50 257 l 1
 206 257 l 1
 208 224 l 2
 214 133 252 102 311 102 c 0
 369 102 398 139 403 200 c 0
 405 223 405 245 405 270 c 2
 405 690 l 1
 562 690 l 1
EndSplineSet
Position2: "'cpsp' Capital Spacing in Latin lookup 0 subtable" dx=5 dy=0 dh=10 dv=0
EndChar

StartChar: K
Encoding: 75 75 48
Width: 710
GlyphClass: 2
Flags: MW
HStem: 0 21G<85 242 85 85 500 699 500 500> 670 20G<85 242 242 242 524 711 711 711>
VStem: 85 157<0 215 0 370 370 690>
AnchorPoint: "Anchor-0" 357 0 basechar 0
LayerCount: 2
Fore
SplineSet
409 362 m 1
 699 0 l 1
 500 0 l 1
 295 274 l 1
 242 215 l 1
 242 0 l 1
 85 0 l 1
 85 690 l 1
 242 690 l 1
 242 370 l 1
 524 690 l 1
 711 690 l 1
 409 362 l 1
EndSplineSet
Position2: "'cpsp' Capital Spacing in Latin lookup 0 subtable" dx=5 dy=0 dh=10 dv=0
EndChar

StartChar: M
Encoding: 77 77 56
Width: 909
GlyphClass: 2
Flags: MW
HStem: 0 21G<85 242 85 85 384 550 384 384 692 849 692 692> 0 149<470 470 470 550 384 470> 534 156 670 20G<85 331 331 331 609 849 849 849>
VStem: 85 157<0 306 0 690> 692 157<0 306 306 339.5>
LayerCount: 2
Fore
SplineSet
849 690 m 1x9c
 849 0 l 1
 692 0 l 1
 692 306 l 2
 692 373 692 464 694 535 c 1
 680 464 657 373 637 307 c 1
 550 0 l 1
 384 0 l 1
 295 307 l 2
 276 373 253 463 240 534 c 1xac
 242 463 242 373 242 306 c 2
 242 0 l 1
 85 0 l 1
 85 690 l 1
 331 690 l 1
 470 149 l 1x5c
 609 690 l 1
 849 690 l 1x9c
EndSplineSet
Position2: "'cpsp' Capital Spacing in Latin lookup 0 subtable" dx=5 dy=0 dh=10 dv=0
EndChar

StartChar: P
Encoding: 80 80 73
Width: 633
GlyphClass: 2
Flags: MW
HStem: 0 21G<85 242 85 85> 252 123<242 328 328 334 242 328> 567 123<242 328 242 242>
VStem: 85 157<0 252 0 375 375 567> 461 164<441.5 500.5>
LayerCount: 2
Fore
SplineSet
437 685 m 0
 540 673 625 602 625 471 c 0
 625 340 537 269 437 257 c 0
 402 253 375 252 334 252 c 2
 242 252 l 1
 242 0 l 1
 85 0 l 1
 85 690 l 1
 334 690 l 2
 375 690 402 689 437 685 c 0
383 377 m 0
 430 383 461 412 461 471 c 0
 461 530 430 559 383 565 c 0
 369 567 350 567 328 567 c 2
 242 567 l 1
 242 375 l 1
 328 375 l 2
 350 375 369 375 383 377 c 0
EndSplineSet
Position2: "'cpsp' Capital Spacing in Latin lookup 0 subtable" dx=5 dy=0 dh=10 dv=0
EndChar

StartChar: Q
Encoding: 81 81 75
Width: 777
GlyphClass: 2
Flags: MW
HStem: -14 116<341.5 412> 2 100<341.5 565> 589 116<341.5 456>
VStem: 52 162<268 422.5 268 454.5> 583 162<299.5 422.5>
LayerCount: 2
Fore
SplineSet
646 114 m 1xb8
 686 104 721 84 760 51 c 1
 683 -49 l 1
 618 -8 587 2 543 2 c 0x78
 515 2 498 -1 470 -7 c 0
 448 -12 425 -14 399 -14 c 0
 185 -14 52 127 52 345 c 0
 52 564 185 705 399 705 c 0
 612 705 745 564 745 345 c 0
 745 254 712 170 646 114 c 1xb8
214 345 m 0
 214 191 284 102 399 102 c 0
 513 102 583 191 583 345 c 0
 583 500 513 589 399 589 c 0
 284 589 214 500 214 345 c 0
EndSplineSet
Position2: "'cpsp' Capital Spacing in Latin lookup 0 subtable" dx=5 dy=0 dh=10 dv=0
EndChar

StartChar: T
Encoding: 84 84 85
Width: 627
GlyphClass: 2
Flags: MW
HStem: 0 21G<249 405 249 249> 568 122<19 249 19 635 405 635 405 405>
VStem: 249 156<0 568 0 568>
AnchorPoint: "Anchor-0" 327 0 basechar 0
LayerCount: 2
Fore
SplineSet
635 568 m 1
 405 568 l 1
 405 0 l 1
 249 0 l 1
 249 568 l 1
 19 568 l 1
 19 690 l 1
 635 690 l 1
 635 568 l 1
EndSplineSet
Position2: "'cpsp' Capital Spacing in Latin lookup 0 subtable" dx=5 dy=0 dh=10 dv=0
EndChar

StartChar: V
Encoding: 86 86 99
Width: 712
GlyphClass: 2
Flags: MW
HStem: 0 21G<278 472 278 278> 0 121<377 377 377 472 278 377> 670 20G<32 202 202 202 555 721 721 721>
VStem: 32 689<690 690>
LayerCount: 2
Fore
SplineSet
472 0 m 1xb0
 278 0 l 1
 32 690 l 1
 202 690 l 1
 377 121 l 1x70
 555 690 l 1
 721 690 l 1
 472 0 l 1xb0
EndSplineSet
Position2: "'cpsp' Capital Spacing in Latin lookup 0 subtable" dx=5 dy=0 dh=10 dv=0
EndChar

StartChar: W
Encoding: 87 87 100
Width: 1000
GlyphClass: 2
Flags: MW
HStem: 0 21G<196 405 196 196 620 828 620 620> 0 117<734 734 734 828 620 734> 670 20G<26 194 194 194 847 1008 1008 1008>
VStem: 26 982<690 690>
LayerCount: 2
Fore
SplineSet
1008 690 m 1xb0
 828 0 l 1
 620 0 l 1
 516 559 l 1
 405 0 l 1
 196 0 l 1
 26 690 l 1
 194 690 l 1
 300 122 l 1
 407 680 l 1
 630 680 l 1
 734 117 l 1x70
 847 690 l 1
 1008 690 l 1xb0
EndSplineSet
Position2: "'cpsp' Capital Spacing in Latin lookup 0 subtable" dx=5 dy=0 dh=10 dv=0
EndChar

StartChar: X
Encoding: 88 88 105
Width: 694
GlyphClass: 2
Flags: MW
HStem: 0 21G<17 204 17 17 513 696 513 513> 670 20G<34 216 216 216 512 692 692 692>
VStem: 17 679<0 0>
LayerCount: 2
Fore
SplineSet
513 0 m 1
 353 249 l 1
 204 0 l 1
 17 0 l 1
 264 348 l 1
 34 690 l 1
 216 690 l 1
 359 446 l 1
 512 690 l 1
 692 690 l 1
 451 351 l 1
 696 0 l 1
 513 0 l 1
EndSplineSet
Position2: "'cpsp' Capital Spacing in Latin lookup 0 subtable" dx=5 dy=0 dh=10 dv=0
EndChar

StartChar: Z
Encoding: 90 90 111
Width: 634
GlyphClass: 2
Flags: MW
HStem: 0 123<243 606 243 606> 568 122<79 413 79 601>
VStem: 51 555<0 119 119 119>
LayerCount: 2
Fore
SplineSet
606 123 m 1
 606 0 l 1
 51 0 l 1
 51 119 l 1
 413 568 l 1
 79 568 l 1
 79 690 l 1
 601 690 l 1
 601 569 l 1
 243 123 l 1
 606 123 l 1
EndSplineSet
Position2: "'cpsp' Capital Spacing in Latin lookup 0 subtable" dx=5 dy=0 dh=10 dv=0
EndChar

StartChar: bracketleft
Encoding: 91 91 263
Width: 384
Flags: MW
HStem: -80 86<196 352 196 352> 694 86<196 352 196 196>
VStem: 106 90<6 694 6 780 6 780>
LayerCount: 2
Fore
SplineSet
352 780 m 1
 352 694 l 1
 196 694 l 1
 196 6 l 1
 352 6 l 1
 352 -80 l 1
 106 -80 l 1
 106 780 l 1
 352 780 l 1
EndSplineSet
EndChar

StartChar: backslash
Encoding: 92 92 244
Width: 335
Flags: MW
HStem: -30 750<-5 340 -5 246>
VStem: -5 345
LayerCount: 2
Fore
SplineSet
340 -30 m 1
 246 -30 l 1
 -5 720 l 1
 89 720 l 1
 340 -30 l 1
EndSplineSet
EndChar

StartChar: bracketright
Encoding: 93 93 264
Width: 381
Flags: MW
HStem: -80 86<30 186 30 275 30 186> 694 86<30 186 30 275>
VStem: 186 89<6 694 694 694>
LayerCount: 2
Fore
SplineSet
275 -80 m 1
 30 -80 l 1
 30 6 l 1
 186 6 l 1
 186 694 l 1
 30 694 l 1
 30 780 l 1
 275 780 l 1
 275 -80 l 1
EndSplineSet
EndChar

StartChar: asciicircum
Encoding: 94 94 312
Width: 642
Flags: MW
HStem: 215 401<98 372 98 372 269 543 269 442>
VStem: 98 445<215 215>
LayerCount: 2
Fore
SplineSet
442 215 m 1
 320 529 l 1
 197 215 l 1
 98 215 l 1
 269 616 l 1
 372 616 l 1
 543 215 l 1
 442 215 l 1
EndSplineSet
EndChar

StartChar: underscore
Encoding: 95 95 260
Width: 500
Flags: MW
HStem: -88 86<50 450 50 450>
VStem: 50 400<-88 -2 -88 -2>
LayerCount: 2
Fore
SplineSet
450 -88 m 1
 50 -88 l 1
 50 -2 l 1
 450 -2 l 1
 450 -88 l 1
EndSplineSet
EndChar

StartChar: grave
Encoding: 96 96 331
Width: 300
Flags: MW
HStem: 573 122<124 126 -14 210 124 124>
VStem: -14 224<573 695>
LayerCount: 2
Fore
SplineSet
210 573 m 1
 124 573 l 1
 -14 695 l 1
 126 695 l 1
 210 573 l 1
EndSplineSet
EndChar

StartChar: a
Encoding: 97 97 115
Width: 573
GlyphClass: 2
Flags: MW
HStem: -14 108<158 288.5> 0 94<243.5 370 243.5 523> 233 93<323 357> 439 108<256.5 304.5>
VStem: 32 161<135 186 135 200> 51 150<356 356> 357 156<194 233 233 233>
LayerCount: 2
Fore
SplineSet
370 0 m 1x76
 359 78 l 1x7a
 335 21 l 1
 297 -3 252 -14 203 -14 c 0
 113 -14 32 41 32 142 c 0xba
 32 258 135 326 323 326 c 2
 357 326 l 1
 357 335 l 2
 357 349 357 363 355 381 c 0
 352 413 328 439 281 439 c 0
 232 439 205 409 201 356 c 1
 51 356 l 1
 54 478 157 547 287 547 c 0
 445 547 502 478 510 383 c 0
 512 358 513 328 513 297 c 2
 513 135 l 2
 513 95 515 59 523 0 c 1
 370 0 l 1x76
265 94 m 0xba
 312 94 357 128 357 194 c 2
 357 233 l 1
 260 241 193 217 193 155 c 0
 193 115 222 94 265 94 c 0xba
EndSplineSet
EndChar

StartChar: b
Encoding: 98 98 126
Width: 655
GlyphClass: 2
Flags: MW
HStem: -14 108<353 376 308 443.5> 0 94<59 376> 439 108<366 380> 715 20G<59 216 216 216>
VStem: 59 157<0 70 191.5 249 249 273 453 735> 468 161<210 320.5>
LayerCount: 2
Fore
SplineSet
393 547 m 0xbc
 540 547 629 435 629 278 c 0
 629 86 512 -14 375 -14 c 0
 331 -14 278 -3 251 14 c 1
 216 70 l 1xbc
 216 0 l 1
 59 0 l 1x7c
 59 735 l 1
 216 735 l 1
 216 453 l 1
 256 512 l 1
 286 535 339 547 393 547 c 0xbc
338 94 m 0
 414 94 468 152 468 268 c 0
 468 373 417 439 343 439 c 0
 271 439 216 395 216 273 c 2
 216 249 l 2
 216 134 278 94 338 94 c 0
EndSplineSet
EndChar

StartChar: c
Encoding: 99 99 127
Width: 573
GlyphClass: 2
Flags: MW
HStem: -14 108<262.5 319 262.5 355.5> 336 211<223.5 548 223.5 395> 439 108<262 321>
VStem: 26 161<210 328.5 210 353.5>
AnchorPoint: "Anchor-0" 285 0 basechar 0
LayerCount: 2
Fore
SplineSet
299 547 m 0xb0
 448 547 540 455 548 336 c 1xd0
 395 336 l 1
 384 409 347 439 295 439 c 0
 229 439 187 385 187 272 c 0
 187 148 230 94 295 94 c 0
 343 94 381 127 393 189 c 1
 548 189 l 1
 527 55 425 -14 286 -14 c 0
 138 -14 26 81 26 262 c 0
 26 445 148 547 299 547 c 0xb0
EndSplineSet
EndChar

StartChar: d
Encoding: 100 100 132
Width: 656
GlyphClass: 2
Flags: MW
HStem: -14 108<275 289> 0 94<275 596 275 439> 439 108<279 302 211.5 346.5> 715 20G<439 596 596 596>
VStem: 26 161<212.5 323 212.5 351.5> 439 157<0 80 80 80 260 285 285 342 463 735 0 735>
LayerCount: 2
Fore
SplineSet
596 735 m 1xbc
 596 0 l 1
 439 0 l 1
 439 80 l 1x7c
 399 21 l 1
 369 -2 316 -14 262 -14 c 0
 115 -14 26 98 26 256 c 0
 26 447 143 547 280 547 c 0
 324 547 377 536 404 519 c 1
 439 463 l 1
 439 735 l 1
 596 735 l 1xbc
312 94 m 0xbc
 383 94 439 138 439 260 c 2
 439 285 l 2
 439 399 376 439 317 439 c 0
 241 439 187 381 187 265 c 0
 187 160 238 94 312 94 c 0xbc
EndSplineSet
EndChar

StartChar: e
Encoding: 101 101 136
Width: 588
GlyphClass: 2
Flags: MW
HStem: -14 108<265.5 322.5 265.5 357> 226 99<187 397 187 557 183 397> 439 108<267 324>
VStem: 26 157<226 226 226 345> 397 163<325 325>
AnchorPoint: "Anchor-0" 292 0 basechar 0
LayerCount: 2
Fore
SplineSet
560 276 m 0
 560 262 559 245 557 226 c 1
 183 226 l 1
 192 124 236 94 295 94 c 0
 350 94 387 124 396 174 c 1
 551 174 l 1
 522 51 422 -14 292 -14 c 0
 143 -14 26 77 26 265 c 0
 26 425 133 547 302 547 c 0
 472 547 560 418 560 276 c 0
295 439 m 0
 239 439 200 404 187 325 c 1
 397 325 l 1
 388 400 353 439 295 439 c 0
EndSplineSet
EndChar

StartChar: f
Encoding: 102 102 145
Width: 356
GlyphClass: 2
Flags: MW
HStem: 0 21G<77 233 77 77> 429 100<20 77 20 77 233 342> 644.41 102.59
VStem: 77 156<0 429 0 429 529 543 543 545 0 551.5>
LayerCount: 2
Fore
SplineSet
235 589 m 0
 233 575 233 559 233 545 c 2
 233 529 l 1
 342 529 l 1
 342 429 l 1
 233 429 l 1
 233 0 l 1
 77 0 l 1
 77 429 l 1
 20 429 l 1
 20 529 l 1
 77 529 l 1
 77 543 l 2
 77 560 77 585 78 603 c 0
 86 697 147 754 291 754 c 0
 312 754 333 751 351 747 c 1
 351 641 l 1
 286 653 240 635 235 589 c 0
EndSplineSet
EndChar

StartChar: h
Encoding: 104 104 150
Width: 631
GlyphClass: 2
Flags: MW
HStem: 0 21G<59 216 59 59 421 578 421 421> 439 108<324 440> 720 20G<59 216 216 216>
VStem: 59 157<0 247 449 740> 421 157<0 277 277 287>
LayerCount: 2
Fore
SplineSet
573 400 m 0
 577 373 578 344 578 301 c 2
 578 0 l 1
 421 0 l 1
 421 277 l 2
 421 297 421 324 419 351 c 0
 415 405 385 439 324 439 c 0
 262 438 216 383 216 247 c 2
 216 0 l 1
 59 0 l 1
 59 740 l 1
 216 740 l 1
 216 449 l 1
 260 513 l 1
 296 537 334 547 384 547 c 0
 496 547 561 493 573 400 c 0
EndSplineSet
EndChar

StartChar: i
Encoding: 105 105 152
Width: 276
GlyphClass: 2
Flags: MW
HStem: 0 21G<59 216 59 59> 513 20G<59 216 216 216> 580 159<112 162>
VStem: 54 167<635.5 684> 59 157<0 533>
LayerCount: 2
Fore
SplineSet
137 739 m 0xf0
 187 739 221 708 221 660 c 0
 221 611 187 580 137 580 c 0
 87 580 54 611 54 660 c 0
 54 708 87 739 137 739 c 0xf0
216 0 m 1xe8
 59 0 l 1
 59 533 l 1
 216 533 l 1
 216 0 l 1xe8
EndSplineSet
EndChar

StartChar: j
Encoding: 106 106 161
Width: 270
GlyphClass: 2
Flags: MW
HStem: -210 112<-41 83> 513 20G<56 213 213 213> 580 159<107 162.5>
VStem: 51 167<632.5 687> 56 157<-1 1 1 533>
LayerCount: 2
Fore
SplineSet
135 739 m 0xf0
 190 739 218 714 218 660 c 0
 218 605 190 580 135 580 c 0
 79 580 51 605 51 660 c 0
 51 714 79 739 135 739 c 0xf0
213 533 m 1xe8
 213 1 l 2
 213 -20 212 -46 211 -64 c 0
 204 -155 151 -210 15 -210 c 0
 -5 -210 -24 -209 -41 -207 c 1
 -41 -98 l 1
 22 -104 50 -92 54 -48 c 0
 56 -34 56 -16 56 -1 c 2
 56 533 l 1
 213 533 l 1xe8
EndSplineSet
EndChar

StartChar: k
Encoding: 107 107 162
Width: 605
GlyphClass: 2
Flags: MW
HStem: 0 21G<59 216 59 59 412 412 412 607> 513 20G<418 604 604 604> 715 20G<59 216 216 216>
VStem: 59 157<0 159 0 299 299 735>
AnchorPoint: "Anchor-0" 310 0 basechar 0
LayerCount: 2
Fore
SplineSet
257 204 m 1
 216 159 l 1
 216 0 l 1
 59 0 l 1
 59 735 l 1
 216 735 l 1
 216 299 l 1
 418 533 l 1
 604 533 l 1
 373 287 l 1
 607 0 l 1
 412 0 l 1
 257 204 l 1
EndSplineSet
EndChar

StartChar: m
Encoding: 109 109 170
Width: 938
GlyphClass: 2
Flags: MW
HStem: 0 21G<59 216 59 59 394 550 394 394 728 885 728 728> 439 94<59 330.5> 439 108<275 415.5>
VStem: 59 157<0 277 450 533> 394 156<0 275 275 277 0 287.5> 728 157<0 275 275 287.5>
LayerCount: 2
Fore
SplineSet
880 414 m 0xbc
 884 387 885 358 885 315 c 2
 885 0 l 1
 728 0 l 1
 728 275 l 2
 728 300 727 329 724 356 c 0
 718 409 690 439 640 439 c 0
 580 439 550 386 550 277 c 2
 550 0 l 1
 394 0 l 1
 394 275 l 2
 394 300 393 329 390 356 c 0
 383 409 356 439 305 439 c 0xbc
 245 439 216 386 216 277 c 2
 216 0 l 1
 59 0 l 1
 59 533 l 1
 216 533 l 1
 216 450 l 1xdc
 256 516 l 1
 288 537 322 547 371 547 c 0
 460 547 515 503 537 444 c 1
 591 516 l 1
 622 537 657 547 705 547 c 0
 809 547 868 487 880 414 c 0xbc
EndSplineSet
EndChar

StartChar: o
Encoding: 111 111 177
Width: 613
GlyphClass: 2
Flags: MW
HStem: -14 108<269.5 344 269.5 395> 439 108<269.5 344>
VStem: 26 161<211.5 322.5 211.5 350> 426 162<211.5 322.5>
LayerCount: 2
Fore
SplineSet
307 547 m 0
 483 547 588 433 588 267 c 0
 588 101 483 -14 307 -14 c 0
 130 -14 26 101 26 267 c 0
 26 433 130 547 307 547 c 0
307 94 m 0
 381 94 426 156 426 267 c 0
 426 378 381 439 307 439 c 0
 232 439 187 378 187 267 c 0
 187 156 232 94 307 94 c 0
EndSplineSet
EndChar

StartChar: p
Encoding: 112 112 187
Width: 655
GlyphClass: 2
Flags: MW
HStem: -14 108<353 376 308 443.5> 439 94<59 380> 439 108<366 380>
VStem: 59 157<-196 70 191.5 249 249 273 453 533> 468 161<210 320.5>
LayerCount: 2
Fore
SplineSet
393 547 m 0xb8
 540 547 629 435 629 278 c 0
 629 86 512 -14 375 -14 c 0
 331 -14 278 -3 251 14 c 1
 216 70 l 1
 216 -196 l 1
 59 -196 l 1
 59 533 l 1
 216 533 l 1
 216 453 l 1xd8
 256 512 l 1
 286 535 339 547 393 547 c 0xb8
338 94 m 0
 414 94 468 152 468 268 c 0
 468 373 417 439 343 439 c 0
 271 439 216 395 216 273 c 2
 216 249 l 2
 216 134 278 94 338 94 c 0
EndSplineSet
EndChar

StartChar: q
Encoding: 113 113 189
Width: 656
GlyphClass: 2
Flags: MW
HStem: -14 108<275 289> 439 94<279 596> 439 108<279 302 211.5 346.5>
VStem: 26 161<212.5 323 212.5 351.5> 439 157<-196 80 80 80 260 285 285 342 463 533 -196 533>
LayerCount: 2
Fore
SplineSet
596 533 m 1xd8
 596 -196 l 1
 439 -196 l 1
 439 80 l 1
 399 21 l 1
 369 -2 316 -14 262 -14 c 0
 115 -14 26 98 26 256 c 0
 26 447 143 547 280 547 c 0
 324 547 377 536 404 519 c 1
 439 463 l 1xb8
 439 533 l 1
 596 533 l 1xd8
312 94 m 0
 383 94 439 138 439 260 c 2
 439 285 l 2
 439 399 376 439 317 439 c 0
 241 439 187 381 187 265 c 0
 187 160 238 94 312 94 c 0
EndSplineSet
EndChar

StartChar: r
Encoding: 114 114 190
Width: 398
GlyphClass: 2
Flags: MW
HStem: 0 21G<59 216 59 59> 513 20G<59 216 216 216> 523 20G<393 393> 527 20G<337.5 361.5>
VStem: 59 157<0 223 431 533>
AnchorPoint: "Anchor-0" 137 0 basechar 0
LayerCount: 2
Fore
SplineSet
353 547 m 0x98
 370 547 381 545 393 543 c 1xa8
 393 416 l 1
 269 424 216 374 216 223 c 2
 216 0 l 1
 59 0 l 1
 59 533 l 1
 216 533 l 1xc8
 216 431 l 1
 256 505 l 1
 283 533 322 547 353 547 c 0x98
EndSplineSet
EndChar

StartChar: s
Encoding: 115 115 194
Width: 511
GlyphClass: 2
Flags: MW
HStem: -14 101<244 285 244 327.5> 447 100<236 272.5>
VStem: 20 155<164 164> 41 157<380 412 380 431> 324 155<378 378> 334 157<120 156>
AnchorPoint: "Anchor-0" 262 0 basechar 0
LayerCount: 2
Fore
SplineSet
263 547 m 0
 392 547 466 475 479 378 c 1
 324 378 l 1
 315 422 292 447 253 447 c 0
 219 447 198 426 198 398 c 0
 198 362 227 342 322 318 c 0
 425 292 491 249 491 149 c 0
 491 38 390 -14 265 -14 c 0
 129 -14 34 44 20 164 c 1
 175 164 l 1
 186 114 222 87 266 87 c 0
 304 87 334 103 334 137 c 0
 334 175 300 196 206 218 c 1
 106 243 41 288 41 379 c 0
 41 483 129 547 263 547 c 0
EndSplineSet
EndChar

StartChar: t
Encoding: 116 116 200
Width: 378
GlyphClass: 2
Flags: MW
HStem: -13 108<194.5 350> -5 21G<350 350> 429 100<9 90 9 90 247 360>
VStem: 90 157<196 205 205 429 529 663>
AnchorPoint: "Anchor-0" 213 0 basechar 0
LayerCount: 2
Fore
SplineSet
247 429 m 1x70
 247 205 l 2
 247 187 247 169 248 155 c 0
 252 102 270 90 350 95 c 1
 350 -5 l 1
 318 -10 287 -13 253 -13 c 0xb0
 136 -13 98 25 92 103 c 0
 90 130 90 154 90 184 c 2
 90 429 l 1
 9 429 l 1
 9 529 l 1
 90 529 l 1
 90 663 l 1
 247 663 l 1
 247 529 l 1
 360 529 l 1
 360 429 l 1
 247 429 l 1x70
EndSplineSet
EndChar

StartChar: v
Encoding: 118 118 214
Width: 585
GlyphClass: 2
Flags: MW
HStem: 0 21G<209 381 209 209> 0 121<297 297 297 381 209 297> 513 20G<0 174 174 174 419 589 589 589>
VStem: 0 589<533 533>
LayerCount: 2
Fore
SplineSet
589 533 m 1xb0
 381 0 l 1
 209 0 l 1
 0 533 l 1
 174 533 l 1
 297 121 l 1x70
 419 533 l 1
 589 533 l 1xb0
EndSplineSet
EndChar

StartChar: w
Encoding: 119 119 215
Width: 847
GlyphClass: 2
Flags: MW
HStem: 0 21G<169 346 169 169 507 683 507 507> 0 130<602 602 602 683 507 602> 513 20G<0 174 174 174 683 852 852 852>
VStem: 0 852<533 533>
LayerCount: 2
Fore
SplineSet
852 533 m 1xb0
 683 0 l 1
 507 0 l 1
 427 387 l 1
 346 0 l 1
 169 0 l 1
 0 533 l 1
 174 533 l 1
 257 131 l 1
 334 530 l 1
 521 530 l 1
 602 130 l 1x70
 683 533 l 1
 852 533 l 1xb0
EndSplineSet
EndChar

StartChar: x
Encoding: 120 120 220
Width: 563
GlyphClass: 2
Flags: MW
HStem: 0 21G<-2 178 -2 -2 378 561 378 378> 513 20G<5 188 188 188 379 559 559 559>
VStem: -2 563<0 0>
LayerCount: 2
Fore
SplineSet
376 269 m 1
 561 0 l 1
 378 0 l 1
 280 174 l 1
 178 0 l 1
 -2 0 l 1
 185 270 l 1
 5 533 l 1
 188 533 l 1
 284 366 l 1
 379 533 l 1
 559 533 l 1
 376 269 l 1
EndSplineSet
EndChar

StartChar: y
Encoding: 121 121 221
Width: 584
GlyphClass: 2
Flags: MW
HStem: -210 107<127.5 139.5 109 199> 513 20G<0 175 175 175 418 589 589 589>
VStem: 0 589<533 533>
LayerCount: 2
Fore
SplineSet
589 533 m 1
 376 -11 l 2
 315 -166 257 -210 141 -210 c 0
 114 -210 95 -209 73 -206 c 1
 73 -101 l 1
 87 -103 101 -103 117 -103 c 0
 162 -103 192 -87 212 -41 c 2
 219 -24 l 1
 0 533 l 1
 175 533 l 1
 297 121 l 1
 418 533 l 1
 589 533 l 1
EndSplineSet
EndChar

StartChar: z
Encoding: 122 122 226
Width: 510
GlyphClass: 2
Flags: MW
HStem: 0 101<200 481 200 481> 428 101<47 311 47 478>
VStem: 31 450<0 95 95 95>
LayerCount: 2
Fore
SplineSet
481 101 m 1
 481 0 l 1
 31 0 l 1
 31 95 l 1
 311 428 l 1
 47 428 l 1
 47 529 l 1
 478 529 l 1
 478 429 l 1
 200 101 l 1
 481 101 l 1
EndSplineSet
EndChar

StartChar: braceleft
Encoding: 123 123 261
Width: 398
Flags: MW
HStem: -80 86<248.5 338 318 338 318 338> 307 86<101 101> 694 86<297 318 318 338>
VStem: 161 90<31 49 651.5 669> 183 90<238 260.5 440 462>
LayerCount: 2
Fore
SplineSet
338 694 m 1xb0
 318 694 l 2
 267 694 251 686 251 652 c 0xb0
 251 636 253 617 261 560 c 0
 269 509 273 472 273 452 c 0
 273 397 245 364 188 352 c 1
 245 340 273 304 273 248 c 0xa8
 273 228 269 191 261 140 c 0
 253 84 251 65 251 48 c 0
 251 14 267 6 318 6 c 2
 338 6 l 1
 338 -80 l 1
 297 -80 l 2
 200 -80 161 -46 161 34 c 0xb0
 161 64 165 93 173 150 c 0
 180 194 183 221 183 245 c 0
 183 276 168 303 101 307 c 1
 101 393 l 1
 168 398 183 425 183 455 c 0xe8
 183 479 180 506 173 550 c 0
 165 607 161 636 161 667 c 0
 161 746 200 780 297 780 c 2
 338 780 l 1
 338 694 l 1xb0
EndSplineSet
EndChar

StartChar: bar
Encoding: 124 124 314
Width: 297
Flags: MW
HStem: -200 1000<98 199 98 199>
VStem: 98 101<-200 800>
LayerCount: 2
Fore
SplineSet
199 -200 m 1
 98 -200 l 1
 98 800 l 1
 199 800 l 1
 199 -200 l 1
EndSplineSet
EndChar

StartChar: braceright
Encoding: 125 125 262
Width: 398
Flags: MW
HStem: -80 86<61 80 80 102 61 80> 307 86<298 298> 694 86<61 80 61 102>
VStem: 126 90<238 260.5 233 276 440 462> 148 89<31 49 -6 56.5 651.5 669>
LayerCount: 2
Fore
SplineSet
298 393 m 1xf0
 298 307 l 1
 231 303 216 276 216 245 c 0xf0
 216 221 219 194 225 150 c 0
 234 93 237 64 237 34 c 0
 237 -46 198 -80 102 -80 c 2
 61 -80 l 1
 61 6 l 1
 80 6 l 2
 132 6 148 14 148 48 c 0xa8
 148 65 146 84 137 140 c 1
 130 191 126 228 126 248 c 0
 126 304 153 337 210 348 c 1
 153 360 126 397 126 452 c 0xb0
 126 472 130 509 137 560 c 1
 146 617 148 636 148 652 c 0
 148 686 132 694 80 694 c 2
 61 694 l 1
 61 780 l 1
 102 780 l 2
 198 780 237 746 237 667 c 0xa8
 237 636 234 607 225 550 c 0
 219 506 216 479 216 455 c 0
 216 425 231 398 298 393 c 1xf0
EndSplineSet
EndChar

StartChar: asciitilde
Encoding: 126 126 288
Width: 642
Flags: MW
HStem: 223 171<170 171 85 233>
VStem: 85 86<223 247.5 223 281> 472 86<366.5 394>
LayerCount: 2
Fore
SplineSet
472 394 m 1
 558 394 l 1
 558 278 513 223 431 223 c 0
 389 223 359 238 308 264 c 0
 261 289 239 299 217 299 c 0
 182 299 171 272 171 223 c 1
 85 223 l 1
 85 339 129 394 211 394 c 0
 255 394 286 378 335 353 c 0
 378 330 401 318 426 318 c 0
 458 318 472 339 472 394 c 1
EndSplineSet
EndChar

StartChar: exclamdown
Encoding: 161 161 250
Width: 271
Flags: MW
HStem: 378 166<110.5 159.5>
VStem: 52 167<436.5 485.5> 68 135
LayerCount: 2
Fore
SplineSet
135 378 m 0xc0
 86 378 52 412 52 461 c 0
 52 510 86 544 135 544 c 0
 184 544 219 510 219 461 c 0
 219 412 184 378 135 378 c 0xc0
74 328 m 1xa0
 197 328 l 1
 209 -160 l 1
 62 -160 l 1
 74 328 l 1xa0
EndSplineSet
EndChar

StartChar: cent
Encoding: 162 162 281
Width: 637
Flags: MW
HStem: -12 21G<281 281> -11 21G<371 371> 520 20G<281 281> 522 20G<371 371>
VStem: 60 146<224 312 224 340.5> 281 90<-90 -12 -12 -12 105 426 426 426 542 620>
LayerCount: 2
Fore
SplineSet
371 429 m 1x5c
 371 102 l 1
 404 116 433 145 442 189 c 1
 582 189 l 1
 564 72 484 5 371 -11 c 1
 371 -90 l 1
 281 -90 l 1x5c
 281 -12 l 1
 153 5 60 102 60 260 c 0
 60 421 155 519 281 540 c 1
 281 620 l 1
 371 620 l 1xac
 371 542 l 1
 498 528 575 442 582 333 c 1
 444 333 l 1
 436 386 406 416 371 429 c 1x5c
206 270 m 0
 206 178 238 126 281 105 c 1
 281 426 l 1
 238 405 206 354 206 270 c 0
EndSplineSet
EndChar

StartChar: sterling
Encoding: 163 163 285
Width: 642
Flags: MW
HStem: 0 123<242 580 242 580> 296 80<73 118 73 153 73 118 318 318 318 489> 588 116<310 359.5>
VStem: 94 165<483 526.5 483 557> 166 159<216.5 234.5> 416 158<497 497>
LayerCount: 2
Fore
SplineSet
580 123 m 1xf4
 580 0 l 1
 64 0 l 1
 64 109 l 1
 140 123 166 168 166 223 c 0
 166 246 162 268 153 296 c 1
 73 296 l 1
 73 376 l 1xec
 118 376 l 1
 102 415 94 446 94 491 c 0
 94 623 193 704 335 704 c 0
 495 704 566 607 574 497 c 1
 416 497 l 1
 411 552 385 588 334 588 c 0
 286 588 259 549 259 504 c 0
 259 462 266 434 290 376 c 1xf4
 489 376 l 1
 489 296 l 1
 318 296 l 1
 323 277 325 261 325 242 c 0
 325 191 296 148 242 123 c 1xec
 580 123 l 1xf4
EndSplineSet
EndChar

StartChar: currency
Encoding: 164 164 282
Width: 642
Flags: MW
HStem: 121 85<302.5 339.5> 396 85<302.5 339.5 302.5 346.5>
VStem: 141 93<283 319> 407 94<283 319 283 329.5>
LayerCount: 2
Fore
SplineSet
501 301 m 0
 501 265 491 231 473 203 c 1
 526 150 l 1
 473 97 l 1
 420 150 l 1
 392 132 358 121 321 121 c 0
 284 121 250 132 222 150 c 1
 169 97 l 1
 116 150 l 1
 169 203 l 1
 151 231 141 265 141 301 c 0
 141 337 151 371 170 399 c 1
 116 453 l 1
 169 506 l 1
 222 452 l 1
 251 470 284 481 321 481 c 0
 358 481 391 470 420 452 c 1
 473 506 l 1
 526 453 l 1
 472 399 l 1
 491 371 501 337 501 301 c 0
321 206 m 0
 372 206 407 244 407 301 c 0
 407 358 372 396 321 396 c 0
 270 396 234 358 234 301 c 0
 234 244 270 206 321 206 c 0
EndSplineSet
EndChar

StartChar: yen
Encoding: 165 165 286
Width: 642
Flags: MW
HStem: 0 230<90 399 90 243> 144 86<90 243 90 243 399 552> 288 86<90 199 90 243 90 199 443 552> 670 20G<24 190 190 190 457 618 618 618>
VStem: 243 156<0 144 0 144 230 288 0 288>
LayerCount: 2
Fore
SplineSet
443 374 m 1x78
 552 374 l 1
 552 288 l 1
 399 288 l 1
 399 230 l 1
 552 230 l 1
 552 144 l 1
 399 144 l 1x78
 399 0 l 1
 243 0 l 1xb8
 243 144 l 1
 90 144 l 1
 90 230 l 1
 243 230 l 1
 243 288 l 1
 90 288 l 1
 90 374 l 1
 199 374 l 1
 24 690 l 1
 190 690 l 1
 325 382 l 1
 457 690 l 1
 618 690 l 1
 443 374 l 1x78
EndSplineSet
EndChar

StartChar: brokenbar
Encoding: 166 166 315
Width: 285
Flags: MW
HStem: 670 20G<98 187 187 187>
VStem: 98 89<-160 180 350 690>
LayerCount: 2
Fore
SplineSet
187 350 m 1
 98 350 l 1
 98 690 l 1
 187 690 l 1
 187 350 l 1
187 -160 m 1
 98 -160 l 1
 98 180 l 1
 187 180 l 1
 187 -160 l 1
EndSplineSet
EndChar

StartChar: section
Encoding: 167 167 322
Width: 613
Flags: MW
HStem: -174 100<279.5 320.5 279.5 361.5> 529 175<369 372.5 242 524 369 369> 604 100<284.5 319>
VStem: 25 158<278 315.5 278 328.5> 87 158<515 561 515 571> 369 158<-32.5 11> 430 158<210 247>
LayerCount: 2
Fore
SplineSet
588 237 m 0xaa
 588 169 553 121 501 91 c 1
 518 67 527 38 527 3 c 0
 527 -111 425 -174 298 -174 c 0
 166 -174 69 -116 55 5 c 1
 210 5 l 1
 222 -46 258 -74 301 -74 c 0
 340 -74 369 -53 369 -12 c 0
 369 34 340 67 216 103 c 0
 98 138 25 186 25 296 c 0xb4
 25 361 56 411 107 442 c 1
 94 463 87 488 87 515 c 0
 87 627 176 704 308 704 c 0xac
 437 704 511 633 524 529 c 1
 369 529 l 1xd4
 360 578 338 604 300 604 c 0
 269 604 245 581 245 541 c 0
 245 489 271 464 371 438 c 0
 520 398 588 341 588 237 c 0xaa
293 206 m 0
 333 194 368 181 398 167 c 1
 417 178 430 197 430 223 c 0
 430 271 397 300 308 326 c 0
 271 336 238 348 210 361 c 1
 193 350 183 330 183 301 c 0xb2
 183 255 221 228 293 206 c 0
EndSplineSet
EndChar

StartChar: dieresis
Encoding: 168 168 329
Width: 300
Flags: MW
HStem: 573 132<37 77 223 263>
VStem: -11 136<619 659> 176 135<619 659>
LayerCount: 2
Fore
SplineSet
57 705 m 0
 97 705 125 679 125 639 c 0
 125 599 97 573 57 573 c 0
 17 573 -11 599 -11 639 c 0
 -11 679 17 705 57 705 c 0
243 705 m 0
 283 705 311 679 311 639 c 0
 311 599 283 573 243 573 c 0
 203 573 176 599 176 639 c 0
 176 679 203 705 243 705 c 0
EndSplineSet
EndChar

StartChar: copyright
Encoding: 169 169 316
Width: 855
Flags: MW
HStem: -45 88<337.5 517 337.5 545> 126 93<407.5 453.5 407.5 492> 490 93<402 456> 669 86<337.5 517>
VStem: 21 97<264.5 446 264.5 471.5> 209 140<310 397.5 310 424> 510 133<402 402> 737 97<264.5 446>
LayerCount: 2
Fore
SplineSet
427 755 m 0
 663 755 834 588 834 355 c 0
 834 122 663 -45 427 -45 c 0
 192 -45 21 122 21 355 c 0
 21 588 192 755 427 755 c 0
427 669 m 0
 248 669 118 537 118 355 c 0
 118 174 248 43 427 43 c 0
 607 43 737 174 737 355 c 0
 737 537 607 669 427 669 c 0
436 583 m 0
 560 583 632 510 643 402 c 1
 510 402 l 1
 505 455 481 490 431 490 c 0
 373 490 349 439 349 356 c 0
 349 264 381 219 434 219 c 0
 473 219 505 247 509 307 c 1
 642 307 l 1
 625 198 556 126 428 126 c 0
 299 126 209 212 209 355 c 0
 209 493 299 583 436 583 c 0
EndSplineSet
EndChar

StartChar: guillemotleft
Encoding: 171 171 270
Width: 662
Flags: MW
HStem: 82 332<278 393 278 393 278 500 500 615>
VStem: 141 474<82 248>
LayerCount: 2
Fore
SplineSet
393 414 m 1
 256 248 l 1
 393 82 l 1
 278 82 l 1
 141 248 l 1
 278 414 l 1
 393 414 l 1
615 414 m 1
 478 248 l 1
 615 82 l 1
 500 82 l 1
 363 248 l 1
 500 414 l 1
 615 414 l 1
EndSplineSet
EndChar

StartChar: logicalnot
Encoding: 172 172 298
Width: 642
Flags: MW
HStem: 309 86<115 427 115 516>
VStem: 427 89<182 309 309 309>
LayerCount: 2
Fore
SplineSet
516 182 m 1
 427 182 l 1
 427 309 l 1
 115 309 l 1
 115 395 l 1
 516 395 l 1
 516 182 l 1
EndSplineSet
EndChar

StartChar: registered
Encoding: 174 174 321
Width: 492
Flags: MW
HStem: 344 54<201 291 201 308> 523 45<224 236 236 239 224 236> 621 44<224 236 224 224> 711 53<201 291>
VStem: 36 57<508.5 600 508.5 615.5> 166 58<454 523 454 568 568 621> 255 83 399 57<508.5 600>
LayerCount: 2
Fore
SplineSet
246 764 m 0
 370 764 456 677 456 554 c 0
 456 431 370 344 246 344 c 0
 122 344 36 431 36 554 c 0
 36 677 122 764 246 764 c 0
246 398 m 0
 336 398 399 463 399 554 c 0
 399 646 336 711 246 711 c 0
 156 711 93 646 93 554 c 0
 93 463 156 398 246 398 c 0
298 554 m 1
 317 548 325 530 327 508 c 0
 330 481 335 465 340 454 c 1
 275 454 l 1
 272 466 270 480 268 496 c 0
 266 514 257 523 239 523 c 2
 224 523 l 1
 224 454 l 1
 166 454 l 1
 166 665 l 1
 242 665 l 2
 252 665 260 665 269 664 c 0
 315 659 338 637 338 605 c 0
 338 577 320 560 298 554 c 1
255 569 m 0
 269 571 275 582 275 594 c 0
 275 609 267 618 255 620 c 0
 249 621 245 621 236 621 c 2
 224 621 l 1
 224 568 l 1
 236 568 l 2
 244 568 249 568 255 569 c 0
EndSplineSet
EndChar

StartChar: macron
Encoding: 175 175 333
Width: 300
Flags: MW
HStem: 591 85<8 293 8 293>
VStem: 8 285<591 676 591 676>
LayerCount: 2
Fore
SplineSet
293 591 m 1
 8 591 l 1
 8 676 l 1
 293 676 l 1
 293 591 l 1
EndSplineSet
EndChar

StartChar: degree
Encoding: 176 176 319
Width: 315
Flags: MW
HStem: 442 80<144 170.5 144 197> 624 80<144 170.5>
VStem: 22 86<558 588 558 611.5> 207 86<558 588>
LayerCount: 2
Fore
SplineSet
157 704 m 0
 237 704 293 650 293 573 c 0
 293 496 237 442 157 442 c 0
 78 442 22 496 22 573 c 0
 22 650 78 704 157 704 c 0
157 624 m 0
 131 624 108 603 108 573 c 0
 108 543 131 522 157 522 c 0
 184 522 207 543 207 573 c 0
 207 603 184 624 157 624 c 0
EndSplineSet
EndChar

StartChar: plusminus
Encoding: 177 177 306
Width: 642
Flags: MW
HStem: 0 80<118 523 118 523> 275 86<118 276 118 276 366 523>
VStem: 276 90<122 275 122 275 361 512>
LayerCount: 2
Fore
SplineSet
366 361 m 1
 523 361 l 1
 523 275 l 1
 366 275 l 1
 366 122 l 1
 276 122 l 1
 276 275 l 1
 118 275 l 1
 118 361 l 1
 276 361 l 1
 276 512 l 1
 366 512 l 1
 366 361 l 1
523 0 m 1
 118 0 l 1
 118 80 l 1
 523 80 l 1
 523 0 l 1
EndSplineSet
EndChar

StartChar: acute
Encoding: 180 180 324
Width: 300
Flags: MW
HStem: 573 122<185 187 101 325>
VStem: 101 224<573 695>
LayerCount: 2
Fore
SplineSet
187 573 m 1
 101 573 l 1
 185 695 l 1
 325 695 l 1
 187 573 l 1
EndSplineSet
EndChar

StartChar: paragraph
Encoding: 182 182 320
Width: 605
Flags: MW
HStem: 604 86<348 456 348 348>
VStem: 258 90<-110 320 320 320> 456 89<-110 604 604 604>
LayerCount: 2
Fore
SplineSet
545 690 m 1
 545 -110 l 1
 456 -110 l 1
 456 604 l 1
 348 604 l 1
 348 -110 l 1
 258 -110 l 1
 258 320 l 1
 253 320 l 2
 235 320 214 320 197 321 c 0
 95 327 40 410 40 505 c 0
 40 600 95 683 197 689 c 0
 214 690 235 690 253 690 c 2
 545 690 l 1
EndSplineSet
EndChar

StartChar: periodcentered
Encoding: 183 183 253
Width: 261
Flags: MW
HStem: 213 184<103 157>
VStem: 38 185<278 332>
LayerCount: 2
Fore
SplineSet
130 397 m 0
 184 397 223 359 223 305 c 0
 223 251 184 213 130 213 c 0
 76 213 38 251 38 305 c 0
 38 359 76 397 130 397 c 0
EndSplineSet
EndChar

StartChar: cedilla
Encoding: 184 184 327
Width: 300
Flags: MW
HStem: -210 62<94.5 123 94.5 144> -86 95<66 192>
VStem: 162 96<-127 -105>
LayerCount: 2
Fore
SplineSet
192 9 m 1
 166 -41 l 1
 227 -49 258 -75 258 -120 c 0
 258 -186 188 -210 100 -210 c 0
 81 -210 63 -209 45 -203 c 1
 45 -140 l 1
 68 -146 87 -148 102 -148 c 0
 144 -148 162 -137 162 -117 c 0
 162 -93 139 -81 66 -86 c 1
 113 9 l 1
 192 9 l 1
EndSplineSet
EndChar

StartChar: guillemotright
Encoding: 187 187 271
Width: 637
Flags: MW
HStem: 82 332<47 162 47 162 47 270 270 385>
VStem: 47 475<82 248 248 414>
LayerCount: 2
Fore
SplineSet
299 248 m 1
 162 82 l 1
 47 82 l 1
 184 248 l 1
 47 414 l 1
 162 414 l 1
 299 248 l 1
522 248 m 1
 385 82 l 1
 270 82 l 1
 407 248 l 1
 270 414 l 1
 385 414 l 1
 522 248 l 1
EndSplineSet
EndChar

StartChar: questiondown
Encoding: 191 191 255
Width: 542
Flags: MW
HStem: -171 116<272 325 272 365> 381 166<273.5 322.5>
VStem: 53 165<3.5 51.5 3.5 58.5> 215 167<439.5 488.5> 234 131<331 331> 387 157<54 54>
LayerCount: 2
Fore
SplineSet
298 381 m 0xd0
 249 381 215 415 215 464 c 0
 215 513 249 547 298 547 c 0
 347 547 382 513 382 464 c 0
 382 415 347 381 298 381 c 0xd0
288 -171 m 0xe4
 139 -171 53 -99 53 20 c 0xe4
 53 97 87 147 158 208 c 0
 211 254 229 279 234 331 c 1
 365 331 l 1xec
 362 255 343 219 297 168 c 1
 238 105 218 72 218 31 c 0
 218 -24 245 -55 299 -55 c 0
 351 -55 383 -20 387 54 c 1
 544 54 l 1
 540 -86 442 -171 288 -171 c 0xe4
EndSplineSet
EndChar

StartChar: Agrave
Encoding: 192 192 6
Width: 690
GlyphClass: 2
Flags: MW
HStem: 0 21G<10 177 10 10 529 529 529 699> 195 123<280 427 280 466 241 427> 554 136<354 354> 670 20G<259 453 453 453> 735 118<324 324 324 328 188 410>
VStem: 10 689<0 0>
LayerCount: 2
Fore
SplineSet
324 735 m 1xdc
 188 853 l 1
 328 853 l 1
 410 735 l 1
 324 735 l 1xdc
466 195 m 1
 241 195 l 1
 177 0 l 1
 10 0 l 1
 259 690 l 1
 453 690 l 1
 699 0 l 1
 529 0 l 1
 466 195 l 1
354 554 m 1xec
 280 318 l 1
 427 318 l 1
 354 554 l 1xec
EndSplineSet
Position2: "'cpsp' Capital Spacing in Latin lookup 0 subtable" dx=5 dy=0 dh=10 dv=0
EndChar

StartChar: Atilde
Encoding: 195 195 10
Width: 690
GlyphClass: 2
Flags: MW
HStem: 0 21G<10 177 10 10 529 529 529 699> 195 123<280 427 280 466 241 427> 554 136<354 354> 670 20G<259 453 453 453> 741 118<424 452.5> 744 118<260 288 207 300.5>
VStem: 207 81<744 754 744 786> 424 82<849 859>
LayerCount: 2
Fore
SplineSet
303 772 m 0xd7
 293 772 288 764 288 744 c 1
 207 744 l 1
 207 828 233 862 287 862 c 0xd7
 314 862 330 859 364 845 c 0
 388 835 401 831 409 831 c 0
 420 831 424 839 424 859 c 1
 506 859 l 1
 506 775 480 741 425 741 c 0xdb
 399 741 383 744 348 758 c 0
 324 768 312 772 303 772 c 0xd7
466 195 m 1
 241 195 l 1
 177 0 l 1
 10 0 l 1
 259 690 l 1
 453 690 l 1
 699 0 l 1
 529 0 l 1
 466 195 l 1
354 554 m 1xe7
 280 318 l 1
 427 318 l 1
 354 554 l 1xe7
EndSplineSet
Position2: "'cpsp' Capital Spacing in Latin lookup 0 subtable" dx=5 dy=0 dh=10 dv=0
EndChar

StartChar: Adieresis
Encoding: 196 196 5
Width: 690
GlyphClass: 2
Flags: MW
HStem: 0 21G<10 177 10 10 529 529 529 699> 195 123<280 427 280 466 241 427> 554 136<354 354> 670 20G<259 453 453 453> 726 132<244 284 429 469>
VStem: 196 135<772 812> 381 135<772 812>
LayerCount: 2
Fore
SplineSet
264 726 m 0xde
 224 726 196 752 196 792 c 0
 196 832 224 858 264 858 c 0
 304 858 331 832 331 792 c 0
 331 752 304 726 264 726 c 0xde
449 726 m 0
 409 726 381 752 381 792 c 0
 381 832 409 858 449 858 c 0
 489 858 516 832 516 792 c 0
 516 752 489 726 449 726 c 0
466 195 m 1
 241 195 l 1
 177 0 l 1
 10 0 l 1
 259 690 l 1
 453 690 l 1
 699 0 l 1
 529 0 l 1
 466 195 l 1
354 554 m 1xee
 280 318 l 1
 427 318 l 1
 354 554 l 1xee
EndSplineSet
Position2: "'cpsp' Capital Spacing in Latin lookup 0 subtable" dx=5 dy=0 dh=10 dv=0
EndChar

StartChar: Aring
Encoding: 197 197 9
Width: 690
GlyphClass: 2
Flags: MW
HStem: 0 21G<10 177 10 10 529 529 529 699> 195 123<280 427 280 466 241 427> 554 136<354 354> 670 20G<259 453 453 453> 721 58<345 367 345 389> 859 59<345 367>
VStem: 244 75<807.5 831 807.5 848> 393 75<807.5 831>
LayerCount: 2
Fore
SplineSet
356 721 m 0xdf
 290 721 244 761 244 819 c 0
 244 877 290 918 356 918 c 0
 422 918 468 877 468 819 c 0
 468 761 422 721 356 721 c 0xdf
356 859 m 0
 334 859 319 843 319 819 c 0
 319 796 334 779 356 779 c 0
 378 779 393 796 393 819 c 0
 393 843 378 859 356 859 c 0
466 195 m 1
 241 195 l 1
 177 0 l 1
 10 0 l 1
 259 690 l 1
 453 690 l 1
 699 0 l 1
 529 0 l 1
 466 195 l 1
354 554 m 1xef
 280 318 l 1
 427 318 l 1
 354 554 l 1xef
EndSplineSet
Position2: "'cpsp' Capital Spacing in Latin lookup 0 subtable" dx=5 dy=0 dh=10 dv=0
EndChar

StartChar: AE
Encoding: 198 198 11
Width: 974
GlyphClass: 2
Flags: MW
HStem: 0 123<608 945 608 945> 218 122<296 430 296 442 235 430> 285 122<591 912 591 591> 568 122<562 935 562 562>
VStem: -40 985<0 123>
LayerCount: 2
Fore
SplineSet
945 123 m 1xb8
 945 0 l 1
 464 0 l 1
 442 218 l 1
 235 218 l 1xd8
 126 0 l 1
 -40 0 l 1
 329 690 l 1
 935 690 l 1
 935 568 l 1
 562 568 l 1
 579 407 l 1
 912 407 l 1
 912 285 l 1
 591 285 l 1
 608 123 l 1
 945 123 l 1xb8
430 340 m 1
 407 563 l 1
 296 340 l 1
 430 340 l 1
EndSplineSet
Position2: "'cpsp' Capital Spacing in Latin lookup 0 subtable" dx=5 dy=0 dh=10 dv=0
EndChar

StartChar: Ccedilla
Encoding: 199 199 16
Width: 725
GlyphClass: 2
Flags: MW
HStem: -210 62<314.5 343 314.5 364> -86 188<286 427.5> -10 21G<324 324> 588 116<338 429.5>
VStem: 52 165<263.5 426.5 263.5 457> 382 96<-127 -105>
AnchorPoint: "Anchor-0" 370 0 basechar 0
LayerCount: 2
Fore
SplineSet
535 243 m 1xbc
 692 243 l 1
 691 233 l 2
 676 83 565 -7 400 -14 c 1
 386 -41 l 1
 447 -49 478 -75 478 -120 c 0
 478 -186 408 -210 320 -210 c 0
 301 -210 283 -209 265 -203 c 1
 265 -140 l 1
 288 -146 307 -148 322 -148 c 0
 364 -148 382 -137 382 -117 c 0
 382 -93 359 -81 286 -86 c 1xdc
 324 -10 l 1xbc
 164 14 52 139 52 341 c 0
 52 573 200 704 390 704 c 0
 581 704 680 601 694 465 c 2
 695 455 l 1
 538 455 l 1
 536 465 l 2
 520 545 471 588 388 588 c 0
 288 588 217 503 217 350 c 0
 217 177 293 102 387 102 c 0xdc
 468 102 517 151 533 233 c 2
 535 243 l 1xbc
EndSplineSet
Position2: "'cpsp' Capital Spacing in Latin lookup 0 subtable" dx=5 dy=0 dh=10 dv=0
EndChar

StartChar: Eacute
Encoding: 201 201 23
Width: 626
GlyphClass: 2
Flags: MW
HStem: 0 123<242 597 242 597> 285 122<242 564 242 564> 568 122<242 587 242 242> 735 118<372 376 290 512>
VStem: 85 157<123 285 407 568>
AnchorPoint: "Anchor-0" 322 0 basechar 0
LayerCount: 2
Fore
SplineSet
376 735 m 1
 290 735 l 1
 372 853 l 1
 512 853 l 1
 376 735 l 1
597 123 m 1
 597 0 l 1
 85 0 l 1
 85 690 l 1
 587 690 l 1
 587 568 l 1
 242 568 l 1
 242 407 l 1
 564 407 l 1
 564 285 l 1
 242 285 l 1
 242 123 l 1
 597 123 l 1
EndSplineSet
Position2: "'cpsp' Capital Spacing in Latin lookup 0 subtable" dx=5 dy=0 dh=10 dv=0
EndChar

StartChar: Ecircumflex
Encoding: 202 202 25
Width: 626
GlyphClass: 2
Flags: MW
HStem: 0 123<242 597 242 597> 285 122<242 564 242 564> 568 122<242 587 242 242> 735 118<276 307 213 403 371 371 371 403 276 466>
VStem: 85 157<123 285 407 568>
AnchorPoint: "Anchor-0" 322 0 basechar 0
LayerCount: 2
Fore
SplineSet
307 735 m 1
 213 735 l 1
 276 853 l 1
 403 853 l 1
 466 735 l 1
 371 735 l 1
 338 806 l 1
 307 735 l 1
597 123 m 1
 597 0 l 1
 85 0 l 1
 85 690 l 1
 587 690 l 1
 587 568 l 1
 242 568 l 1
 242 407 l 1
 564 407 l 1
 564 285 l 1
 242 285 l 1
 242 123 l 1
 597 123 l 1
EndSplineSet
Position2: "'cpsp' Capital Spacing in Latin lookup 0 subtable" dx=5 dy=0 dh=10 dv=0
EndChar

StartChar: Edieresis
Encoding: 203 203 26
Width: 626
GlyphClass: 2
Flags: MW
HStem: 0 123<242 597 242 597> 285 122<242 564 242 564> 568 122<242 587 242 242> 726 132<227 267 412 452>
VStem: 85 157<123 285 407 568> 179 135<772 812> 364 135<772 812>
AnchorPoint: "Anchor-0" 322 0 basechar 0
LayerCount: 2
Fore
SplineSet
247 726 m 0xf6
 207 726 179 752 179 792 c 0
 179 832 207 858 247 858 c 0
 287 858 314 832 314 792 c 0
 314 752 287 726 247 726 c 0xf6
432 726 m 0
 392 726 364 752 364 792 c 0
 364 832 392 858 432 858 c 0
 472 858 499 832 499 792 c 0
 499 752 472 726 432 726 c 0
597 123 m 1
 597 0 l 1
 85 0 l 1
 85 690 l 1
 587 690 l 1
 587 568 l 1
 242 568 l 1
 242 407 l 1
 564 407 l 1
 564 285 l 1
 242 285 l 1
 242 123 l 1xe8
 597 123 l 1
EndSplineSet
Position2: "'cpsp' Capital Spacing in Latin lookup 0 subtable" dx=5 dy=0 dh=10 dv=0
EndChar

StartChar: Igrave
Encoding: 204 204 44
Width: 302
GlyphClass: 2
Flags: MW
HStem: 0 21G<85 242 85 85> 670 20G<85 242 242 242> 735 118<131 135 -5 217 131 131>
VStem: 85 157<0 690>
LayerCount: 2
Fore
SplineSet
217 735 m 1
 131 735 l 1
 -5 853 l 1
 135 853 l 1
 217 735 l 1
242 0 m 1
 85 0 l 1
 85 690 l 1
 242 690 l 1
 242 0 l 1
EndSplineSet
Position2: "'cpsp' Capital Spacing in Latin lookup 0 subtable" dx=5 dy=0 dh=10 dv=0
EndChar

StartChar: Iacute
Encoding: 205 205 40
Width: 302
GlyphClass: 2
Flags: MW
HStem: 0 21G<85 242 85 85> 670 20G<85 242 242 242> 735 118<196 200 114 336>
VStem: 85 157<0 690>
LayerCount: 2
Fore
SplineSet
200 735 m 1
 114 735 l 1
 196 853 l 1
 336 853 l 1
 200 735 l 1
242 0 m 1
 85 0 l 1
 85 690 l 1
 242 690 l 1
 242 0 l 1
EndSplineSet
Position2: "'cpsp' Capital Spacing in Latin lookup 0 subtable" dx=5 dy=0 dh=10 dv=0
EndChar

StartChar: Icircumflex
Encoding: 206 206 41
Width: 302
GlyphClass: 2
Flags: MW
HStem: 0 21G<85 242 85 85> 670 20G<85 242 242 242> 735 118<100 131 37 227 195 195 195 227 100 290>
VStem: 85 157<0 690 0 690>
LayerCount: 2
Fore
SplineSet
131 735 m 1
 37 735 l 1
 100 853 l 1
 227 853 l 1
 290 735 l 1
 195 735 l 1
 162 806 l 1
 131 735 l 1
85 690 m 1
 242 690 l 1
 242 0 l 1
 85 0 l 1
 85 690 l 1
EndSplineSet
Position2: "'cpsp' Capital Spacing in Latin lookup 0 subtable" dx=5 dy=0 dh=10 dv=0
EndChar

StartChar: Idieresis
Encoding: 207 207 42
Width: 302
GlyphClass: 2
Flags: MW
HStem: 0 21G<85 242 85 85> 670 20G<85 242 242 242> 726 132<51 91 236 276>
VStem: 3 135<772 812> 85 157<0 690> 188 135<772 812>
LayerCount: 2
Fore
SplineSet
71 858 m 0xe8
 111 858 138 832 138 792 c 0xe8
 138 752 111 726 71 726 c 0
 31 726 3 752 3 792 c 0xf0
 3 832 31 858 71 858 c 0xe8
256 858 m 0
 296 858 323 832 323 792 c 0xe4
 323 752 296 726 256 726 c 0
 216 726 188 752 188 792 c 0
 188 832 216 858 256 858 c 0
242 0 m 1
 85 0 l 1
 85 690 l 1
 242 690 l 1
 242 0 l 1
EndSplineSet
Position2: "'cpsp' Capital Spacing in Latin lookup 0 subtable" dx=5 dy=0 dh=10 dv=0
EndChar

StartChar: Eth
Encoding: 208 208 19
Width: 745
GlyphClass: 2
Flags: MW
HStem: 0 123<247 318 318 332 247 338> 296 86<32 91 32 91 247 358> 568 122<247 319 247 247>
VStem: 91 156<123 296 123 296 123 296 382 568> 550 164<285.5 417>
LayerCount: 2
Fore
SplineSet
427 686 m 0
 587 668 714 567 714 354 c 0
 714 141 586 23 426 4 c 0
 391 0 375 0 338 0 c 2
 91 0 l 1
 91 296 l 1
 32 296 l 1
 32 382 l 1
 91 382 l 1
 91 690 l 1
 339 690 l 2
 376 690 392 690 427 686 c 0
387 125 m 0
 484 136 550 219 550 352 c 0
 550 482 485 554 389 565 c 0
 366 567 347 568 319 568 c 2
 247 568 l 1
 247 382 l 1
 358 382 l 1
 358 296 l 1
 247 296 l 1
 247 123 l 1
 318 123 l 2
 346 123 365 123 387 125 c 0
EndSplineSet
Position2: "'cpsp' Capital Spacing in Latin lookup 0 subtable" dx=5 dy=0 dh=10 dv=0
EndChar

StartChar: Ntilde
Encoding: 209 209 62
Width: 775
GlyphClass: 2
Flags: MW
HStem: 0 21G<85 242 85 85 506 715 506 506> 670 20G<85 286 286 286 559 715 715 715> 741 118<464 492.5> 744 118<300 328 247 340.5>
VStem: 85 157<0 300 0 690> 247 81<744 754 744 786> 464 82<849 859> 559 156<383 690>
AnchorPoint: "Anchor-0" 396 0 basechar 0
LayerCount: 2
Fore
SplineSet
327 862 m 0xd5
 354 862 370 859 404 845 c 0
 428 835 441 831 449 831 c 0
 460 831 464 839 464 859 c 1
 546 859 l 1
 546 775 520 741 465 741 c 0xeb
 439 741 423 744 388 758 c 0
 364 768 352 772 343 772 c 0
 333 772 328 764 328 744 c 1
 247 744 l 1
 247 828 273 862 327 862 c 0xd5
715 0 m 1xe9
 506 0 l 1
 236 494 l 1
 241 421 242 350 242 300 c 2
 242 0 l 1
 85 0 l 1
 85 690 l 1
 286 690 l 1
 564 182 l 1
 560 254 559 332 559 383 c 2
 559 690 l 1
 715 690 l 1
 715 0 l 1xe9
EndSplineSet
Position2: "'cpsp' Capital Spacing in Latin lookup 0 subtable" dx=5 dy=0 dh=10 dv=0
EndChar

StartChar: Ocircumflex
Encoding: 212 212 65
Width: 775
GlyphClass: 2
Flags: MW
HStem: -14 116<341.5 456 341.5 505.5> 588 116<341.5 456> 735 118<336 367 273 463 431 431 431 463 336 526>
VStem: 52 162<268 422.5 268 454.5> 583 162<268 422.5>
LayerCount: 2
Fore
SplineSet
367 735 m 1
 273 735 l 1
 336 853 l 1
 463 853 l 1
 526 735 l 1
 431 735 l 1
 398 806 l 1
 367 735 l 1
399 704 m 0
 612 704 745 564 745 345 c 0
 745 127 612 -14 399 -14 c 0
 185 -14 52 127 52 345 c 0
 52 564 185 704 399 704 c 0
399 102 m 0
 513 102 583 191 583 345 c 0
 583 500 513 588 399 588 c 0
 284 588 214 500 214 345 c 0
 214 191 284 102 399 102 c 0
EndSplineSet
Position2: "'cpsp' Capital Spacing in Latin lookup 0 subtable" dx=5 dy=0 dh=10 dv=0
EndChar

StartChar: Otilde
Encoding: 213 213 71
Width: 775
GlyphClass: 2
Flags: MW
HStem: -14 116<341.5 456 341.5 505.5> 588 116<341.5 456> 741 118<467 495.5> 744 118<303 331 250 343.5>
VStem: 52 162<268 422.5 268 454.5> 250 81<744 754 744 786> 467 82<849 859> 583 162<268 422.5>
LayerCount: 2
Fore
SplineSet
346 772 m 0xdd
 336 772 331 764 331 744 c 1
 250 744 l 1
 250 828 276 862 330 862 c 0xdd
 357 862 373 859 407 845 c 0
 431 835 444 831 452 831 c 0
 463 831 467 839 467 859 c 1
 549 859 l 1
 549 775 523 741 468 741 c 0xeb
 442 741 426 744 391 758 c 0
 367 768 355 772 346 772 c 0xdd
399 704 m 0xe9
 612 704 745 564 745 345 c 0
 745 127 612 -14 399 -14 c 0
 185 -14 52 127 52 345 c 0
 52 564 185 704 399 704 c 0xe9
399 102 m 0
 513 102 583 191 583 345 c 0
 583 500 513 588 399 588 c 0
 284 588 214 500 214 345 c 0
 214 191 284 102 399 102 c 0
EndSplineSet
Position2: "'cpsp' Capital Spacing in Latin lookup 0 subtable" dx=5 dy=0 dh=10 dv=0
EndChar

StartChar: Odieresis
Encoding: 214 214 66
Width: 775
GlyphClass: 2
Flags: MW
HStem: -14 116<341.5 456 341.5 505.5> 588 116<341.5 456> 726 132<287 327 472 512>
VStem: 52 162<268 422.5 268 454.5> 239 135<772 812> 424 135<772 812> 583 162<268 422.5>
LayerCount: 2
Fore
SplineSet
307 726 m 0
 267 726 239 752 239 792 c 0
 239 832 267 858 307 858 c 0
 347 858 374 832 374 792 c 0
 374 752 347 726 307 726 c 0
492 726 m 0
 452 726 424 752 424 792 c 0
 424 832 452 858 492 858 c 0
 532 858 559 832 559 792 c 0
 559 752 532 726 492 726 c 0
399 704 m 0xd2
 612 704 745 564 745 345 c 0
 745 127 612 -14 399 -14 c 0
 185 -14 52 127 52 345 c 0
 52 564 185 704 399 704 c 0xd2
399 102 m 0
 513 102 583 191 583 345 c 0
 583 500 513 588 399 588 c 0
 284 588 214 500 214 345 c 0
 214 191 284 102 399 102 c 0
EndSplineSet
Position2: "'cpsp' Capital Spacing in Latin lookup 0 subtable" dx=5 dy=0 dh=10 dv=0
EndChar

StartChar: multiply
Encoding: 215 215 300
Width: 642
Flags: MW
HStem: 518 20G<171 171 471 471>
VStem: 108 426<175 175 175 475>
LayerCount: 2
Fore
SplineSet
384 325 m 1
 534 175 l 1
 471 113 l 1
 321 263 l 1
 171 113 l 1
 108 175 l 1
 258 325 l 1
 108 475 l 1
 171 538 l 1
 321 388 l 1
 471 538 l 1
 534 475 l 1
 384 325 l 1
EndSplineSet
EndChar

StartChar: Oslash
Encoding: 216 216 70
Width: 779
GlyphClass: 2
Flags: MW
HStem: -14 116<374 457.5 374 507> -7 21G<111 111> 515 20G<527 527> 588 116<343 426.5> 677 20G<690 690>
VStem: 54 162<325 422.5 325 454.5> 585 162<268 365.5>
LayerCount: 2
Fore
SplineSet
752 634 m 1xae
 685 567 l 1
 725 509 747 433 747 345 c 0
 747 127 614 -14 400 -14 c 0
 309 -14 233 12 176 58 c 1xb6
 111 -7 l 1
 48 56 l 1
 115 123 l 1
 76 182 54 257 54 345 c 0
 54 564 187 704 400 704 c 0
 491 704 568 679 625 632 c 1x76
 690 697 l 1
 752 634 l 1xae
216 345 m 0
 216 305 221 269 230 238 c 1
 527 535 l 1
 496 570 453 588 400 588 c 0
 286 588 216 500 216 345 c 0
585 345 m 0
 585 386 581 422 571 453 c 1
 274 156 l 1
 305 121 348 102 400 102 c 0
 515 102 585 191 585 345 c 0
EndSplineSet
Position2: "'cpsp' Capital Spacing in Latin lookup 0 subtable" dx=5 dy=0 dh=10 dv=0
EndChar

StartChar: Ugrave
Encoding: 217 217 94
Width: 709
GlyphClass: 2
Flags: MW
HStem: -14 116<326 412 326 470> 670 20G<75 231 231 231 507 663 663 663> 735 118<337 341 201 423 337 337>
VStem: 75 156<291 690> 507 156<275 291 291 690>
LayerCount: 2
Fore
SplineSet
423 735 m 1
 337 735 l 1
 201 853 l 1
 341 853 l 1
 423 735 l 1
663 690 m 1
 663 291 l 2
 663 259 663 239 660 203 c 0
 652 87 571 -14 369 -14 c 0
 167 -14 86 87 77 203 c 0
 75 239 75 259 75 291 c 2
 75 690 l 1
 231 690 l 1
 231 268 l 2
 231 249 231 236 232 222 c 0
 238 147 283 102 369 102 c 0
 455 102 500 147 505 222 c 1
 507 236 507 249 507 268 c 2
 507 690 l 1
 663 690 l 1
EndSplineSet
Position2: "'cpsp' Capital Spacing in Latin lookup 0 subtable" dx=5 dy=0 dh=10 dv=0
EndChar

StartChar: Uacute
Encoding: 218 218 91
Width: 709
GlyphClass: 2
Flags: MW
HStem: -14 116<326 412 326 470> 670 20G<75 231 231 231 507 663 663 663> 735 118<402 406 320 542>
VStem: 75 156<291 690> 507 156<275 291 291 690>
LayerCount: 2
Fore
SplineSet
406 735 m 1
 320 735 l 1
 402 853 l 1
 542 853 l 1
 406 735 l 1
663 690 m 1
 663 291 l 2
 663 259 663 239 660 203 c 0
 652 87 571 -14 369 -14 c 0
 167 -14 86 87 77 203 c 0
 75 239 75 259 75 291 c 2
 75 690 l 1
 231 690 l 1
 231 268 l 2
 231 249 231 236 232 222 c 0
 238 147 283 102 369 102 c 0
 455 102 500 147 505 222 c 1
 507 236 507 249 507 268 c 2
 507 690 l 1
 663 690 l 1
EndSplineSet
Position2: "'cpsp' Capital Spacing in Latin lookup 0 subtable" dx=5 dy=0 dh=10 dv=0
EndChar

StartChar: Ucircumflex
Encoding: 219 219 92
Width: 709
GlyphClass: 2
Flags: MW
HStem: -14 116<326 412 326 470> 670 20G<75 231 231 231 507 663 663 663> 735 118<306 337 243 433 401 401 401 433 306 496>
VStem: 75 156<291 690> 507 156<275 291 291 690>
LayerCount: 2
Fore
SplineSet
337 735 m 1
 243 735 l 1
 306 853 l 1
 433 853 l 1
 496 735 l 1
 401 735 l 1
 368 806 l 1
 337 735 l 1
663 690 m 1
 663 291 l 2
 663 259 663 239 660 203 c 0
 652 87 571 -14 369 -14 c 0
 167 -14 86 87 77 203 c 0
 75 239 75 259 75 291 c 2
 75 690 l 1
 231 690 l 1
 231 268 l 2
 231 249 231 236 232 222 c 0
 238 147 283 102 369 102 c 0
 455 102 500 147 505 222 c 1
 507 236 507 249 507 268 c 2
 507 690 l 1
 663 690 l 1
EndSplineSet
Position2: "'cpsp' Capital Spacing in Latin lookup 0 subtable" dx=5 dy=0 dh=10 dv=0
EndChar

StartChar: Udieresis
Encoding: 220 220 93
Width: 709
GlyphClass: 2
Flags: MW
HStem: -14 116<326 412 326 470> 670 20G<75 231 231 231 507 663 663 663> 726 132<257 297 442 482>
VStem: 75 156<291 690> 209 135<772 812> 394 135<772 812> 507 156<275 291 291 690>
LayerCount: 2
Fore
SplineSet
277 858 m 0xec
 317 858 344 832 344 792 c 0
 344 752 317 726 277 726 c 0
 237 726 209 752 209 792 c 0
 209 832 237 858 277 858 c 0xec
462 858 m 0
 502 858 529 832 529 792 c 0
 529 752 502 726 462 726 c 0
 422 726 394 752 394 792 c 0
 394 832 422 858 462 858 c 0
663 690 m 1xf2
 663 291 l 2
 663 259 663 239 660 203 c 0
 652 87 571 -14 369 -14 c 0
 167 -14 86 87 77 203 c 0
 75 239 75 259 75 291 c 2
 75 690 l 1
 231 690 l 1
 231 268 l 2
 231 249 231 236 232 222 c 0
 238 147 283 102 369 102 c 0
 455 102 500 147 505 222 c 1
 507 236 507 249 507 268 c 2
 507 690 l 1
 663 690 l 1xf2
EndSplineSet
Position2: "'cpsp' Capital Spacing in Latin lookup 0 subtable" dx=5 dy=0 dh=10 dv=0
EndChar

StartChar: Yacute
Encoding: 221 221 107
Width: 643
GlyphClass: 2
Flags: MW
HStem: 0 21G<259 415 259 259> 670 20G<15 192 192 192 486 658 658 658> 735 118<370 374 288 510>
VStem: 259 156<0 264 264 264>
LayerCount: 2
Fore
SplineSet
374 735 m 1
 288 735 l 1
 370 853 l 1
 510 853 l 1
 374 735 l 1
415 266 m 1
 415 0 l 1
 259 0 l 1
 259 264 l 1
 15 690 l 1
 192 690 l 1
 342 402 l 1
 486 690 l 1
 658 690 l 1
 415 266 l 1
EndSplineSet
Position2: "'cpsp' Capital Spacing in Latin lookup 0 subtable" dx=5 dy=0 dh=10 dv=0
EndChar

StartChar: Thorn
Encoding: 222 222 74
Width: 647
GlyphClass: 2
Flags: MW
HStem: 0 21G<85 242 85 85> 183 123<242 327 327 338 242 342 242 327> 479 123<242 327 242 342> 670 20G<85 242 242 242>
VStem: 85 157<0 183 0 306 306 479 602 690> 461 164<365.5 420>
LayerCount: 2
Fore
SplineSet
445 597 m 0
 545 585 625 521 625 393 c 0
 625 265 545 200 445 188 c 0
 410 184 383 183 342 183 c 2
 242 183 l 1
 242 0 l 1
 85 0 l 1
 85 690 l 1
 242 690 l 1
 242 602 l 1
 342 602 l 2
 383 602 410 601 445 597 c 0
383 308 m 0
 429 314 461 338 461 393 c 0
 461 447 429 471 383 477 c 0
 368 479 349 479 327 479 c 2
 242 479 l 1
 242 306 l 1
 327 306 l 2
 349 306 368 307 383 308 c 0
EndSplineSet
Position2: "'cpsp' Capital Spacing in Latin lookup 0 subtable" dx=5 dy=0 dh=10 dv=0
EndChar

StartChar: germandbls
Encoding: 223 223 199
Width: 652
GlyphClass: 2
Flags: MW
HStem: -4 116<393.5 413 380 476.5> 0 21G<59 216 59 59> 638 116<290.5 354.5>
VStem: 59 157<0 443 443 451 0 468> 330 165<383.5 413.5 383.5 422.5> 417 165<554 586.5> 457 165<151 183>
LayerCount: 2
Fore
SplineSet
328 754 m 0x74
 489 754 582 677 582 565 c 0x74
 582 531 574 504 555 476 c 1
 512 452 495 429 495 398 c 0x78
 495 369 511 345 547 310 c 0
 600 257 622 225 622 150 c 0
 622 47 528 -4 425 -4 c 0
 362 -4 336 -2 297 6 c 1
 297 125 l 1
 341 114 369 112 391 112 c 0
 435 112 457 133 457 169 c 0xb2
 457 197 444 222 408 257 c 0
 354 311 330 341 330 398 c 0x78
 330 447 352 484 403 514 c 1
 414 530 417 545 417 563 c 0
 417 610 387 638 322 638 c 0
 259 638 222 601 218 535 c 0
 217 521 216 502 216 451 c 2
 216 0 l 1
 59 0 l 1
 59 443 l 2
 59 493 60 519 61 537 c 0
 70 675 171 754 328 754 c 0x74
EndSplineSet
EndChar

StartChar: acircumflex
Encoding: 226 226 118
Width: 573
GlyphClass: 2
Flags: MW
HStem: -14 108<158 288.5> 0 94<243.5 370 243.5 523> 233 93<323 357> 439 108<256.5 304.5> 573 122<223 253 160 350 319 319 319 350 223 413> 645 50<286 286>
VStem: 32 161<135 186 135 200> 51 150<356 356> 357 156<194 233 233 233>
LayerCount: 2
Fore
SplineSet
253 573 m 1xaa80
 160 573 l 1
 223 695 l 1
 350 695 l 1
 413 573 l 1
 319 573 l 1x6a80
 286 645 l 1xa680
 253 573 l 1xaa80
370 0 m 1
 359 78 l 1x6a80
 335 21 l 1
 297 -3 252 -14 203 -14 c 0
 113 -14 32 41 32 142 c 0xaa80
 32 258 135 326 323 326 c 2
 357 326 l 1
 357 335 l 2
 357 349 357 363 355 381 c 0
 352 413 328 439 281 439 c 0
 232 439 205 409 201 356 c 1
 51 356 l 1
 54 478 157 547 287 547 c 0xb980
 445 547 502 478 510 383 c 0
 512 358 513 328 513 297 c 2
 513 135 l 2
 513 95 515 59 523 0 c 1
 370 0 l 1
265 94 m 0xaa80
 312 94 357 128 357 194 c 2
 357 233 l 1
 260 241 193 217 193 155 c 0
 193 115 222 94 265 94 c 0xaa80
EndSplineSet
EndChar

StartChar: atilde
Encoding: 227 227 124
Width: 573
GlyphClass: 2
Flags: MW
HStem: -14 108<158 288.5> 0 94<243.5 370 243.5 523> 233 93<323 357> 439 108<256.5 304.5> 577 90<342 344.5 335 382.5> 577 119<354 382.5> 581 118<190 218 137 230.5> 609 90<228 230.5 190 237.5>
VStem: 32 161<135 186 135 200> 51 150<356 356> 137 81<581 591 581 622.5> 354 82<685.5 696> 357 156<194 233 233 233>
LayerCount: 2
Fore
SplineSet
233 609 m 0xb128
 223 609 218 601 218 581 c 1
 137 581 l 1
 137 664 163 699 217 699 c 0xb228
 244 699 260 696 294 681 c 0
 318 671 331 667 339 667 c 0xb890
 350 667 354 675 354 696 c 1
 436 696 l 1
 436 612 410 577 355 577 c 0xb490
 329 577 313 581 278 595 c 0
 254 604 242 609 233 609 c 0xb128
370 0 m 1x7248
 359 78 l 1x7288
 335 21 l 1
 297 -3 252 -14 203 -14 c 0
 113 -14 32 41 32 142 c 0xb288
 32 258 135 326 323 326 c 2
 357 326 l 1
 357 335 l 2
 357 349 357 363 355 381 c 0
 352 413 328 439 281 439 c 0
 232 439 205 409 201 356 c 1
 51 356 l 1
 54 478 157 547 287 547 c 0
 445 547 502 478 510 383 c 0
 512 358 513 328 513 297 c 2
 513 135 l 2
 513 95 515 59 523 0 c 1
 370 0 l 1x7248
265 94 m 0xb288
 312 94 357 128 357 194 c 2
 357 233 l 1
 260 241 193 217 193 155 c 0
 193 115 222 94 265 94 c 0xb288
EndSplineSet
EndChar

StartChar: adieresis
Encoding: 228 228 119
Width: 573
GlyphClass: 2
Flags: MW
HStem: -14 108<158 288.5> 0 94<243.5 370 243.5 523> 233 93<323 357> 439 108<256.5 304.5> 573 132<173 213 359 399>
VStem: 32 161<135 186 135 200> 51 150<356 356> 125 136<619 659> 312 135<619 659> 357 156<194 233 233 233>
LayerCount: 2
Fore
SplineSet
193 573 m 0x7980
 153 573 125 599 125 639 c 0
 125 679 153 705 193 705 c 0
 233 705 261 679 261 639 c 0
 261 599 233 573 193 573 c 0x7980
379 573 m 0
 339 573 312 599 312 639 c 0
 312 679 339 705 379 705 c 0
 419 705 447 679 447 639 c 0
 447 599 419 573 379 573 c 0
370 0 m 1
 359 78 l 1x7440
 335 21 l 1
 297 -3 252 -14 203 -14 c 0
 113 -14 32 41 32 142 c 0xb440
 32 258 135 326 323 326 c 2
 357 326 l 1
 357 335 l 2
 357 349 357 363 355 381 c 0
 352 413 328 439 281 439 c 0
 232 439 205 409 201 356 c 1
 51 356 l 1
 54 478 157 547 287 547 c 0
 445 547 502 478 510 383 c 0
 512 358 513 328 513 297 c 2
 513 135 l 2
 513 95 515 59 523 0 c 1x7240
 370 0 l 1
265 94 m 0xb440
 312 94 357 128 357 194 c 2
 357 233 l 1
 260 241 193 217 193 155 c 0
 193 115 222 94 265 94 c 0xb440
EndSplineSet
EndChar

StartChar: aring
Encoding: 229 229 123
Width: 573
GlyphClass: 2
Flags: MW
HStem: -14 108<158 288.5> 0 94<243.5 370 243.5 523> 233 93<323 357> 439 108<256.5 304.5> 567 58<275 297 275 319> 711 58<275 297>
VStem: 32 161<135 186 135 200> 51 150<356 356> 174 75<654.5 681.5 654.5 698> 323 75<654.5 681.5> 357 156<194 233 233 233>
LayerCount: 2
Fore
SplineSet
286 567 m 0x7cc0
 220 567 174 608 174 668 c 0
 174 728 220 769 286 769 c 0
 352 769 398 728 398 668 c 0
 398 608 352 567 286 567 c 0x7cc0
286 711 m 0
 264 711 249 695 249 668 c 0
 249 641 264 625 286 625 c 0
 308 625 323 641 323 668 c 0
 323 695 308 711 286 711 c 0
370 0 m 1
 359 78 l 1x74a0
 335 21 l 1
 297 -3 252 -14 203 -14 c 0
 113 -14 32 41 32 142 c 0xb620
 32 258 135 326 323 326 c 2
 357 326 l 1
 357 335 l 2
 357 349 357 363 355 381 c 0
 352 413 328 439 281 439 c 0
 232 439 205 409 201 356 c 1
 51 356 l 1
 54 478 157 547 287 547 c 0
 445 547 502 478 510 383 c 0
 512 358 513 328 513 297 c 2
 513 135 l 2
 513 95 515 59 523 0 c 1x7520
 370 0 l 1
265 94 m 0xb620
 312 94 357 128 357 194 c 2
 357 233 l 1
 260 241 193 217 193 155 c 0
 193 115 222 94 265 94 c 0xb620
EndSplineSet
EndChar

StartChar: ae
Encoding: 230 230 125
Width: 953
GlyphClass: 2
Flags: MW
HStem: -14 108<248 260 630 687> 226 99<325 378 552 762> 439 108<263.5 319.5 632 689>
VStem: 32 161<136.5 186.5 136.5 207> 378 169<213 226 226 226> 762 163<325 325>
LayerCount: 2
Fore
SplineSet
925 276 m 0
 925 262 924 245 922 226 c 1
 547 226 l 1
 556 127 601 94 659 94 c 0
 715 94 752 124 760 174 c 1
 915 174 l 1
 887 51 787 -14 657 -14 c 0
 562 -14 485 22 440 101 c 1
 383 28 l 1
 342 -1 286 -14 234 -14 c 0
 114 -14 32 41 32 146 c 0
 32 268 145 325 325 325 c 2
 377 325 l 1
 377 337 l 2
 377 403 350 439 289 439 c 0
 238 439 204 409 201 356 c 1
 51 356 l 1
 52 478 155 547 287 547 c 0
 384 547 445 513 475 454 c 1
 518 516 589 547 674 547 c 0
 837 547 925 418 925 276 c 0
552 325 m 1
 762 325 l 1
 753 399 718 439 660 439 c 0
 604 439 564 402 552 325 c 1
378 213 m 2
 378 226 l 1
 254 232 193 215 193 158 c 0
 193 115 222 94 274 94 c 0
 335 94 378 138 378 213 c 2
EndSplineSet
EndChar

StartChar: ccedilla
Encoding: 231 231 130
Width: 573
GlyphClass: 2
Flags: MW
HStem: -210 62<229.5 258 229.5 279> -86 180<201 319> -11 21G<238 238> 336 211<223.5 548 223.5 395> 439 108<262 321>
VStem: 26 161<210 328.5 210 353.5> 297 96<-127 -105>
AnchorPoint: "Anchor-0" 285 0 basechar 0
LayerCount: 2
Fore
SplineSet
295 94 m 0xce
 343 94 381 127 393 189 c 1
 548 189 l 1
 529 65 439 -4 316 -13 c 1
 301 -41 l 1
 362 -49 393 -75 393 -120 c 0
 393 -186 323 -210 235 -210 c 0
 216 -210 198 -209 180 -203 c 1
 180 -140 l 1
 203 -146 222 -148 237 -148 c 0
 279 -148 297 -137 297 -117 c 0
 297 -93 274 -81 201 -86 c 1xce
 238 -11 l 1
 115 8 26 101 26 262 c 0
 26 445 148 547 299 547 c 0xae
 448 547 540 455 548 336 c 1xb6
 395 336 l 1
 384 409 347 439 295 439 c 0
 229 439 187 385 187 272 c 0
 187 148 230 94 295 94 c 0xce
EndSplineSet
EndChar

StartChar: ecircumflex
Encoding: 234 234 139
Width: 588
GlyphClass: 2
Flags: MW
HStem: -14 108<265.5 322.5 265.5 357> 226 99<187 397 187 557 183 397> 439 108<267 324> 573 122<233 263 170 360 329 329 329 360 233 423> 645 50<296 296>
VStem: 26 157<226 226 226 345>
AnchorPoint: "Anchor-0" 292 0 basechar 0
LayerCount: 2
Fore
SplineSet
263 573 m 1xd4
 170 573 l 1
 233 695 l 1
 360 695 l 1
 423 573 l 1
 329 573 l 1xd4
 296 645 l 1xcc
 263 573 l 1xd4
560 276 m 0
 560 262 559 245 557 226 c 1
 183 226 l 1
 192 124 236 94 295 94 c 0
 350 94 387 124 396 174 c 1
 551 174 l 1
 522 51 422 -14 292 -14 c 0
 143 -14 26 77 26 265 c 0
 26 425 133 547 302 547 c 0xf4
 472 547 560 418 560 276 c 0
295 439 m 0xf4
 239 439 200 404 187 325 c 1
 397 325 l 1
 388 400 353 439 295 439 c 0xf4
EndSplineSet
EndChar

StartChar: edieresis
Encoding: 235 235 140
Width: 588
GlyphClass: 2
Flags: MW
HStem: -14 108<265.5 322.5 265.5 357> 226 99<187 397 187 557 183 397> 439 108<267 324> 573 132<183 223 369 409>
VStem: 26 157<226 226 226 345> 135 136<619 659> 322 135<619 659>
AnchorPoint: "Anchor-0" 292 0 basechar 0
LayerCount: 2
Fore
SplineSet
203 573 m 0xf6
 163 573 135 599 135 639 c 0
 135 679 163 705 203 705 c 0
 243 705 271 679 271 639 c 0
 271 599 243 573 203 573 c 0xf6
389 573 m 0
 349 573 322 599 322 639 c 0
 322 679 349 705 389 705 c 0
 429 705 457 679 457 639 c 0
 457 599 429 573 389 573 c 0
560 276 m 0
 560 262 559 245 557 226 c 1
 183 226 l 1
 192 124 236 94 295 94 c 0
 350 94 387 124 396 174 c 1
 551 174 l 1
 522 51 422 -14 292 -14 c 0
 143 -14 26 77 26 265 c 0
 26 425 133 547 302 547 c 0xea
 472 547 560 418 560 276 c 0
295 439 m 0xea
 239 439 200 404 187 325 c 1
 397 325 l 1
 388 400 353 439 295 439 c 0xea
EndSplineSet
EndChar

StartChar: igrave
Encoding: 236 236 157
Width: 276
GlyphClass: 2
Flags: MW
HStem: 0 21G<59 216 59 59> 513 20G<59 216 216 216> 573 122<111 113 -27 197 111 111>
VStem: 59 157<0 533>
LayerCount: 2
Fore
SplineSet
197 573 m 1
 111 573 l 1
 -27 695 l 1
 113 695 l 1
 197 573 l 1
216 0 m 1
 59 0 l 1
 59 533 l 1
 216 533 l 1
 216 0 l 1
EndSplineSet
EndChar

StartChar: iacute
Encoding: 237 237 154
Width: 276
GlyphClass: 2
Flags: MW
HStem: 0 21G<59 216 59 59> 513 20G<59 216 216 216> 573 122<172 174 88 312>
VStem: 59 157<0 533>
LayerCount: 2
Fore
SplineSet
174 573 m 1
 88 573 l 1
 172 695 l 1
 312 695 l 1
 174 573 l 1
216 0 m 1
 59 0 l 1
 59 533 l 1
 216 533 l 1
 216 0 l 1
EndSplineSet
EndChar

StartChar: icircumflex
Encoding: 238 238 155
Width: 276
GlyphClass: 2
Flags: MW
HStem: 0 21G<59 216 59 59> 513 20G<59 216 216 216> 573 122<74 104 11 201 170 170 170 201 74 264> 645 50<137 137>
VStem: 59 157<0 533 0 533>
LayerCount: 2
Fore
SplineSet
104 573 m 1xe8
 11 573 l 1
 74 695 l 1
 201 695 l 1
 264 573 l 1
 170 573 l 1xe8
 137 645 l 1xd8
 104 573 l 1xe8
59 533 m 1
 216 533 l 1
 216 0 l 1
 59 0 l 1
 59 533 l 1
EndSplineSet
EndChar

StartChar: idieresis
Encoding: 239 239 156
Width: 276
GlyphClass: 2
Flags: MW
HStem: 0 21G<59 216 59 59> 513 20G<59 216 216 216> 573 132<24 64 210 250>
VStem: -24 136<619 659> 59 157<0 533> 163 135<619 659>
LayerCount: 2
Fore
SplineSet
44 705 m 0xe8
 84 705 112 679 112 639 c 0xe8
 112 599 84 573 44 573 c 0
 4 573 -24 599 -24 639 c 0xf0
 -24 679 4 705 44 705 c 0xe8
230 705 m 0
 270 705 298 679 298 639 c 0xe4
 298 599 270 573 230 573 c 0
 190 573 163 599 163 639 c 0
 163 679 190 705 230 705 c 0
216 0 m 1
 59 0 l 1
 59 533 l 1
 216 533 l 1
 216 0 l 1
EndSplineSet
EndChar

StartChar: eth
Encoding: 240 240 133
Width: 643
GlyphClass: 2
Flags: MW
HStem: -14 116<276 355.5 276 383.5> 432 115<276 301 213 351> 681 20G<552 552> 725 20G<367 367>
VStem: 26 164<211.5 317 211.5 356> 437 162<260 289 289 334.5>
LayerCount: 2
Fore
SplineSet
566 633 m 1
 524 623 l 1
 575 550 599 450 599 307 c 0
 599 69 452 -14 315 -14 c 0
 120 -14 26 102 26 265 c 0
 26 447 142 547 284 547 c 0
 318 547 345 540 382 518 c 1
 426 462 l 1
 420 509 404 551 373 589 c 1
 244 559 l 1
 230 626 l 1
 309 645 l 1
 289 658 265 671 237 682 c 1
 367 745 l 1
 407 727 441 707 470 682 c 1
 552 701 l 1
 566 633 l 1
437 260 m 2
 437 289 l 2
 437 380 385 432 317 432 c 0
 235 432 190 367 190 267 c 0
 190 156 236 102 316 102 c 0
 395 102 437 163 437 260 c 2
EndSplineSet
EndChar

StartChar: ntilde
Encoding: 241 241 176
Width: 631
GlyphClass: 2
Flags: MW
HStem: 439 108<293 440>
VStem: 59 157<0 247 449 533> 421 157<0 277 277 287>
AnchorPoint: "Anchor-0" 315 0 basechar 0
LayerCount: 2
Fore
SplineSet
264 609 m 0
 254 609 249 601 249 581 c 1
 168 581 l 1
 168 664 194 699 248 699 c 0
 275 699 291 696 325 681 c 0
 349 671 362 667 370 667 c 0
 381 667 385 675 385 696 c 1
 467 696 l 1
 467 612 441 577 386 577 c 0
 360 577 344 581 309 595 c 0
 285 604 273 609 264 609 c 0
573 400 m 0
 577 373 578 344 578 301 c 2
 578 0 l 1
 421 0 l 1
 421 277 l 2
 421 297 421 324 419 351 c 0
 415 405 385 439 324 439 c 0
 262 439 216 383 216 247 c 2
 216 0 l 1
 59 0 l 1
 59 533 l 1
 216 533 l 1
 216 449 l 1
 260 513 l 1
 296 537 334 547 384 547 c 0
 496 547 561 493 573 400 c 0
EndSplineSet
EndChar

StartChar: oacute
Encoding: 243 243 178
Width: 613
GlyphClass: 2
Flags: MW
HStem: -14 108<269.5 344 269.5 395> 439 108<269.5 344> 573 122<342 344 258 482>
VStem: 26 161<211.5 322.5 211.5 350> 426 162<211.5 322.5>
LayerCount: 2
Fore
SplineSet
344 573 m 1
 258 573 l 1
 342 695 l 1
 482 695 l 1
 344 573 l 1
307 547 m 0xd8
 483 547 588 433 588 267 c 0
 588 101 483 -14 307 -14 c 0
 130 -14 26 101 26 267 c 0
 26 433 130 547 307 547 c 0xd8
307 94 m 0
 381 94 426 156 426 267 c 0
 426 378 381 439 307 439 c 0
 232 439 187 378 187 267 c 0
 187 156 232 94 307 94 c 0
EndSplineSet
EndChar

StartChar: otilde
Encoding: 245 245 185
Width: 613
GlyphClass: 2
Flags: MW
HStem: -14 108<269.5 344 269.5 395> 439 108<269.5 344> 577 90<363 365.5 356 403.5> 577 119<375 403.5> 581 118<211 239 158 251.5> 609 90<249 251.5 211 258.5>
VStem: 26 161<211.5 322.5 211.5 350> 158 81<581 591 581 622.5> 375 82<685.5 696> 426 162<211.5 322.5>
LayerCount: 2
Fore
SplineSet
254 609 m 0xc540
 244 609 239 601 239 581 c 1
 158 581 l 1
 158 664 184 699 238 699 c 0xc940
 265 699 281 696 315 681 c 0
 339 671 352 667 360 667 c 0xe280
 371 667 375 675 375 696 c 1
 457 696 l 1
 457 612 431 577 376 577 c 0xd280
 350 577 334 581 299 595 c 0
 275 604 263 609 254 609 c 0xc540
307 547 m 0xca40
 483 547 588 433 588 267 c 0
 588 101 483 -14 307 -14 c 0
 130 -14 26 101 26 267 c 0
 26 433 130 547 307 547 c 0xca40
307 94 m 0
 381 94 426 156 426 267 c 0
 426 378 381 439 307 439 c 0
 232 439 187 378 187 267 c 0
 187 156 232 94 307 94 c 0
EndSplineSet
EndChar

StartChar: odieresis
Encoding: 246 246 180
Width: 613
GlyphClass: 2
Flags: MW
HStem: -14 108<269.5 344 269.5 395> 439 108<269.5 344> 573 132<194 234 380 420>
VStem: 26 161<211.5 322.5 211.5 350> 146 136<619 659> 333 135<619 659> 426 162<211.5 322.5>
LayerCount: 2
Fore
SplineSet
214 573 m 0xec
 174 573 146 599 146 639 c 0
 146 679 174 705 214 705 c 0
 254 705 282 679 282 639 c 0
 282 599 254 573 214 573 c 0xec
400 573 m 0
 360 573 333 599 333 639 c 0
 333 679 360 705 400 705 c 0
 440 705 468 679 468 639 c 0
 468 599 440 573 400 573 c 0
307 547 m 0xd2
 483 547 588 433 588 267 c 0
 588 101 483 -14 307 -14 c 0
 130 -14 26 101 26 267 c 0
 26 433 130 547 307 547 c 0xd2
307 94 m 0
 381 94 426 156 426 267 c 0
 426 378 381 439 307 439 c 0
 232 439 187 378 187 267 c 0
 187 156 232 94 307 94 c 0
EndSplineSet
EndChar

StartChar: divide
Encoding: 247 247 289
Width: 642
Flags: MW
HStem: 62 148<300.5 342> 275 86<85 557 85 557> 424 148<300.5 342>
VStem: 247 148<115 157 477 519>
LayerCount: 2
Fore
SplineSet
321 572 m 0
 363 572 395 540 395 498 c 0
 395 456 363 424 321 424 c 0
 280 424 247 456 247 498 c 0
 247 540 280 572 321 572 c 0
557 275 m 1
 85 275 l 1
 85 361 l 1
 557 361 l 1
 557 275 l 1
321 210 m 0
 363 210 395 178 395 136 c 0
 395 94 363 62 321 62 c 0
 280 62 247 94 247 136 c 0
 247 178 280 210 321 210 c 0
EndSplineSet
EndChar

StartChar: oslash
Encoding: 248 248 184
Width: 634
GlyphClass: 2
Flags: MW
HStem: -14 108<297 349.5> 439 108<274.5 328.5>
VStem: 31 161<256.5 322.5 256.5 350> 431 162<211.5 275.5>
LayerCount: 2
Fore
SplineSet
612 498 m 1
 547 433 l 1
 577 388 593 332 593 267 c 0
 593 101 488 -14 312 -14 c 0
 246 -14 190 2 145 31 c 1
 85 -29 l 1
 22 35 l 1
 81 94 l 1
 48 140 31 199 31 267 c 0
 31 433 136 547 312 547 c 0
 381 547 440 529 485 498 c 1
 549 562 l 1
 612 498 l 1
192 267 m 0
 192 246 194 227 197 210 c 1
 392 405 l 1
 372 427 345 439 312 439 c 0
 237 439 192 378 192 267 c 0
431 267 m 0
 431 284 430 300 428 314 c 1
 237 123 l 1
 256 104 282 94 312 94 c 0
 387 94 431 156 431 267 c 0
EndSplineSet
EndChar

StartChar: uacute
Encoding: 250 250 206
Width: 628
GlyphClass: 2
Flags: MW
HStem: -14 109<188 338> 0 95<275.5 568 275.5 412> 513 20G<50 206 206 206 412 568 568 568> 573 122<344 346 260 484>
VStem: 50 156<245.5 254 254 533> 412 156<0 91 91 91 248 533 0 533>
LayerCount: 2
Fore
SplineSet
346 573 m 1xbc
 260 573 l 1
 344 695 l 1
 484 695 l 1
 346 573 l 1xbc
568 533 m 1
 568 0 l 1
 412 0 l 1
 412 91 l 1x7c
 367 20 l 1
 331 -4 293 -14 243 -14 c 0
 133 -14 67 48 55 121 c 0
 51 148 50 177 50 220 c 2
 50 533 l 1
 206 533 l 1
 206 254 l 2
 206 237 207 208 210 181 c 0
 217 127 245 95 306 95 c 0
 370 95 412 150 412 248 c 2
 412 533 l 1
 568 533 l 1
EndSplineSet
EndChar

StartChar: ucircumflex
Encoding: 251 251 207
Width: 628
GlyphClass: 2
Flags: MW
HStem: -14 109<188 338> 0 95<275.5 568 275.5 412> 513 20G<50 206 206 206 412 568 568 568> 573 122<246 276 183 373 342 342 342 373 246 436> 645 50<309 309>
VStem: 50 156<245.5 254 254 533> 412 156<0 91 91 91 248 533 0 533>
LayerCount: 2
Fore
SplineSet
276 573 m 1xb6
 183 573 l 1
 246 695 l 1
 373 695 l 1
 436 573 l 1
 342 573 l 1xb6
 309 645 l 1xae
 276 573 l 1xb6
568 533 m 1
 568 0 l 1
 412 0 l 1
 412 91 l 1x76
 367 20 l 1
 331 -4 293 -14 243 -14 c 0
 133 -14 67 48 55 121 c 0
 51 148 50 177 50 220 c 2
 50 533 l 1
 206 533 l 1
 206 254 l 2
 206 237 207 208 210 181 c 0
 217 127 245 95 306 95 c 0
 370 95 412 150 412 248 c 2
 412 533 l 1
 568 533 l 1
EndSplineSet
EndChar

StartChar: udieresis
Encoding: 252 252 208
Width: 628
GlyphClass: 2
Flags: MW
HStem: -14 109<188 338> 0 95<275.5 568 275.5 412> 513 20G<50 206 206 206 412 568 568 568> 573 132<196 236 382 422>
VStem: 50 156<245.5 254 254 533> 148 136<619 659> 335 135<619 659> 412 156<0 91 91 91 248 533 0 533>
LayerCount: 2
Fore
SplineSet
216 573 m 0xb9
 176 573 148 599 148 639 c 0xb9
 148 679 176 705 216 705 c 0
 256 705 284 679 284 639 c 0xb5
 284 599 256 573 216 573 c 0xb9
402 573 m 0
 362 573 335 599 335 639 c 0xba
 335 679 362 705 402 705 c 0
 442 705 470 679 470 639 c 0
 470 599 442 573 402 573 c 0
568 533 m 1
 568 0 l 1
 412 0 l 1
 412 91 l 1x79
 367 20 l 1
 331 -4 293 -14 243 -14 c 0
 133 -14 67 48 55 121 c 0
 51 148 50 177 50 220 c 2
 50 533 l 1
 206 533 l 1
 206 254 l 2
 206 237 207 208 210 181 c 0
 217 127 245 95 306 95 c 0
 370 95 412 150 412 248 c 2
 412 533 l 1
 568 533 l 1
EndSplineSet
EndChar

StartChar: ydieresis
Encoding: 255 255 224
Width: 584
GlyphClass: 2
Flags: MW
HStem: -210 107<127.5 139.5 109 199> 513 20G<0 175 175 175 418 589 589 589> 573 132<176 216 362 402>
VStem: 128 136<619 659> 315 135<619 659>
LayerCount: 2
Fore
SplineSet
196 573 m 0
 156 573 128 599 128 639 c 0
 128 679 156 705 196 705 c 0
 236 705 264 679 264 639 c 0
 264 599 236 573 196 573 c 0
382 573 m 0
 342 573 315 599 315 639 c 0
 315 679 342 705 382 705 c 0
 422 705 450 679 450 639 c 0
 450 599 422 573 382 573 c 0
589 533 m 1
 376 -11 l 2
 315 -166 257 -210 141 -210 c 0
 114 -210 95 -209 73 -206 c 1
 73 -101 l 1
 87 -103 101 -103 117 -103 c 0
 162 -103 192 -87 212 -41 c 2
 219 -24 l 1
 0 533 l 1
 175 533 l 1
 297 121 l 1
 418 533 l 1
 589 533 l 1
EndSplineSet
EndChar

StartChar: Amacron
Encoding: 256 256 7
Width: 690
GlyphClass: 2
Flags: MW
HStem: 0 21G<10 177 10 10 529 529 529 699> 195 123<280 427 280 466 241 427> 554 136<354 354> 670 20G<259 453 453 453> 759 85<214 499 214 499>
VStem: 214 285<759 844 759 844>
LayerCount: 2
Fore
SplineSet
499 759 m 1xdc
 214 759 l 1
 214 844 l 1
 499 844 l 1
 499 759 l 1xdc
466 195 m 1
 241 195 l 1
 177 0 l 1
 10 0 l 1
 259 690 l 1
 453 690 l 1
 699 0 l 1
 529 0 l 1
 466 195 l 1
354 554 m 1xec
 280 318 l 1
 427 318 l 1
 354 554 l 1xec
EndSplineSet
Position2: "'cpsp' Capital Spacing in Latin lookup 0 subtable" dx=5 dy=0 dh=10 dv=0
EndChar

StartChar: amacron
Encoding: 257 257 121
Width: 573
GlyphClass: 2
Flags: MW
HStem: -14 108<158 288.5> 0 94<243.5 370 243.5 523> 233 93<323 357> 439 108<256.5 304.5> 591 85<144 429 144 429>
VStem: 32 161<135 186 135 200> 51 150<356 356> 144 285<591 676 591 676> 357 156<194 233 233 233>
LayerCount: 2
Fore
SplineSet
429 591 m 1x79
 144 591 l 1
 144 676 l 1
 429 676 l 1
 429 591 l 1x79
370 0 m 1
 359 78 l 1x7c80
 335 21 l 1
 297 -3 252 -14 203 -14 c 0
 113 -14 32 41 32 142 c 0xbc80
 32 258 135 326 323 326 c 2
 357 326 l 1
 357 335 l 2
 357 349 357 363 355 381 c 0
 352 413 328 439 281 439 c 0
 232 439 205 409 201 356 c 1
 51 356 l 1
 54 478 157 547 287 547 c 0
 445 547 502 478 510 383 c 0
 512 358 513 328 513 297 c 2
 513 135 l 2
 513 95 515 59 523 0 c 1x7a80
 370 0 l 1
265 94 m 0xbc80
 312 94 357 128 357 194 c 2
 357 233 l 1
 260 241 193 217 193 155 c 0
 193 115 222 94 265 94 c 0xbc80
EndSplineSet
EndChar

StartChar: Abreve
Encoding: 258 258 3
Width: 690
GlyphClass: 2
Flags: MW
HStem: 0 21G<10 177 10 10 529 529 529 699> 195 123<280 427 280 466 241 427> 554 136<354 354> 670 20G<259 453 453 453> 727 126<229 391.5>
VStem: 229 81<807 853> 402 81<807 853>
LayerCount: 2
Fore
SplineSet
356 727 m 0xde
 284 727 229 761 229 853 c 1
 310 853 l 1
 312 820 327 804 356 804 c 0
 385 804 400 820 402 853 c 1
 483 853 l 1
 483 761 427 727 356 727 c 0xde
466 195 m 1
 241 195 l 1
 177 0 l 1
 10 0 l 1
 259 690 l 1
 453 690 l 1
 699 0 l 1
 529 0 l 1
 466 195 l 1
354 554 m 1xee
 280 318 l 1
 427 318 l 1
 354 554 l 1xee
EndSplineSet
Position2: "'cpsp' Capital Spacing in Latin lookup 0 subtable" dx=5 dy=0 dh=10 dv=0
EndChar

StartChar: Aogonek
Encoding: 260 260 8
Width: 690
GlyphClass: 2
Flags: MW
HStem: -223 90<512.5 628.5> 0 21G<10 177 10 10 636 636 636 699> 195 123<280 427 280 466 241 427> 554 136<354 354> 670 20G<259 453 453 453>
VStem: 435 144<-169 -60>
LayerCount: 2
Fore
SplineSet
579 -82 m 0xec
 579 -120 598 -133 621 -133 c 0
 636 -133 651 -127 668 -112 c 1
 668 -179 l 1
 640 -205 600 -223 544 -223 c 0
 481 -223 435 -201 435 -137 c 0
 435 -73 479 -19 527 6 c 1
 466 195 l 1
 241 195 l 1
 177 0 l 1
 10 0 l 1
 259 690 l 1
 453 690 l 1
 699 0 l 1
 636 0 l 1
 605 -2 579 -38 579 -82 c 0xec
354 554 m 1xf4
 280 318 l 1
 427 318 l 1
 354 554 l 1xf4
EndSplineSet
Position2: "'cpsp' Capital Spacing in Latin lookup 0 subtable" dx=5 dy=0 dh=10 dv=0
EndChar

StartChar: aogonek
Encoding: 261 261 122
Width: 573
GlyphClass: 2
Flags: MW
HStem: -223 90<354.5 470.5> -14 21G -14 108<158 288.5> 0 21G 233 93<323 357> 439 108<256.5 304.5>
VStem: 32 161<135 186 135 200> 51 150<356 356> 277 144<-169 -60> 357 156<194 233 233 233>
LayerCount: 2
Fore
SplineSet
421 -82 m 0x9e80
 421 -120 440 -133 463 -133 c 0
 478 -133 493 -127 510 -112 c 1
 510 -179 l 1
 482 -205 442 -223 386 -223 c 0
 323 -223 277 -201 277 -137 c 0
 277 -73 321 -19 369 7 c 1
 359 78 l 1xce80
 335 21 l 1
 297 -3 252 -14 203 -14 c 0
 113 -14 32 41 32 142 c 0xae80
 32 258 135 326 323 326 c 2
 357 326 l 1
 357 335 l 2
 357 349 357 363 355 381 c 0
 352 413 328 439 281 439 c 0
 232 439 205 409 201 356 c 1
 51 356 l 1
 54 478 157 547 287 547 c 0
 445 547 502 478 510 383 c 0
 512 358 513 328 513 297 c 2
 513 135 l 2
 513 95 515 59 523 0 c 1x9d40
 478 0 l 1
 447 -2 421 -38 421 -82 c 0x9e80
265 94 m 0xae40
 312 94 357 128 357 194 c 2
 357 233 l 1
 260 241 193 217 193 155 c 0
 193 115 222 94 265 94 c 0xae40
EndSplineSet
EndChar

StartChar: cacute
Encoding: 263 263 128
Width: 573
GlyphClass: 2
Flags: MW
HStem: -14 108<262.5 319 262.5 355.5> 336 211<223.5 548 223.5 395> 439 108<262 321> 573 122<322 324 238 462>
VStem: 26 161<210 328.5 210 353.5>
AnchorPoint: "Anchor-0" 285 0 basechar 0
LayerCount: 2
Fore
SplineSet
324 573 m 1xb8
 238 573 l 1
 322 695 l 1
 462 695 l 1
 324 573 l 1xb8
299 547 m 0xa8
 448 547 540 455 548 336 c 1xc8
 395 336 l 1
 384 409 347 439 295 439 c 0
 229 439 187 385 187 272 c 0
 187 148 230 94 295 94 c 0
 343 94 381 127 393 189 c 1
 548 189 l 1
 527 55 425 -14 286 -14 c 0
 138 -14 26 81 26 262 c 0
 26 445 148 547 299 547 c 0xa8
EndSplineSet
EndChar

StartChar: cdotaccent
Encoding: 267 267 131
Width: 573
GlyphClass: 2
Flags: MW
HStem: -14 108<262.5 319 262.5 355.5> 336 211<223.5 548 223.5 395> 439 108<262 321> 580 159<262 312>
VStem: 26 161<210 328.5 210 353.5> 204 167<635.5 684>
AnchorPoint: "Anchor-0" 285 0 basechar 0
LayerCount: 2
Fore
SplineSet
287 739 m 0xbc
 337 739 371 708 371 660 c 0
 371 611 337 580 287 580 c 0
 237 580 204 611 204 660 c 0
 204 708 237 739 287 739 c 0xbc
299 547 m 0
 448 547 540 455 548 336 c 1xd8
 395 336 l 1
 384 409 347 439 295 439 c 0
 229 439 187 385 187 272 c 0
 187 148 230 94 295 94 c 0
 343 94 381 127 393 189 c 1
 548 189 l 1
 527 55 425 -14 286 -14 c 0
 138 -14 26 81 26 262 c 0xb8
 26 445 148 547 299 547 c 0
EndSplineSet
EndChar

StartChar: Ccaron
Encoding: 268 268 15
Width: 725
GlyphClass: 2
Flags: MW
HStem: -14 116<340 427.5 340 468.5> 588 116<338 429.5> 735 118<317 317 317 349 413 444>
VStem: 52 165<263.5 426.5 263.5 457>
AnchorPoint: "Anchor-0" 370 0 basechar 0
LayerCount: 2
Fore
SplineSet
317 735 m 1
 254 853 l 1
 349 853 l 1
 382 782 l 1
 413 853 l 1
 507 853 l 1
 444 735 l 1
 317 735 l 1
535 243 m 1
 692 243 l 1
 691 233 l 2
 675 77 556 -14 381 -14 c 0
 192 -14 52 115 52 341 c 0
 52 573 200 704 390 704 c 0
 581 704 680 601 694 465 c 2
 695 455 l 1
 538 455 l 1
 536 465 l 2
 520 545 471 588 388 588 c 0
 288 588 217 503 217 350 c 0
 217 177 293 102 387 102 c 0
 468 102 517 151 533 233 c 2
 535 243 l 1
EndSplineSet
Position2: "'cpsp' Capital Spacing in Latin lookup 0 subtable" dx=5 dy=0 dh=10 dv=0
EndChar

StartChar: ccaron
Encoding: 269 269 129
Width: 573
GlyphClass: 2
Flags: MW
HStem: -14 108<262.5 319 262.5 355.5> 336 211<223.5 548 223.5 395> 439 108<262 321> 573 122<224 224 224 255 321 351>
VStem: 26 161<210 328.5 210 353.5>
AnchorPoint: "Anchor-0" 285 0 basechar 0
LayerCount: 2
Fore
SplineSet
224 573 m 1x98
 161 695 l 1
 255 695 l 1
 289 623 l 1
 321 695 l 1
 414 695 l 1
 351 573 l 1
 224 573 l 1x98
295 94 m 0
 343 94 381 127 393 189 c 1
 548 189 l 1
 527 55 425 -14 286 -14 c 0
 138 -14 26 81 26 262 c 0
 26 445 148 547 299 547 c 0xb8
 448 547 540 455 548 336 c 1xd8
 395 336 l 1
 384 409 347 439 295 439 c 0xb8
 229 439 187 385 187 272 c 0
 187 148 230 94 295 94 c 0
EndSplineSet
EndChar

StartChar: Dcaron
Encoding: 270 270 20
Width: 739
GlyphClass: 2
Flags: MW
HStem: 0 123<242 312 312 326.5 242 332> 568 122<242 313 242 242> 735 118<318 318 318 350 414 445>
VStem: 85 157<123 568 123 690 123 690> 544 165<285.5 417>
LayerCount: 2
Fore
SplineSet
318 735 m 1
 255 853 l 1
 350 853 l 1
 383 782 l 1
 414 853 l 1
 508 853 l 1
 445 735 l 1
 318 735 l 1
421 686 m 0
 581 668 709 567 709 354 c 0
 709 141 580 23 420 4 c 0
 385 0 369 0 332 0 c 2
 85 0 l 1
 85 690 l 1
 333 690 l 2
 370 690 386 690 421 686 c 0
382 125 m 0
 479 136 544 219 544 352 c 0
 544 482 480 554 383 565 c 0
 360 567 342 568 313 568 c 2
 242 568 l 1
 242 123 l 1
 312 123 l 2
 341 123 359 123 382 125 c 0
EndSplineSet
Position2: "'cpsp' Capital Spacing in Latin lookup 0 subtable" dx=5 dy=0 dh=10 dv=0
EndChar

StartChar: dcaron
Encoding: 271 271 134
Width: 656
GlyphClass: 2
Flags: MW
HStem: -14 108<275 289> 0 94<275 596 275 439> 439 108<279 302 211.5 346.5> 565 170<439 708 439 620> 565 171<696 708 620 799>
VStem: 26 161<212.5 323 212.5 351.5> 439 157<0 80 80 80 260 285 285 342 463 735 0 735>
LayerCount: 2
Fore
SplineSet
799 736 m 1x8e
 799 725 l 1x8e
 708 565 l 1
 620 565 l 1x96
 696 736 l 1
 799 736 l 1x8e
439 735 m 1x96
 596 735 l 1
 596 0 l 1
 439 0 l 1
 439 80 l 1x56
 399 21 l 1
 369 -2 316 -14 262 -14 c 0
 115 -14 26 98 26 256 c 0
 26 447 143 547 280 547 c 0
 324 547 377 536 404 519 c 1
 439 463 l 1xb6
 439 735 l 1x96
312 94 m 0xb6
 383 94 439 138 439 260 c 2
 439 285 l 2
 439 399 376 439 317 439 c 0
 241 439 187 381 187 265 c 0
 187 160 238 94 312 94 c 0xb6
EndSplineSet
EndChar

StartChar: dcroat
Encoding: 273 273 135
Width: 657
GlyphClass: 2
Flags: MW
HStem: -14 108<275 289> 0 94<275 596 275 439> 439 108<279 302 211.5 346.5> 580 86<320 439 320 439 596 637> 580 155<320 596 320 596 439 637 439 596>
VStem: 26 161<212.5 323 212.5 351.5> 439 157<0 80 80 80 260 285 285 342 463 580 0 580 666 735 0 735>
LayerCount: 2
Fore
SplineSet
637 580 m 1xae
 596 580 l 1
 596 0 l 1
 439 0 l 1
 439 80 l 1x6e
 399 21 l 1
 369 -2 316 -14 262 -14 c 0
 115 -14 26 98 26 256 c 0
 26 447 143 547 280 547 c 0
 324 547 377 536 404 519 c 1
 439 463 l 1
 439 580 l 1
 320 580 l 1xae
 320 666 l 1
 439 666 l 1xb6
 439 735 l 1
 596 735 l 1xae
 596 666 l 1
 637 666 l 1xb6
 637 580 l 1xae
312 94 m 0xae
 383 94 439 138 439 260 c 2
 439 285 l 2
 439 399 376 439 317 439 c 0
 241 439 187 381 187 265 c 0
 187 160 238 94 312 94 c 0xae
EndSplineSet
EndChar

StartChar: Emacron
Encoding: 274 274 29
Width: 626
GlyphClass: 2
Flags: MW
HStem: 0 123<242 597 242 597> 285 122<242 564 242 564> 568 122<242 587 242 242> 759 85<197 482 197 482>
VStem: 85 157<123 285 407 568> 197 285<759 844 759 844>
AnchorPoint: "Anchor-0" 322 0 basechar 0
LayerCount: 2
Fore
SplineSet
482 759 m 1xf4
 197 759 l 1
 197 844 l 1
 482 844 l 1
 482 759 l 1xf4
597 123 m 1
 597 0 l 1
 85 0 l 1
 85 690 l 1
 587 690 l 1
 587 568 l 1
 242 568 l 1
 242 407 l 1
 564 407 l 1
 564 285 l 1
 242 285 l 1
 242 123 l 1xf8
 597 123 l 1
EndSplineSet
Position2: "'cpsp' Capital Spacing in Latin lookup 0 subtable" dx=5 dy=0 dh=10 dv=0
EndChar

StartChar: emacron
Encoding: 275 275 143
Width: 588
GlyphClass: 2
Flags: MW
HStem: -14 108<265.5 322.5 265.5 357> 226 99<187 397 187 557 183 397> 439 108<267 324> 591 85<154 439 154 439>
VStem: 26 157<226 226 226 345> 154 285<591 676 591 676>
AnchorPoint: "Anchor-0" 292 0 basechar 0
LayerCount: 2
Fore
SplineSet
439 591 m 1xf4
 154 591 l 1
 154 676 l 1
 439 676 l 1
 439 591 l 1xf4
560 276 m 0
 560 262 559 245 557 226 c 1
 183 226 l 1
 192 124 236 94 295 94 c 0
 350 94 387 124 396 174 c 1
 551 174 l 1
 522 51 422 -14 292 -14 c 0
 143 -14 26 77 26 265 c 0xf8
 26 425 133 547 302 547 c 0
 472 547 560 418 560 276 c 0
295 439 m 0
 239 439 200 404 187 325 c 1
 397 325 l 1
 388 400 353 439 295 439 c 0
EndSplineSet
EndChar

StartChar: Edotaccent
Encoding: 278 278 27
Width: 626
GlyphClass: 2
Flags: MW
HStem: 0 123<242 597 242 597> 285 122<242 564 242 564> 568 122<242 587 242 242> 728 155<315 363>
VStem: 85 157<123 285 407 568> 258 162<782.5 829>
AnchorPoint: "Anchor-0" 322 0 basechar 0
LayerCount: 2
Fore
SplineSet
339 728 m 0
 291 728 258 759 258 806 c 0
 258 852 291 883 339 883 c 0
 387 883 420 852 420 806 c 0
 420 759 387 728 339 728 c 0
597 123 m 1
 597 0 l 1
 85 0 l 1
 85 690 l 1
 587 690 l 1
 587 568 l 1
 242 568 l 1
 242 407 l 1
 564 407 l 1
 564 285 l 1
 242 285 l 1
 242 123 l 1xe8
 597 123 l 1
EndSplineSet
Position2: "'cpsp' Capital Spacing in Latin lookup 0 subtable" dx=5 dy=0 dh=10 dv=0
EndChar

StartChar: Eogonek
Encoding: 280 280 30
Width: 626
GlyphClass: 2
Flags: MW
HStem: -223 90<435.5 551.5> 0 123<242 439 559 597 559 559> 285 122<242 564 242 564> 568 122<242 587 242 242>
VStem: 85 157<123 285 407 568> 358 144<-169 -60>
AnchorPoint: "Anchor-0" 322 0 basechar 0
LayerCount: 2
Fore
SplineSet
597 0 m 1
 559 0 l 1
 528 -2 502 -38 502 -82 c 0
 502 -120 521 -133 544 -133 c 0
 559 -133 574 -127 591 -112 c 1
 591 -179 l 1
 563 -205 523 -223 467 -223 c 0
 404 -223 358 -201 358 -137 c 0
 358 -78 396 -27 439 0 c 1
 85 0 l 1
 85 690 l 1
 587 690 l 1
 587 568 l 1
 242 568 l 1
 242 407 l 1
 564 407 l 1
 564 285 l 1
 242 285 l 1
 242 123 l 1
 597 123 l 1
 597 0 l 1
EndSplineSet
Position2: "'cpsp' Capital Spacing in Latin lookup 0 subtable" dx=5 dy=0 dh=10 dv=0
EndChar

StartChar: eogonek
Encoding: 281 281 144
Width: 588
GlyphClass: 2
Flags: MW
HStem: -223 90<266.5 382.5> -12 21G -5 21G 226 99<187 397 187 557 183 397> 439 108<267 324>
VStem: 26 157<226 226 226 345> 189 144<-169 -64> 397 163<325 325>
AnchorPoint: "Anchor-0" 292 0 basechar 0
LayerCount: 2
Fore
SplineSet
560 276 m 0xbd
 560 262 559 245 557 226 c 1
 183 226 l 1xbd
 192 124 236 94 295 94 c 0
 350 94 387 124 396 174 c 1
 551 174 l 1
 530 84 471 25 390 0 c 0
 384 -2 379 -3 373 -5 c 0
 350 -16 333 -46 333 -82 c 0
 333 -120 352 -133 375 -133 c 0
 390 -133 405 -127 422 -112 c 1
 422 -179 l 1
 394 -205 354 -223 298 -223 c 0
 235 -223 189 -201 189 -137 c 0xbb
 189 -86 218 -41 253 -12 c 1xdd
 123 3 26 94 26 265 c 0
 26 425 133 547 302 547 c 0
 472 547 560 418 560 276 c 0xbd
295 439 m 0
 239 439 200 404 187 325 c 1
 397 325 l 1
 388 400 353 439 295 439 c 0
EndSplineSet
EndChar

StartChar: Ecaron
Encoding: 282 282 24
Width: 626
GlyphClass: 2
Flags: MW
HStem: 0 123<242 597 242 597> 285 122<242 564 242 564> 568 122<242 587 242 242> 735 118<276 276 276 308 372 403>
VStem: 85 157<123 285 407 568>
AnchorPoint: "Anchor-0" 322 0 basechar 0
LayerCount: 2
Fore
SplineSet
276 735 m 1
 213 853 l 1
 308 853 l 1
 341 782 l 1
 372 853 l 1
 466 853 l 1
 403 735 l 1
 276 735 l 1
597 123 m 1
 597 0 l 1
 85 0 l 1
 85 690 l 1
 587 690 l 1
 587 568 l 1
 242 568 l 1
 242 407 l 1
 564 407 l 1
 564 285 l 1
 242 285 l 1
 242 123 l 1
 597 123 l 1
EndSplineSet
Position2: "'cpsp' Capital Spacing in Latin lookup 0 subtable" dx=5 dy=0 dh=10 dv=0
EndChar

StartChar: ecaron
Encoding: 283 283 138
Width: 588
GlyphClass: 2
Flags: MW
HStem: -14 108<265.5 322.5 265.5 357> 226 99<187 397 187 557 183 397> 439 108<267 324> 573 122<233 233 233 264 330 360>
VStem: 26 157<226 226 226 345>
AnchorPoint: "Anchor-0" 292 0 basechar 0
LayerCount: 2
Fore
SplineSet
233 573 m 1
 170 695 l 1
 264 695 l 1
 298 623 l 1
 330 695 l 1
 423 695 l 1
 360 573 l 1
 233 573 l 1
560 276 m 0
 560 262 559 245 557 226 c 1
 183 226 l 1
 192 124 236 94 295 94 c 0
 350 94 387 124 396 174 c 1
 551 174 l 1
 522 51 422 -14 292 -14 c 0
 143 -14 26 77 26 265 c 0
 26 425 133 547 302 547 c 0xf8
 472 547 560 418 560 276 c 0
295 439 m 0xf8
 239 439 200 404 187 325 c 1
 397 325 l 1
 388 400 353 439 295 439 c 0xf8
EndSplineSet
EndChar

StartChar: Gbreve
Encoding: 286 286 33
Width: 747
GlyphClass: 2
Flags: MW
HStem: -14 116<344 402.5> 0 21G<572 696 572 572> 237 122<407 547 407 696> 588 116<344.5 437> 727 126<255 417.5>
VStem: 52 165<263.5 426.5 263.5 457> 255 81<807 853> 428 81<807 853> 566 130
AnchorPoint: "Anchor-0" 389 0 basechar 0
LayerCount: 2
Fore
SplineSet
382 727 m 0xbf80
 310 727 255 761 255 853 c 1
 336 853 l 1
 338 820 353 804 382 804 c 0
 411 804 426 820 428 853 c 1
 509 853 l 1
 509 761 453 727 382 727 c 0xbf80
407 359 m 1
 696 359 l 1
 696 0 l 1
 572 0 l 1x7780
 560 109 l 1
 529 37 l 1
 490 1 440 -14 365 -14 c 0
 177 -14 52 116 52 341 c 0
 52 573 206 704 397 704 c 0
 589 704 687 601 701 465 c 2
 702 455 l 1
 546 455 l 1
 544 465 l 2
 528 545 479 588 395 588 c 0xb780
 294 588 217 503 217 350 c 0
 217 177 295 102 393 102 c 0
 473 102 529 149 547 237 c 1
 407 237 l 1
 407 359 l 1
EndSplineSet
Position2: "'cpsp' Capital Spacing in Latin lookup 0 subtable" dx=5 dy=0 dh=10 dv=0
EndChar

StartChar: gbreve
Encoding: 287 287 147
Width: 656
GlyphClass: 2
Flags: MW
HStem: -218 116<272.5 343.5 272.5 388> 1 108<275 297> 439 94<279 596> 439 108<279 302 211.5 346.5> 568 77<308.5 337.5 308.5 358.5> 568 127<196 358.5>
VStem: 26 161<221.5 332 221.5 357.5> 40 152<-34 -33> 196 81<647.5 695> 369 81<647.5 695> 439 157<81 135 95 135 275 285 285 342 463 533>
LayerCount: 2
Fore
SplineSet
323 568 m 0xe6c0
 251 568 196 600 196 695 c 1
 277 695 l 1xe6a0
 279 661 294 645 323 645 c 0xea40
 352 645 367 661 369 695 c 1
 450 695 l 1
 450 600 394 568 323 568 c 0xe6c0
596 533 m 1xe620
 596 135 l 2
 596 102 596 61 595 32 c 0
 589 -139 475 -218 301 -218 c 0
 144 -218 52 -153 40 -34 c 2
 39 -24 l 1
 191 -24 l 1
 192 -33 l 2xe520
 197 -76 240 -102 305 -102 c 0
 382 -102 433 -65 437 14 c 0
 438 33 439 56 439 81 c 2
 439 95 l 1
 399 36 l 1
 369 14 324 1 270 1 c 0
 122 1 26 104 26 262 c 0
 26 453 143 547 280 547 c 0
 324 547 377 536 404 519 c 1
 439 463 l 1xd620
 439 533 l 1
 596 533 l 1xe620
312 109 m 0
 383 109 439 153 439 275 c 2
 439 285 l 2
 439 399 376 439 317 439 c 0
 241 439 187 390 187 274 c 0xd620
 187 169 238 109 312 109 c 0
EndSplineSet
EndChar

StartChar: Gdotaccent
Encoding: 288 288 35
Width: 747
GlyphClass: 2
Flags: MW
HStem: -14 116<344 402.5> 0 21G<572 696 572 572> 237 122<407 547 407 696> 588 116<344.5 437> 728 155<358 406>
VStem: 52 165<263.5 426.5 263.5 457> 301 162<782.5 829> 566 130
AnchorPoint: "Anchor-0" 389 0 basechar 0
LayerCount: 2
Fore
SplineSet
382 728 m 0xbf
 334 728 301 759 301 806 c 0
 301 852 334 883 382 883 c 0
 430 883 463 852 463 806 c 0
 463 759 430 728 382 728 c 0xbf
407 359 m 1
 696 359 l 1
 696 0 l 1
 572 0 l 1x75
 560 109 l 1
 529 37 l 1
 490 1 440 -14 365 -14 c 0
 177 -14 52 116 52 341 c 0
 52 573 206 704 397 704 c 0
 589 704 687 601 701 465 c 2
 702 455 l 1
 546 455 l 1
 544 465 l 2
 528 545 479 588 395 588 c 0xb5
 294 588 217 503 217 350 c 0
 217 177 295 102 393 102 c 0
 473 102 529 149 547 237 c 1
 407 237 l 1
 407 359 l 1
EndSplineSet
Position2: "'cpsp' Capital Spacing in Latin lookup 0 subtable" dx=5 dy=0 dh=10 dv=0
EndChar

StartChar: gdotaccent
Encoding: 289 289 149
Width: 656
GlyphClass: 2
Flags: MW
HStem: -218 116<272.5 343.5 272.5 388> 1 108<275 297> 439 94<279 596> 439 108<279 302 211.5 346.5> 580 159<298 348>
VStem: 26 161<221.5 332 221.5 357.5> 40 152<-34 -33> 240 167<635.5 684> 439 157<81 135 95 135 275 285 285 342 463 533>
LayerCount: 2
Fore
SplineSet
323 580 m 0xdd80
 273 580 240 611 240 660 c 0
 240 708 273 739 323 739 c 0
 373 739 407 708 407 660 c 0
 407 611 373 580 323 580 c 0xdd80
596 533 m 1xed80
 596 135 l 2
 596 102 596 61 595 32 c 0
 589 -139 475 -218 301 -218 c 0
 144 -218 52 -153 40 -34 c 2
 39 -24 l 1
 191 -24 l 1
 192 -33 l 2xdb80
 197 -76 240 -102 305 -102 c 0
 382 -102 433 -65 437 14 c 0
 438 33 439 56 439 81 c 2
 439 95 l 1
 399 36 l 1
 369 14 324 1 270 1 c 0
 122 1 26 104 26 262 c 0
 26 453 143 547 280 547 c 0
 324 547 377 536 404 519 c 1
 439 463 l 1xdd80
 439 533 l 1
 596 533 l 1xed80
312 109 m 0
 383 109 439 153 439 275 c 2
 439 285 l 2
 439 399 376 439 317 439 c 0
 241 439 187 390 187 274 c 0xdd80
 187 169 238 109 312 109 c 0
EndSplineSet
EndChar

StartChar: Gcommaaccent
Encoding: 290 290 34
Width: 747
GlyphClass: 2
Flags: MW
HStem: -211 170<353 365 277 456> -14 116<344 402.5> 0 21G<572 696 572 572> 237 122<407 547 407 696> 588 116<344.5 437>
VStem: 52 165<263.5 426.5 263.5 457> 566 130
AnchorPoint: "Anchor-0" 389 0 basechar 0
LayerCount: 2
Fore
SplineSet
407 359 m 1x5e
 696 359 l 1
 696 0 l 1
 572 0 l 1xbe
 560 109 l 1
 529 37 l 1
 490 1 440 -14 365 -14 c 0
 177 -14 52 116 52 341 c 0
 52 573 206 704 397 704 c 0
 589 704 687 601 701 465 c 2
 702 455 l 1
 546 455 l 1
 544 465 l 2
 528 545 479 588 395 588 c 0
 294 588 217 503 217 350 c 0
 217 177 295 102 393 102 c 0
 473 102 529 149 547 237 c 1
 407 237 l 1
 407 359 l 1x5e
353 -41 m 1
 456 -41 l 1
 456 -51 l 1
 365 -211 l 1
 277 -211 l 1
 353 -41 l 1
EndSplineSet
Position2: "'cpsp' Capital Spacing in Latin lookup 0 subtable" dx=5 dy=0 dh=10 dv=0
EndChar

StartChar: gcommaaccent
Encoding: 291 291 148
Width: 656
GlyphClass: 2
Flags: MW
HStem: -218 116<272.5 343.5 272.5 388> 1 108<275 297> 439 94<279 596> 439 108<279 302 211.5 346.5> 571 170<349 361 259 437>
VStem: 26 161<221.5 332 221.5 357.5> 40 152<-34 -33> 439 157<81 135 95 135 275 285 285 342 463 533>
LayerCount: 2
Fore
SplineSet
361 571 m 1xed
 259 571 l 1
 259 581 l 1
 349 741 l 1
 437 741 l 1
 361 571 l 1xed
596 533 m 1
 596 135 l 2
 596 102 596 61 595 32 c 0
 589 -139 475 -218 301 -218 c 0
 144 -218 52 -153 40 -34 c 2
 39 -24 l 1
 191 -24 l 1
 192 -33 l 2xd3
 197 -76 240 -102 305 -102 c 0
 382 -102 433 -65 437 14 c 0
 438 33 439 56 439 81 c 2
 439 95 l 1
 399 36 l 1
 369 14 324 1 270 1 c 0
 122 1 26 104 26 262 c 0
 26 453 143 547 280 547 c 0
 324 547 377 536 404 519 c 1
 439 463 l 1xd5
 439 533 l 1
 596 533 l 1
312 109 m 0
 383 109 439 153 439 275 c 2
 439 285 l 2
 439 399 376 439 317 439 c 0
 241 439 187 390 187 274 c 0xd5
 187 169 238 109 312 109 c 0
EndSplineSet
EndChar

StartChar: Hbar
Encoding: 294 294 37
Width: 760
GlyphClass: 2
Flags: MW
HStem: 0 21G<85 242 85 85 544 700 544 544> 277 123<242 544 242 544> 487 86<45 85 45 85 242 544 700 740> 487 203<45 242 45 242 85 242 85 544>
VStem: 85 157<0 277 0 400 400 487 573 690> 544 156<0 277 277 277 400 487 0 487 573 690>
LayerCount: 2
Fore
SplineSet
740 487 m 1xdc
 700 487 l 1
 700 0 l 1
 544 0 l 1
 544 277 l 1
 242 277 l 1
 242 0 l 1
 85 0 l 1
 85 487 l 1
 45 487 l 1xdc
 45 573 l 1
 85 573 l 1xec
 85 690 l 1
 242 690 l 1xdc
 242 573 l 1
 544 573 l 1xec
 544 690 l 1
 700 690 l 1xdc
 700 573 l 1
 740 573 l 1xec
 740 487 l 1xdc
544 487 m 1
 242 487 l 1
 242 400 l 1
 544 400 l 1
 544 487 l 1
EndSplineSet
Position2: "'cpsp' Capital Spacing in Latin lookup 0 subtable" dx=5 dy=0 dh=10 dv=0
EndChar

StartChar: hbar
Encoding: 295 295 151
Width: 644
GlyphClass: 2
Flags: MW
HStem: 0 21G<72 229 72 72 434 591 434 434> 439 108<337 453> 580 86<19 72 19 72 229 336> 580 160<19 229 19 229 72 229 72 336>
VStem: 72 157<0 247 449 580 666 740> 434 157<0 277 277 287>
LayerCount: 2
Fore
SplineSet
586 400 m 0xdc
 590 373 591 344 591 301 c 2
 591 0 l 1
 434 0 l 1
 434 277 l 2
 434 297 434 324 432 351 c 0
 428 405 398 439 337 439 c 0
 275 438 229 383 229 247 c 2
 229 0 l 1
 72 0 l 1
 72 580 l 1
 19 580 l 1xdc
 19 666 l 1
 72 666 l 1xec
 72 740 l 1
 229 740 l 1xdc
 229 666 l 1
 336 666 l 1xec
 336 580 l 1
 229 580 l 1
 229 449 l 1
 273 513 l 1
 309 537 347 547 397 547 c 0
 509 547 574 493 586 400 c 0xdc
EndSplineSet
EndChar

StartChar: Imacron
Encoding: 298 298 45
Width: 302
GlyphClass: 2
Flags: MW
HStem: 0 21G<85 242 85 85> 670 20G<85 242 242 242> 759 85<21 306 21 306>
VStem: 85 157<0 690>
LayerCount: 2
Fore
SplineSet
306 759 m 1
 21 759 l 1
 21 844 l 1
 306 844 l 1
 306 759 l 1
242 0 m 1
 85 0 l 1
 85 690 l 1
 242 690 l 1
 242 0 l 1
EndSplineSet
Position2: "'cpsp' Capital Spacing in Latin lookup 0 subtable" dx=5 dy=0 dh=10 dv=0
EndChar

StartChar: imacron
Encoding: 299 299 159
Width: 276
GlyphClass: 2
Flags: MW
HStem: 0 21G<59 216 59 59> 513 20G<59 216 216 216> 591 85<-6 280 -6 280>
VStem: 59 157<0 533>
LayerCount: 2
Fore
SplineSet
280 591 m 1
 -6 591 l 1
 -6 676 l 1
 280 676 l 1
 280 591 l 1
216 0 m 1
 59 0 l 1
 59 533 l 1
 216 533 l 1
 216 0 l 1
EndSplineSet
EndChar

StartChar: Iogonek
Encoding: 302 302 46
Width: 302
GlyphClass: 2
Flags: MW
HStem: -223 90<69.5 185.5> 0 21G<193 242 193 193> 670 20G<85 242 242 242>
VStem: 85 157<7 690>
LayerCount: 2
Fore
SplineSet
242 0 m 1
 193 0 l 1
 162 -2 136 -38 136 -82 c 0
 136 -120 155 -133 178 -133 c 0
 193 -133 208 -127 225 -112 c 1
 225 -179 l 1
 197 -205 157 -223 101 -223 c 0
 38 -223 -8 -201 -8 -137 c 0
 -8 -73 37 -18 85 7 c 1
 85 690 l 1
 242 690 l 1
 242 0 l 1
EndSplineSet
Position2: "'cpsp' Capital Spacing in Latin lookup 0 subtable" dx=5 dy=0 dh=10 dv=0
EndChar

StartChar: iogonek
Encoding: 303 303 160
Width: 276
GlyphClass: 2
Flags: MW
HStem: -223 90<43.5 159.5> 0 21G<167 216 167 167> 513 20G<59 216 216 216> 580 159<112 162>
VStem: 54 167<635.5 684> 59 157<7 533 0 533>
LayerCount: 2
Fore
SplineSet
137 580 m 0xf8
 87 580 54 611 54 660 c 0
 54 708 87 739 137 739 c 0
 187 739 221 708 221 660 c 0
 221 611 187 580 137 580 c 0xf8
59 533 m 1xf4
 216 533 l 1
 216 0 l 1
 167 0 l 1
 136 -2 110 -38 110 -82 c 0
 110 -120 129 -133 152 -133 c 0
 167 -133 182 -127 199 -112 c 1
 199 -179 l 1
 171 -205 131 -223 75 -223 c 0
 12 -223 -34 -201 -34 -137 c 0
 -34 -73 11 -18 59 7 c 1
 59 533 l 1xf4
EndSplineSet
EndChar

StartChar: Idotaccent
Encoding: 304 304 43
Width: 302
GlyphClass: 2
Flags: MW
HStem: 0 21G<85 242 85 85> 670 20G<85 242 242 242> 728 155<139 187>
VStem: 85 157<0 690>
LayerCount: 2
Fore
SplineSet
163 883 m 0
 211 883 244 852 244 806 c 0
 244 759 211 728 163 728 c 0
 115 728 82 759 82 806 c 0
 82 852 115 883 163 883 c 0
242 0 m 1
 85 0 l 1
 85 690 l 1
 242 690 l 1
 242 0 l 1
EndSplineSet
Position2: "'cpsp' Capital Spacing in Latin lookup 0 subtable" dx=5 dy=0 dh=10 dv=0
EndChar

StartChar: dotlessi
Encoding: 305 305 153
Width: 276
GlyphClass: 2
Flags: MW
HStem: 0 21G<59 216 59 59> 513 20G<59 216 216 216>
VStem: 59 157<0 533>
LayerCount: 2
Fore
SplineSet
216 0 m 1
 59 0 l 1
 59 533 l 1
 216 533 l 1
 216 0 l 1
EndSplineSet
EndChar

StartChar: IJ
Encoding: 306 306 39
Width: 916
GlyphClass: 2
Flags: MW
HStem: -14 116<583.5 642 583.5 691.5> 0 21G<85 242 85 85> 670 20G<85 242 242 242 707 864 864 864>
VStem: 85 157<0 690> 352.5 156.5 707 157<275 290 290 690>
LayerCount: 2
Fore
SplineSet
242 0 m 1x74
 85 0 l 1
 85 690 l 1
 242 690 l 1
 242 0 l 1x74
864 690 m 1
 864 290 l 2
 864 260 864 238 861 191 c 0
 854 71 777 -14 606 -14 c 0
 434 -14 357 79 353 224 c 2
 352 257 l 1
 508 257 l 1
 510 224 l 2
 516 133 554 102 613 102 c 0
 671 102 700 139 705 200 c 0xbc
 707 223 707 245 707 270 c 2
 707 690 l 1
 864 690 l 1
EndSplineSet
Position2: "'cpsp' Capital Spacing in Latin lookup 0 subtable" dx=5 dy=0 dh=10 dv=0
EndChar

StartChar: ij
Encoding: 307 307 158
Width: 546
GlyphClass: 2
Flags: MW
HStem: -210 112<235 359> 0 21G<59 216 59 59> 513 20G<59 216 216 216 332 489 489 489> 580 159<112 162 383 438.5>
VStem: 54 167<635.5 684> 59 157<0 533> 327 167<632.5 687> 332 157<-1 1 1 533>
LayerCount: 2
Fore
SplineSet
137 739 m 0xfa
 187 739 221 708 221 660 c 0
 221 611 187 580 137 580 c 0
 87 580 54 611 54 660 c 0
 54 708 87 739 137 739 c 0xfa
411 739 m 0
 466 739 494 714 494 660 c 0
 494 605 466 580 411 580 c 0
 355 580 327 605 327 660 c 0
 327 714 355 739 411 739 c 0
216 0 m 1xf5
 59 0 l 1
 59 533 l 1
 216 533 l 1
 216 0 l 1xf5
489 533 m 1
 489 1 l 2
 489 -20 488 -46 487 -64 c 0
 480 -155 427 -210 291 -210 c 0
 271 -210 252 -209 235 -207 c 1
 235 -98 l 1
 298 -104 326 -92 330 -48 c 0
 332 -34 332 -16 332 -1 c 2
 332 533 l 1
 489 533 l 1
EndSplineSet
EndChar

StartChar: Kcommaaccent
Encoding: 310 310 49
Width: 710
GlyphClass: 2
Flags: MW
HStem: -211 170<321 333 245 424> 0 21G<85 242 85 85 500 699 500 500> 670 20G<85 242 242 242 524 711 711 711>
VStem: 85 157<0 215 0 370 370 690>
AnchorPoint: "Anchor-0" 357 0 basechar 0
LayerCount: 2
Fore
SplineSet
409 362 m 1
 699 0 l 1
 500 0 l 1
 295 274 l 1
 242 215 l 1
 242 0 l 1
 85 0 l 1
 85 690 l 1
 242 690 l 1
 242 370 l 1
 524 690 l 1
 711 690 l 1
 409 362 l 1
321 -41 m 1
 424 -41 l 1
 424 -51 l 1
 333 -211 l 1
 245 -211 l 1
 321 -41 l 1
EndSplineSet
Position2: "'cpsp' Capital Spacing in Latin lookup 0 subtable" dx=5 dy=0 dh=10 dv=0
EndChar

StartChar: kcommaaccent
Encoding: 311 311 163
Width: 605
GlyphClass: 2
Flags: MW
HStem: -211 170<272 284 196 375> 0 21G<59 216 59 59 412 607 412 412> 513 20G<418 604 604 604> 715 20G<59 216 216 216>
VStem: 59 157<0 159 0 299 299 735>
AnchorPoint: "Anchor-0" 310 0 basechar 0
LayerCount: 2
Fore
SplineSet
607 0 m 1
 412 0 l 1
 257 204 l 1
 216 159 l 1
 216 0 l 1
 59 0 l 1
 59 735 l 1
 216 735 l 1
 216 299 l 1
 418 533 l 1
 604 533 l 1
 373 287 l 1
 607 0 l 1
272 -41 m 1
 375 -41 l 1
 375 -51 l 1
 284 -211 l 1
 196 -211 l 1
 272 -41 l 1
EndSplineSet
EndChar

StartChar: Lacute
Encoding: 313 313 51
Width: 615
GlyphClass: 2
Flags: MW
HStem: 0 132<242 597 242 597> 670 20G<85 242 242 242> 735 118<196 200 114 336>
VStem: 85 157<132 690 132 690 132 690>
AnchorPoint: "Anchor-0" 337 0 basechar 0
LayerCount: 2
Fore
SplineSet
200 735 m 1
 114 735 l 1
 196 853 l 1
 336 853 l 1
 200 735 l 1
597 132 m 1
 597 0 l 1
 85 0 l 1
 85 690 l 1
 242 690 l 1
 242 132 l 1
 597 132 l 1
EndSplineSet
Position2: "'cpsp' Capital Spacing in Latin lookup 0 subtable" dx=5 dy=0 dh=10 dv=0
EndChar

StartChar: Lcommaaccent
Encoding: 315 315 53
Width: 615
GlyphClass: 2
Flags: MW
HStem: -211 170<301 313 225 404> 0 132<242 597 242 597> 670 20G<85 242 242 242>
VStem: 85 157<132 690 132 690 132 690>
AnchorPoint: "Anchor-0" 337 0 basechar 0
LayerCount: 2
Fore
SplineSet
597 132 m 1
 597 0 l 1
 85 0 l 1
 85 690 l 1
 242 690 l 1
 242 132 l 1
 597 132 l 1
301 -41 m 1
 404 -41 l 1
 404 -51 l 1
 313 -211 l 1
 225 -211 l 1
 301 -41 l 1
EndSplineSet
Position2: "'cpsp' Capital Spacing in Latin lookup 0 subtable" dx=5 dy=0 dh=10 dv=0
EndChar

StartChar: lcommaaccent
Encoding: 316 316 167
Width: 291
GlyphClass: 2
Flags: MW
HStem: -211 170<115 127 39 218> -9 21G<142.5 197.5> -9 112<142.5 274> -4 21G<274 274> 715 20G<55 212 212 212>
VStem: 55 157<179 182 182 735>
AnchorPoint: "Anchor-0" 152 0 basechar 0
LayerCount: 2
Fore
SplineSet
212 735 m 1x9c
 212 182 l 2
 212 159 212 147 213 133 c 0
 216 109 227 101 274 103 c 1xac
 274 -4 l 1
 244 -7 215 -9 180 -9 c 0
 105 -9 61 20 57 90 c 0xcc
 55 116 55 142 55 179 c 2
 55 735 l 1
 212 735 l 1x9c
218 -51 m 1
 127 -211 l 1
 39 -211 l 1
 115 -41 l 1
 218 -41 l 1
 218 -51 l 1
EndSplineSet
EndChar

StartChar: lcaron
Encoding: 318 318 166
Width: 291
GlyphClass: 2
Flags: MW
HStem: -9 21G<142.5 197.5> -9 112<142.5 274> -4 21G<274 274> 715 20G<55 212 212 212>
VStem: 55 157<179 182 182 735>
AnchorPoint: "Anchor-0" 152 0 basechar 0
LayerCount: 2
Fore
SplineSet
212 735 m 1x38
 212 182 l 2
 212 159 212 147 213 133 c 0
 216 109 227 101 274 103 c 1x58
 274 -4 l 1
 244 -7 215 -9 180 -9 c 0
 105 -9 61 20 57 90 c 0x98
 55 116 55 142 55 179 c 2
 55 735 l 1
 212 735 l 1x38
EndSplineSet
EndChar

StartChar: Ldot
Encoding: 319 319 54
Width: 615
GlyphClass: 2
Flags: MW
HStem: 0 132<242 597 242 597> 311 178<410.5 461> 670 20G<85 242 242 242>
VStem: 85 157<132 690 132 690 132 690> 347 177<375 425.5>
AnchorPoint: "Anchor-0" 337 0 basechar 0
LayerCount: 2
Fore
SplineSet
597 132 m 1
 597 0 l 1
 85 0 l 1
 85 690 l 1
 242 690 l 1
 242 132 l 1
 597 132 l 1
436 311 m 0
 385 311 347 350 347 400 c 0
 347 451 385 489 436 489 c 0
 486 489 524 451 524 400 c 0
 524 350 486 311 436 311 c 0
EndSplineSet
Ligature2: "Ligature Substitution lookup 5 subtable" L periodcentered
Position2: "'cpsp' Capital Spacing in Latin lookup 0 subtable" dx=5 dy=0 dh=10 dv=0
EndChar

StartChar: ldot
Encoding: 320 320 168
Width: 448
GlyphClass: 2
Flags: MW
HStem: -9 21G<142.5 197.5> -9 112<142.5 274> -4 21G<274 274> 320 160<331 379.5> 715 20G<55 212 212 212>
VStem: 55 157<179 182 182 735> 272 167<376.5 423.5>
AnchorPoint: "Anchor-0" 152 0 basechar 0
LayerCount: 2
Fore
SplineSet
212 735 m 1x3c
 212 182 l 2
 212 159 212 147 213 133 c 0
 216 109 227 101 274 103 c 1x5e
 274 -4 l 1
 244 -7 215 -9 180 -9 c 0
 105 -9 61 20 57 90 c 0x9c
 55 116 55 142 55 179 c 2
 55 735 l 1
 212 735 l 1x3c
355 480 m 0
 404 480 439 447 439 400 c 0
 439 353 404 320 355 320 c 0
 307 320 272 353 272 400 c 0
 272 447 307 480 355 480 c 0
EndSplineSet
Ligature2: "Ligature Substitution lookup 5 subtable" l periodcentered
EndChar

StartChar: Lslash
Encoding: 321 321 55
Width: 650
GlyphClass: 2
Flags: MW
HStem: 0 132<277 632 277 632> 670 20G<121 277 277 277>
VStem: 121 156<132 285 285 285 472 690>
AnchorPoint: "Anchor-0" 372 0 basechar 0
LayerCount: 2
Fore
SplineSet
632 132 m 1
 632 0 l 1
 121 0 l 1
 121 285 l 1
 23 232 l 1
 23 334 l 1
 121 387 l 1
 121 690 l 1
 277 690 l 1
 277 472 l 1
 373 524 l 1
 373 422 l 1
 277 370 l 1
 277 132 l 1
 632 132 l 1
EndSplineSet
Position2: "'cpsp' Capital Spacing in Latin lookup 0 subtable" dx=5 dy=0 dh=10 dv=0
EndChar

StartChar: lslash
Encoding: 322 322 169
Width: 324
GlyphClass: 2
Flags: MW
HStem: -9 112<165.5 297> 715 20G<78 235 235 235>
VStem: 78 157<179 182 182 220 220 220 425 735>
AnchorPoint: "Anchor-0" 176 0 basechar 0
LayerCount: 2
Fore
SplineSet
237 133 m 0
 239 109 250 101 297 103 c 1
 297 -4 l 1
 268 -7 238 -9 203 -9 c 0
 128 -9 84 20 80 90 c 0
 78 116 78 142 78 179 c 2
 78 220 l 1
 17 182 l 1
 17 288 l 1
 78 326 l 1
 78 735 l 1
 235 735 l 1
 235 425 l 1
 296 463 l 1
 296 357 l 1
 235 319 l 1
 235 182 l 2
 235 159 235 147 237 133 c 0
EndSplineSet
EndChar

StartChar: Ncommaaccent
Encoding: 325 325 60
Width: 775
GlyphClass: 2
Flags: MW
HStem: -211 170<360 372 284 463> 0 21G<85 242 85 85 506 715 506 506> 670 20G<85 286 286 286 559 715 715 715>
VStem: 85 157<0 300 0 690> 559 156<383 690>
AnchorPoint: "Anchor-0" 396 0 basechar 0
LayerCount: 2
Fore
SplineSet
715 0 m 1
 506 0 l 1
 236 494 l 1
 241 421 242 350 242 300 c 2
 242 0 l 1
 85 0 l 1
 85 690 l 1
 286 690 l 1
 564 182 l 1
 560 254 559 332 559 383 c 2
 559 690 l 1
 715 690 l 1
 715 0 l 1
463 -51 m 1
 372 -211 l 1
 284 -211 l 1
 360 -41 l 1
 463 -41 l 1
 463 -51 l 1
EndSplineSet
Position2: "'cpsp' Capital Spacing in Latin lookup 0 subtable" dx=5 dy=0 dh=10 dv=0
EndChar

StartChar: ncommaaccent
Encoding: 326 326 174
Width: 631
GlyphClass: 2
Flags: MW
HStem: 439 108<293 440>
VStem: 59 157<0 247 449 533> 421 157<0 277 277 287>
AnchorPoint: "Anchor-0" 315 0 basechar 0
LayerCount: 2
Fore
SplineSet
573 400 m 0
 577 373 578 344 578 301 c 2
 578 0 l 1
 421 0 l 1
 421 277 l 2
 421 297 421 324 419 351 c 0
 415 405 385 439 324 439 c 0
 262 439 216 383 216 247 c 2
 216 0 l 1
 59 0 l 1
 59 533 l 1
 216 533 l 1
 216 449 l 1
 260 513 l 1
 296 537 334 547 384 547 c 0
 496 547 561 493 573 400 c 0
201 -211 m 1
 277 -41 l 1
 380 -41 l 1
 380 -51 l 1
 289 -211 l 1
 201 -211 l 1
EndSplineSet
EndChar

StartChar: Ncaron
Encoding: 327 327 59
Width: 775
GlyphClass: 2
Flags: MW
HStem: 0 21G<85 242 85 85 506 715 506 506> 670 20G<85 286 286 286 559 715 715 715> 735 118<333 333 333 365 429 460>
VStem: 85 157<0 300 0 690> 559 156<383 690 0 690>
AnchorPoint: "Anchor-0" 396 0 basechar 0
LayerCount: 2
Fore
SplineSet
333 735 m 1
 270 853 l 1
 365 853 l 1
 398 782 l 1
 429 853 l 1
 523 853 l 1
 460 735 l 1
 333 735 l 1
715 690 m 1
 715 0 l 1
 506 0 l 1
 236 494 l 1
 241 421 242 350 242 300 c 2
 242 0 l 1
 85 0 l 1
 85 690 l 1
 286 690 l 1
 564 182 l 1
 560 254 559 332 559 383 c 2
 559 690 l 1
 715 690 l 1
EndSplineSet
Position2: "'cpsp' Capital Spacing in Latin lookup 0 subtable" dx=5 dy=0 dh=10 dv=0
EndChar

StartChar: Eng
Encoding: 330 330 61
Width: 775
GlyphClass: 2
Flags: MW
HStem: -223 116<484 561> 0 21G<85 242 85 85> 670 20G<85 286 286 286 559 715 715 715>
VStem: 85 157<0 300 0 690> 559 156<418 690>
LayerCount: 2
Fore
SplineSet
715 690 m 1
 715 -60 l 2
 715 -78 715 -87 714 -101 c 0
 705 -189 638 -223 484 -223 c 1
 484 -107 l 1
 543 -102 558 -82 558 -46 c 2
 558 -23 l 1
 236 492 l 1
 241 419 242 350 242 300 c 2
 242 0 l 1
 85 0 l 1
 85 690 l 1
 286 690 l 1
 564 222 l 1
 560 294 559 367 559 418 c 2
 559 690 l 1
 715 690 l 1
EndSplineSet
Position2: "'cpsp' Capital Spacing in Latin lookup 0 subtable" dx=5 dy=0 dh=10 dv=0
EndChar

StartChar: eng
Encoding: 331 331 175
Width: 631
GlyphClass: 2
Flags: W
LayerCount: 2
Fore
SplineSet
573 400 m 0
 577 373 578 344 578 301 c 2
 578 -39 l 2
 578 -57 578 -66 577 -80 c 0
 568 -170 516 -210 345 -210 c 1
 345 -94 l 1
 392 -94 416 -84 420 -48 c 0
 421 -39 421 -27 421 -17 c 2
 421 277 l 2
 421 297 421 324 419 351 c 0
 415 405 385 439 324 439 c 0
 262 439 216 383 216 247 c 2
 216 0 l 1
 59 0 l 1
 59 533 l 1
 216 533 l 1
 216 449 l 1
 260 513 l 1
 296 537 334 547 384 547 c 0
 496 547 561 493 573 400 c 0
EndSplineSet
EndChar

StartChar: Omacron
Encoding: 332 332 69
Width: 775
GlyphClass: 2
Flags: MW
HStem: -14 116<341.5 456 341.5 505.5> 588 116<341.5 456> 759 85<257 542 257 542>
VStem: 52 162<268 422.5 268 454.5> 257 285<759 844 759 844> 583 162<268 422.5>
LayerCount: 2
Fore
SplineSet
542 759 m 1
 257 759 l 1
 257 844 l 1
 542 844 l 1
 542 759 l 1
399 704 m 0
 612 704 745 564 745 345 c 0
 745 127 612 -14 399 -14 c 0
 185 -14 52 127 52 345 c 0
 52 564 185 704 399 704 c 0
399 102 m 0
 513 102 583 191 583 345 c 0
 583 500 513 588 399 588 c 0
 284 588 214 500 214 345 c 0
 214 191 284 102 399 102 c 0
EndSplineSet
Position2: "'cpsp' Capital Spacing in Latin lookup 0 subtable" dx=5 dy=0 dh=10 dv=0
EndChar

StartChar: omacron
Encoding: 333 333 183
Width: 613
GlyphClass: 2
Flags: MW
HStem: -14 108<269.5 344 269.5 395> 439 108<269.5 344> 591 85<165 450 165 450>
VStem: 26 161<211.5 322.5 211.5 350> 165 285<591 676 591 676> 426 162<211.5 322.5>
LayerCount: 2
Fore
SplineSet
450 591 m 1xe8
 165 591 l 1
 165 676 l 1
 450 676 l 1
 450 591 l 1xe8
307 547 m 0xf4
 483 547 588 433 588 267 c 0
 588 101 483 -14 307 -14 c 0
 130 -14 26 101 26 267 c 0
 26 433 130 547 307 547 c 0xf4
307 94 m 0
 381 94 426 156 426 267 c 0
 426 378 381 439 307 439 c 0
 232 439 187 378 187 267 c 0
 187 156 232 94 307 94 c 0
EndSplineSet
EndChar

StartChar: ohungarumlaut
Encoding: 337 337 182
Width: 613
GlyphClass: 2
Flags: MW
HStem: -14 108<269.5 344 269.5 395> 439 108<269.5 344> 573 122<239 242 156 379 329 379 413 415 329 329>
VStem: 26 161<211.5 322.5 211.5 350> 426 162<211.5 322.5>
LayerCount: 2
Fore
SplineSet
242 573 m 1
 156 573 l 1
 239 695 l 1
 379 695 l 1
 242 573 l 1
329 573 m 1
 413 695 l 1
 553 695 l 1
 415 573 l 1
 329 573 l 1
307 547 m 0xf8
 483 547 588 433 588 267 c 0
 588 101 483 -14 307 -14 c 0
 130 -14 26 101 26 267 c 0
 26 433 130 547 307 547 c 0xf8
307 94 m 0
 381 94 426 156 426 267 c 0
 426 378 381 439 307 439 c 0
 232 439 187 378 187 267 c 0
 187 156 232 94 307 94 c 0
EndSplineSet
EndChar

StartChar: OE
Encoding: 338 338 72
Width: 1124
GlyphClass: 2
Flags: MW
HStem: -14 116<341.5 410.5> 0 123<739 1094 739 1094> 285 122<739 1062 739 1062> 568 122<739 1084 739 739> 588 116<341.5 411.5 275.5 456>
VStem: 52 162<269 422 269 453.5> 583 156<0 285 112 285 269 285 407 422>
LayerCount: 2
Fore
SplineSet
1094 123 m 1x76
 1094 0 l 1
 583 0 l 1x76
 583 112 l 1
 552 44 l 1
 501 -1 455 -14 366 -14 c 0
 185 -14 52 129 52 345 c 0
 52 562 185 704 366 704 c 0
 457 704 501 691 552 647 c 1xae
 583 578 l 1
 583 690 l 1
 1084 690 l 1
 1084 568 l 1
 739 568 l 1
 739 407 l 1
 1062 407 l 1
 1062 285 l 1
 739 285 l 1
 739 123 l 1
 1094 123 l 1x76
399 102 m 0xae
 513 102 583 193 583 345 c 0
 583 499 513 588 399 588 c 0
 284 588 214 499 214 345 c 0
 214 193 284 102 399 102 c 0xae
EndSplineSet
Position2: "'cpsp' Capital Spacing in Latin lookup 0 subtable" dx=5 dy=0 dh=10 dv=0
EndChar

StartChar: oe
Encoding: 339 339 186
Width: 989
GlyphClass: 2
Flags: MW
HStem: -14 108<269.5 344 269.5 348 666 723> 226 99<588 798 588 958 583 798> 439 108<269.5 344 668 725>
VStem: 26 161<211.5 322.5 211.5 350> 426 157<226 226 226 322.5> 798 163<325 325>
LayerCount: 2
Fore
SplineSet
961 276 m 0
 961 262 960 245 958 226 c 1
 583 226 l 1
 592 127 637 94 695 94 c 0
 751 94 788 124 796 174 c 1
 951 174 l 1
 923 51 823 -14 696 -14 c 0
 620 -14 550 13 504 87 c 1
 459 15 389 -14 307 -14 c 0
 130 -14 26 101 26 267 c 0
 26 433 130 547 307 547 c 0
 391 547 463 515 509 440 c 1
 554 514 626 547 710 547 c 0
 873 547 961 418 961 276 c 0
307 94 m 0
 381 94 426 156 426 267 c 0
 426 378 381 439 307 439 c 0
 232 439 187 378 187 267 c 0
 187 156 232 94 307 94 c 0
588 325 m 1
 798 325 l 1
 789 399 754 439 696 439 c 0
 640 439 600 402 588 325 c 1
EndSplineSet
EndChar

StartChar: racute
Encoding: 341 341 191
Width: 398
GlyphClass: 2
Flags: MW
HStem: 0 21G<59 216 59 59> 513 20G<59 216 216 216> 523 20G<393 393> 527 20G<337.5 361.5> 573 122<241 243 157 381>
VStem: 59 157<0 223 431 533>
AnchorPoint: "Anchor-0" 137 0 basechar 0
LayerCount: 2
Fore
SplineSet
243 573 m 1xcc
 157 573 l 1
 241 695 l 1
 381 695 l 1
 243 573 l 1xcc
353 547 m 0x9c
 370 547 381 545 393 543 c 1xac
 393 416 l 1
 269 424 216 374 216 223 c 2
 216 0 l 1
 59 0 l 1
 59 533 l 1
 216 533 l 1xcc
 216 431 l 1
 256 505 l 1
 283 533 322 547 353 547 c 0x9c
EndSplineSet
EndChar

StartChar: Rcaron
Encoding: 344 344 78
Width: 666
GlyphClass: 2
Flags: MW
HStem: 0 21G<85 242 85 85 482 653 482 482> 271 115<242 304 242 323> 568 122<242 329 242 242> 735 118<288 288 288 320 384 415>
VStem: 85 157<0 271 386 568> 470 164<458 508.5>
AnchorPoint: "Anchor-0" 344 0 basechar 0
LayerCount: 2
Fore
SplineSet
288 735 m 1
 225 853 l 1
 320 853 l 1
 353 782 l 1
 384 853 l 1
 478 853 l 1
 415 735 l 1
 288 735 l 1
602 171 m 0
 611 90 625 40 653 0 c 1
 482 0 l 1
 465 48 455 89 449 147 c 0
 440 222 411 266 359 270 c 0
 340 271 323 271 304 271 c 2
 242 271 l 1
 242 0 l 1
 85 0 l 1
 85 690 l 1
 347 690 l 2
 388 690 415 689 451 685 c 0
 551 673 634 623 634 502 c 0
 634 414 584 357 497 332 c 1
 567 306 594 251 602 171 c 0
242 386 m 1
 323 386 l 2
 345 386 362 386 376 387 c 0
 427 392 470 414 470 477 c 0
 470 540 433 560 382 566 c 0
 368 567 351 568 329 568 c 2
 242 568 l 1
 242 386 l 1
EndSplineSet
Position2: "'cpsp' Capital Spacing in Latin lookup 0 subtable" dx=5 dy=0 dh=10 dv=0
EndChar

StartChar: rcaron
Encoding: 345 345 192
Width: 398
GlyphClass: 2
Flags: MW
HStem: 0 21G<59 216 59 59> 513 20G<59 216 216 216> 523 20G<393 393> 527 20G<337.5 361.5> 573 122<143 143 143 174 240 270>
VStem: 59 157<0 223 431 533>
AnchorPoint: "Anchor-0" 137 0 basechar 0
LayerCount: 2
Fore
SplineSet
143 573 m 1xcc
 80 695 l 1
 174 695 l 1
 208 623 l 1
 240 695 l 1
 333 695 l 1
 270 573 l 1
 143 573 l 1xcc
353 547 m 0x9c
 370 547 381 545 393 543 c 1xac
 393 416 l 1
 269 424 216 374 216 223 c 2
 216 0 l 1
 59 0 l 1
 59 533 l 1
 216 533 l 1xcc
 216 431 l 1
 256 505 l 1
 283 533 322 547 353 547 c 0x9c
EndSplineSet
EndChar

StartChar: Sacute
Encoding: 346 346 81
Width: 616
GlyphClass: 2
Flags: MW
HStem: -14 116<297.5 357.5 297.5 401> 483 221<253 583 253 425> 588 116<290.5 348> 735 118<354 358 272 494>
VStem: 67 164<489 540 489 564.5> 431 164<155.5 203>
AnchorPoint: "Anchor-0" 310 0 basechar 0
LayerCount: 2
Fore
SplineSet
358 735 m 1xbc
 272 735 l 1
 354 853 l 1
 494 853 l 1
 358 735 l 1xbc
320 704 m 0
 492 704 568 608 583 483 c 1xdc
 425 483 l 1
 417 547 381 588 315 588 c 0
 266 588 231 565 231 515 c 0
 231 463 266 435 377 409 c 0
 529 373 595 301 595 192 c 0
 595 58 470 -14 332 -14 c 0
 163 -14 51 58 39 207 c 1
 197 207 l 1
 211 136 266 102 329 102 c 0
 386 102 431 132 431 179 c 0
 431 227 399 260 305 282 c 1
 157 319 67 368 67 500 c 0
 67 629 186 704 320 704 c 0
EndSplineSet
Position2: "'cpsp' Capital Spacing in Latin lookup 0 subtable" dx=5 dy=0 dh=10 dv=0
EndChar

StartChar: Scedilla
Encoding: 350 350 83
Width: 616
GlyphClass: 2
Flags: MW
HStem: -210 62<254.5 283 254.5 304> -10 21G<264 264> 483 221<253 583 253 425> 588 116<290.5 348>
VStem: 67 164<489 540 489 564.5> 322 96<-127 -105> 431 164<155.5 203>
AnchorPoint: "Anchor-0" 310 0 basechar 0
LayerCount: 2
Fore
SplineSet
595 192 m 0xda
 595 61 475 -11 340 -14 c 1
 326 -41 l 1
 387 -49 418 -75 418 -120 c 0
 418 -186 348 -210 260 -210 c 0
 241 -210 223 -209 205 -203 c 1
 205 -140 l 1
 228 -146 247 -148 262 -148 c 0
 304 -148 322 -137 322 -117 c 0
 322 -93 299 -81 226 -86 c 1
 264 -10 l 1xde
 133 8 49 79 39 207 c 1
 197 207 l 1
 211 136 266 102 329 102 c 0
 386 102 431 132 431 179 c 0
 431 227 399 260 305 282 c 1
 157 319 67 368 67 500 c 0
 67 629 186 704 320 704 c 0xda
 492 704 568 608 583 483 c 1xea
 425 483 l 1
 417 547 381 588 315 588 c 0
 266 588 231 565 231 515 c 0
 231 463 266 435 377 409 c 0
 529 373 595 301 595 192 c 0xda
EndSplineSet
Substitution2: "'locl' Localized Forms in Latin lookup 2 subtable" Scommaaccent
Substitution2: "'locl' Localized Forms in Latin lookup 1 subtable" Scommaaccent
Substitution2: "'aalt' Access All Alternates in Latin lookup 0 subtable" Scommaaccent
Position2: "'cpsp' Capital Spacing in Latin lookup 0 subtable" dx=5 dy=0 dh=10 dv=0
EndChar

StartChar: scedilla
Encoding: 351 351 197
Width: 511
GlyphClass: 2
Flags: MW
HStem: -13 100<244 293> 447 100<236 272.5>
VStem: 20 155<164 164> 41 157<380 412 380 431> 324 155<378 378> 334 157<120 156>
AnchorPoint: "Anchor-0" 262 0 basechar 0
LayerCount: 2
Fore
SplineSet
491 149 m 0
 491 46 405 -6 293 -13 c 1
 278 -41 l 1
 339 -49 370 -75 370 -120 c 0
 370 -186 300 -210 212 -210 c 0
 193 -210 175 -209 157 -203 c 1
 157 -140 l 1
 180 -146 199 -148 214 -148 c 0
 256 -148 274 -137 274 -117 c 0
 274 -93 251 -81 178 -86 c 1
 215 -11 l 1
 106 2 32 59 20 164 c 1
 175 164 l 1
 186 114 222 87 266 87 c 0
 304 87 334 103 334 137 c 0
 334 175 300 196 206 218 c 1
 106 243 41 288 41 379 c 0
 41 483 129 547 263 547 c 0
 392 547 466 475 479 378 c 1
 324 378 l 1
 315 422 292 447 253 447 c 0
 219 447 198 426 198 398 c 0
 198 362 227 342 322 318 c 0
 425 292 491 249 491 149 c 0
EndSplineSet
Substitution2: "'locl' Localized Forms in Latin lookup 2 subtable" scommaaccent
Substitution2: "'locl' Localized Forms in Latin lookup 1 subtable" scommaaccent
Substitution2: "'aalt' Access All Alternates in Latin lookup 0 subtable" scommaaccent
EndChar

StartChar: Scaron
Encoding: 352 352 82
Width: 616
GlyphClass: 2
Flags: MW
HStem: -14 116<297.5 357.5 297.5 401> 483 221<253 583 253 425> 588 116<290.5 348> 735 118<258 258 258 290 354 385>
VStem: 67 164<489 540 489 564.5> 431 164<155.5 203>
AnchorPoint: "Anchor-0" 310 0 basechar 0
LayerCount: 2
Fore
SplineSet
258 735 m 1xbc
 195 853 l 1
 290 853 l 1
 323 782 l 1
 354 853 l 1
 448 853 l 1
 385 735 l 1
 258 735 l 1xbc
377 409 m 0
 529 373 595 301 595 192 c 0
 595 58 470 -14 332 -14 c 0
 163 -14 51 58 39 207 c 1
 197 207 l 1
 211 136 266 102 329 102 c 0
 386 102 431 132 431 179 c 0
 431 227 399 260 305 282 c 1
 157 319 67 368 67 500 c 0
 67 629 186 704 320 704 c 0xbc
 492 704 568 608 583 483 c 1xdc
 425 483 l 1
 417 547 381 588 315 588 c 0
 266 588 231 565 231 515 c 0
 231 463 266 435 377 409 c 0
EndSplineSet
Position2: "'cpsp' Capital Spacing in Latin lookup 0 subtable" dx=5 dy=0 dh=10 dv=0
EndChar

StartChar: scaron
Encoding: 353 353 196
Width: 511
GlyphClass: 2
Flags: MW
HStem: -14 101<244 285 244 327.5> 447 100<236 272.5>
VStem: 20 155<164 164> 41 157<380 412 380 431> 324 155<378 378> 334 157<120 156>
AnchorPoint: "Anchor-0" 262 0 basechar 0
LayerCount: 2
Fore
SplineSet
324 573 m 1
 197 573 l 1
 134 695 l 1
 228 695 l 1
 262 623 l 1
 294 695 l 1
 387 695 l 1
 324 573 l 1
322 318 m 0
 425 292 491 249 491 149 c 0
 491 38 390 -14 265 -14 c 0
 129 -14 34 44 20 164 c 1
 175 164 l 1
 186 114 222 87 266 87 c 0
 304 87 334 103 334 137 c 0
 334 175 300 196 206 218 c 1
 106 243 41 288 41 379 c 0
 41 483 129 547 263 547 c 0
 392 547 466 475 479 378 c 1
 324 378 l 1
 315 422 292 447 253 447 c 0
 219 447 198 426 198 398 c 0
 198 362 227 342 322 318 c 0
EndSplineSet
EndChar

StartChar: Tcedilla
Encoding: 354 354 88
Width: 627
GlyphClass: 2
Flags: MW
HStem: -210 62<271.5 300 271.5 321> 0 21G<249 286 249 249 364 405 364 364> 568 122<19 249 19 635 405 405 405 635>
VStem: 249 156<0 568 0 568> 339 96<-127 -105>
AnchorPoint: "Anchor-0" 327 0 basechar 0
LayerCount: 2
Fore
SplineSet
364 0 m 1xf0
 343 -41 l 1
 404 -49 435 -75 435 -120 c 0
 435 -186 365 -210 277 -210 c 0
 258 -210 240 -209 222 -203 c 1
 222 -140 l 1
 245 -146 264 -148 279 -148 c 0
 321 -148 339 -137 339 -117 c 0
 339 -93 316 -81 243 -86 c 1
 286 0 l 1xe8
 249 0 l 1
 249 568 l 1
 19 568 l 1
 19 690 l 1
 635 690 l 1
 635 568 l 1
 405 568 l 1
 405 0 l 1
 364 0 l 1xf0
EndSplineSet
Substitution2: "'locl' Localized Forms in Latin lookup 2 subtable" uni021A
Substitution2: "'locl' Localized Forms in Latin lookup 1 subtable" uni021A
Substitution2: "'aalt' Access All Alternates in Latin lookup 0 subtable" uni021A
Position2: "'cpsp' Capital Spacing in Latin lookup 0 subtable" dx=5 dy=0 dh=10 dv=0
EndChar

StartChar: tcedilla
Encoding: 355 355 203
Width: 378
GlyphClass: 2
Flags: MW
HStem: -210 62<157.5 186 157.5 207> -13 108<244 350 244 350> -3 21G<170 170> 429 100<9 90 9 90 247 360>
VStem: 90 157<196 205 205 429 529 663> 225 96<-127 -105>
AnchorPoint: "Anchor-0" 213 0 basechar 0
LayerCount: 2
Fore
SplineSet
247 429 m 1xb8
 247 205 l 2
 247 187 247 169 248 155 c 0xd8
 252 102 270 90 350 95 c 1
 350 -5 l 1
 318 -10 287 -13 253 -13 c 2
 244 -13 l 1
 229 -41 l 1xd4
 290 -49 321 -75 321 -120 c 0
 321 -186 251 -210 163 -210 c 0
 144 -210 126 -209 108 -203 c 1
 108 -140 l 1
 131 -146 150 -148 165 -148 c 0
 207 -148 225 -137 225 -117 c 0
 225 -93 202 -81 129 -86 c 1
 170 -3 l 1xb4
 117 12 96 48 92 103 c 0
 90 130 90 154 90 184 c 2
 90 429 l 1
 9 429 l 1
 9 529 l 1
 90 529 l 1
 90 663 l 1
 247 663 l 1
 247 529 l 1
 360 529 l 1
 360 429 l 1
 247 429 l 1xb8
EndSplineSet
Substitution2: "'locl' Localized Forms in Latin lookup 2 subtable" uni021B
Substitution2: "'locl' Localized Forms in Latin lookup 1 subtable" uni021B
Substitution2: "'aalt' Access All Alternates in Latin lookup 0 subtable" uni021B
EndChar

StartChar: Tcaron
Encoding: 356 356 87
Width: 627
GlyphClass: 2
Flags: MW
HStem: 0 21G<249 405 249 249> 568 122<19 249 19 635 405 635 405 405> 735 118<264 264 264 296 360 391>
VStem: 249 156<0 568 0 568>
AnchorPoint: "Anchor-0" 327 0 basechar 0
LayerCount: 2
Fore
SplineSet
264 735 m 1
 201 853 l 1
 296 853 l 1
 329 782 l 1
 360 853 l 1
 454 853 l 1
 391 735 l 1
 264 735 l 1
635 568 m 1
 405 568 l 1
 405 0 l 1
 249 0 l 1
 249 568 l 1
 19 568 l 1
 19 690 l 1
 635 690 l 1
 635 568 l 1
EndSplineSet
Position2: "'cpsp' Capital Spacing in Latin lookup 0 subtable" dx=5 dy=0 dh=10 dv=0
EndChar

StartChar: tcaron
Encoding: 357 357 202
Width: 372
GlyphClass: 2
Flags: MW
HStem: -13 108<194.5 350> -5 21G<350 350> 429 100<9 90 9 90 247 360> 565 98<90 362 90 274> 565 170<350 362 274 453>
VStem: 90 157<196 205 205 429 529 663>
AnchorPoint: "Anchor-0" 213 0 basechar 0
LayerCount: 2
Fore
SplineSet
453 735 m 1x6c
 453 725 l 1
 362 565 l 1
 274 565 l 1
 350 735 l 1
 453 735 l 1x6c
247 529 m 1
 360 529 l 1
 360 429 l 1
 247 429 l 1
 247 205 l 2
 247 187 247 169 248 155 c 0
 252 102 270 90 350 95 c 1
 350 -5 l 1
 318 -10 287 -13 253 -13 c 0
 136 -13 98 25 92 103 c 0
 90 130 90 154 90 184 c 2
 90 429 l 1
 9 429 l 1
 9 529 l 1
 90 529 l 1
 90 663 l 1
 247 663 l 1xb4
 247 529 l 1
EndSplineSet
EndChar

StartChar: Tbar
Encoding: 358 358 86
Width: 627
GlyphClass: 2
Flags: MW
HStem: 0 21G<249 405 249 249> 296 86<153 249 153 249 405 501> 568 122<19 249 19 635 405 635 405 405>
VStem: 249 156<0 296 0 296 382 568>
AnchorPoint: "Anchor-0" 327 0 basechar 0
LayerCount: 2
Fore
SplineSet
405 568 m 1
 405 382 l 1
 501 382 l 1
 501 296 l 1
 405 296 l 1
 405 0 l 1
 249 0 l 1
 249 296 l 1
 153 296 l 1
 153 382 l 1
 249 382 l 1
 249 568 l 1
 19 568 l 1
 19 690 l 1
 635 690 l 1
 635 568 l 1
 405 568 l 1
EndSplineSet
Position2: "'cpsp' Capital Spacing in Latin lookup 0 subtable" dx=5 dy=0 dh=10 dv=0
EndChar

StartChar: tbar
Encoding: 359 359 201
Width: 378
GlyphClass: 2
Flags: MW
HStem: -13 108<194.5 350> -5 21G<350 350> 260 85<33 90 33 90 247 318> 429 100<9 90 9 90 247 360>
VStem: 90 157<196 205 205 260 196 260 345 429 529 663>
AnchorPoint: "Anchor-0" 213 0 basechar 0
LayerCount: 2
Fore
SplineSet
247 429 m 1x78
 247 345 l 1
 318 345 l 1
 318 260 l 1
 247 260 l 1
 247 205 l 2
 247 187 247 169 248 155 c 0
 252 102 270 90 350 95 c 1
 350 -5 l 1
 318 -10 287 -13 253 -13 c 0xb8
 136 -13 98 25 92 103 c 0
 90 130 90 154 90 184 c 2
 90 260 l 1
 33 260 l 1
 33 345 l 1
 90 345 l 1
 90 429 l 1
 9 429 l 1
 9 529 l 1
 90 529 l 1
 90 663 l 1
 247 663 l 1
 247 529 l 1
 360 529 l 1
 360 429 l 1
 247 429 l 1x78
EndSplineSet
EndChar

StartChar: Umacron
Encoding: 362 362 96
Width: 709
GlyphClass: 2
Flags: MW
HStem: -14 116<326 412 326 470> 670 20G<75 231 231 231 507 663 663 663> 759 85<227 512 227 512>
VStem: 75 156<291 690> 227 285<759 844 759 844> 507 156<275 291 291 690>
LayerCount: 2
Fore
SplineSet
512 759 m 1xe8
 227 759 l 1
 227 844 l 1
 512 844 l 1
 512 759 l 1xe8
663 690 m 1xf4
 663 291 l 2
 663 259 663 239 660 203 c 0
 652 87 571 -14 369 -14 c 0
 167 -14 86 87 77 203 c 0
 75 239 75 259 75 291 c 2
 75 690 l 1
 231 690 l 1
 231 268 l 2
 231 249 231 236 232 222 c 0
 238 147 283 102 369 102 c 0
 455 102 500 147 505 222 c 1
 507 236 507 249 507 268 c 2
 507 690 l 1
 663 690 l 1xf4
EndSplineSet
Position2: "'cpsp' Capital Spacing in Latin lookup 0 subtable" dx=5 dy=0 dh=10 dv=0
EndChar

StartChar: Uring
Encoding: 366 366 98
Width: 709
GlyphClass: 2
Flags: MW
HStem: -14 116<326 412 326 470> 670 20G<75 231 231 231 507 663 663 663> 721 58<358 380 358 402> 859 59<358 380>
VStem: 75 156<291 690> 257 75<807.5 831 807.5 848> 406 75<807.5 831> 507 156<275 291 291 690>
LayerCount: 2
Fore
SplineSet
369 918 m 0
 435 918 481 877 481 819 c 0
 481 761 435 721 369 721 c 0
 303 721 257 761 257 819 c 0
 257 877 303 918 369 918 c 0
369 859 m 0
 347 859 332 843 332 819 c 0
 332 796 347 779 369 779 c 0
 391 779 406 796 406 819 c 0
 406 843 391 859 369 859 c 0
663 690 m 1xf9
 663 291 l 2
 663 259 663 239 660 203 c 0
 652 87 571 -14 369 -14 c 0
 167 -14 86 87 77 203 c 0
 75 239 75 259 75 291 c 2
 75 690 l 1
 231 690 l 1
 231 268 l 2
 231 249 231 236 232 222 c 0
 238 147 283 102 369 102 c 0
 455 102 500 147 505 222 c 1
 507 236 507 249 507 268 c 2
 507 690 l 1
 663 690 l 1xf9
EndSplineSet
Position2: "'cpsp' Capital Spacing in Latin lookup 0 subtable" dx=5 dy=0 dh=10 dv=0
EndChar

StartChar: uring
Encoding: 367 367 213
Width: 628
GlyphClass: 2
Flags: MW
HStem: -14 109<188 338> 0 95<275.5 568 275.5 412> 513 20G<50 206 206 206 412 568 568 568> 567 58<298 320 298 342> 711 58<298 320>
VStem: 50 156<245.5 254 254 533> 197 75<654.5 681.5 654.5 698> 346 75<654.5 681.5> 412 156<0 91 91 91 248 533 0 533>
LayerCount: 2
Fore
SplineSet
309 567 m 0xbb
 243 567 197 608 197 668 c 0
 197 728 243 769 309 769 c 0
 375 769 421 728 421 668 c 0
 421 608 375 567 309 567 c 0xbb
309 711 m 0
 287 711 272 695 272 668 c 0
 272 641 287 625 309 625 c 0
 331 625 346 641 346 668 c 0
 346 695 331 711 309 711 c 0
568 533 m 1xbc80
 568 0 l 1
 412 0 l 1
 412 91 l 1x7c80
 367 20 l 1
 331 -4 293 -14 243 -14 c 0
 133 -14 67 48 55 121 c 0
 51 148 50 177 50 220 c 2
 50 533 l 1
 206 533 l 1
 206 254 l 2
 206 237 207 208 210 181 c 0
 217 127 245 95 306 95 c 0
 370 95 412 150 412 248 c 2
 412 533 l 1
 568 533 l 1xbc80
EndSplineSet
EndChar

StartChar: Uhungarumlaut
Encoding: 368 368 95
Width: 709
GlyphClass: 2
Flags: MW
HStem: -14 116<326 412 326 470> 670 20G<75 231 231 231 507 663 663 663> 736 117<292 296 210 432 388 388 388 432 470 474>
VStem: 75 156<291 690> 507 156<275 291 291 690>
LayerCount: 2
Fore
SplineSet
296 736 m 1
 210 736 l 1
 292 853 l 1
 432 853 l 1
 296 736 l 1
474 736 m 1
 388 736 l 1
 470 853 l 1
 610 853 l 1
 474 736 l 1
663 690 m 1
 663 291 l 2
 663 259 663 239 660 203 c 0
 652 87 571 -14 369 -14 c 0
 167 -14 86 87 77 203 c 0
 75 239 75 259 75 291 c 2
 75 690 l 1
 231 690 l 1
 231 268 l 2
 231 249 231 236 232 222 c 0
 238 147 283 102 369 102 c 0
 455 102 500 147 505 222 c 1
 507 236 507 249 507 268 c 2
 507 690 l 1
 663 690 l 1
EndSplineSet
Position2: "'cpsp' Capital Spacing in Latin lookup 0 subtable" dx=5 dy=0 dh=10 dv=0
EndChar

StartChar: Uogonek
Encoding: 370 370 97
Width: 709
GlyphClass: 2
Flags: MW
HStem: -223 90<362.5 478.5> -14 116 670 20G<75 231 231 231 507 663 663 663>
VStem: 75 156<291 690> 285 144<-169 -63.5> 507 156<275 291 291 690>
LayerCount: 2
Fore
SplineSet
663 690 m 1
 663 291 l 2
 663 259 663 239 660 203 c 0
 654 109 599 25 471 -4 c 1
 447 -14 429 -45 429 -82 c 0
 429 -120 448 -133 471 -133 c 0
 486 -133 501 -127 518 -112 c 1
 518 -179 l 1
 490 -205 450 -223 394 -223 c 0
 331 -223 285 -201 285 -137 c 0
 285 -87 312 -43 347 -14 c 1
 161 -7 86 91 77 203 c 0
 75 239 75 259 75 291 c 2
 75 690 l 1
 231 690 l 1
 231 268 l 2
 231 249 231 236 232 222 c 0
 238 147 283 102 369 102 c 0
 455 102 500 147 505 222 c 1
 507 236 507 249 507 268 c 2
 507 690 l 1
 663 690 l 1
EndSplineSet
Position2: "'cpsp' Capital Spacing in Latin lookup 0 subtable" dx=5 dy=0 dh=10 dv=0
EndChar

StartChar: uogonek
Encoding: 371 371 212
Width: 628
GlyphClass: 2
Flags: MW
HStem: -223 90<396.5 512.5> -14 21G -14 109<188 338> 0 21G<520 568 520 520> 513 20G<50 206 206 206 412 568 568 568>
VStem: 50 156<245.5 254 254 533> 412 156<7 91 91 91 248 533>
LayerCount: 2
Fore
SplineSet
568 0 m 1x9e
 520 0 l 1x9e
 489 -2 463 -38 463 -82 c 0
 463 -120 482 -133 505 -133 c 0
 520 -133 535 -127 552 -112 c 1
 552 -179 l 1
 524 -205 484 -223 428 -223 c 0
 365 -223 319 -201 319 -137 c 0
 319 -73 364 -18 412 7 c 1
 412 91 l 1xce
 367 20 l 1
 331 -4 293 -14 243 -14 c 0
 133 -14 67 48 55 121 c 0
 51 148 50 177 50 220 c 2
 50 533 l 1
 206 533 l 1
 206 254 l 2
 206 237 207 208 210 181 c 0
 217 127 245 95 306 95 c 0xae
 370 95 412 150 412 248 c 2
 412 533 l 1
 568 533 l 1
 568 0 l 1x9e
EndSplineSet
EndChar

StartChar: Wcircumflex
Encoding: 372 372 102
Width: 1000
GlyphClass: 2
Flags: MW
HStem: 0 21G<196 405 196 196 620 828 620 620> 0 117<734 734 734 828 620 734> 670 20G<26 194 194 194 847 1008 1008 1008> 735 118<455 486 392 582 550 550 550 582 455 645>
VStem: 26 982<690 690>
LayerCount: 2
Fore
SplineSet
486 735 m 1xb8
 392 735 l 1
 455 853 l 1
 582 853 l 1
 645 735 l 1
 550 735 l 1
 517 806 l 1
 486 735 l 1xb8
1008 690 m 1
 828 0 l 1
 620 0 l 1
 516 559 l 1
 405 0 l 1
 196 0 l 1
 26 690 l 1
 194 690 l 1
 300 122 l 1
 407 680 l 1
 630 680 l 1
 734 117 l 1x78
 847 690 l 1
 1008 690 l 1
EndSplineSet
Position2: "'cpsp' Capital Spacing in Latin lookup 0 subtable" dx=5 dy=0 dh=10 dv=0
EndChar

StartChar: wcircumflex
Encoding: 373 373 217
Width: 847
GlyphClass: 2
Flags: MW
HStem: 0 21G<169 346 169 169 507 683 507 507> 0 130<602 602 602 683 507 602> 513 20G<0 174 174 174 683 852 852 852> 573 122<364 394 301 491 460 460 460 491 364 554> 645 50<427 427>
VStem: 0 852<533 533>
LayerCount: 2
Fore
SplineSet
394 573 m 1xb4
 301 573 l 1
 364 695 l 1
 491 695 l 1
 554 573 l 1
 460 573 l 1x74
 427 645 l 1xac
 394 573 l 1xb4
852 533 m 1
 683 0 l 1
 507 0 l 1
 427 387 l 1
 346 0 l 1
 169 0 l 1
 0 533 l 1
 174 533 l 1
 257 131 l 1
 334 530 l 1
 521 530 l 1
 602 130 l 1
 683 533 l 1
 852 533 l 1
EndSplineSet
EndChar

StartChar: Ycircumflex
Encoding: 374 374 108
Width: 643
GlyphClass: 2
Flags: MW
HStem: 0 21G<259 415 259 259> 670 20G<15 192 192 192 486 658 658 658> 735 118<274 305 211 401 369 369 369 401 274 464>
VStem: 259 156<0 264 264 264>
LayerCount: 2
Fore
SplineSet
305 735 m 1
 211 735 l 1
 274 853 l 1
 401 853 l 1
 464 735 l 1
 369 735 l 1
 336 806 l 1
 305 735 l 1
415 266 m 1
 415 0 l 1
 259 0 l 1
 259 264 l 1
 15 690 l 1
 192 690 l 1
 342 402 l 1
 486 690 l 1
 658 690 l 1
 415 266 l 1
EndSplineSet
Position2: "'cpsp' Capital Spacing in Latin lookup 0 subtable" dx=5 dy=0 dh=10 dv=0
EndChar

StartChar: ycircumflex
Encoding: 375 375 223
Width: 584
GlyphClass: 2
Flags: MW
HStem: -210 107<127.5 139.5 109 199> 513 20G<0 175 175 175 418 589 589 589> 573 122<226 256 163 353 322 322 322 353 226 416> 645 50<289 289>
VStem: 0 589<533 533>
LayerCount: 2
Fore
SplineSet
256 573 m 1xe8
 163 573 l 1
 226 695 l 1
 353 695 l 1
 416 573 l 1
 322 573 l 1xe8
 289 645 l 1xd8
 256 573 l 1xe8
589 533 m 1
 376 -11 l 2
 315 -166 257 -210 141 -210 c 0
 114 -210 95 -209 73 -206 c 1
 73 -101 l 1
 87 -103 101 -103 117 -103 c 0
 162 -103 192 -87 212 -41 c 2
 219 -24 l 1
 0 533 l 1
 175 533 l 1
 297 121 l 1
 418 533 l 1
 589 533 l 1
EndSplineSet
EndChar

StartChar: Ydieresis
Encoding: 376 376 109
Width: 643
GlyphClass: 2
Flags: MW
HStem: 0 21G<259 415 259 259> 670 20G<15 192 192 192 486 658 658 658> 726 132<225 265 410 450>
VStem: 177 135<772 812> 259 156<0 264 264 264> 362 135<772 812>
LayerCount: 2
Fore
SplineSet
245 726 m 0xf4
 205 726 177 752 177 792 c 0
 177 832 205 858 245 858 c 0
 285 858 312 832 312 792 c 0
 312 752 285 726 245 726 c 0xf4
430 726 m 0
 390 726 362 752 362 792 c 0
 362 832 390 858 430 858 c 0
 470 858 497 832 497 792 c 0
 497 752 470 726 430 726 c 0
415 266 m 1xe8
 415 0 l 1
 259 0 l 1
 259 264 l 1
 15 690 l 1
 192 690 l 1
 342 402 l 1
 486 690 l 1
 658 690 l 1
 415 266 l 1xe8
EndSplineSet
Position2: "'cpsp' Capital Spacing in Latin lookup 0 subtable" dx=5 dy=0 dh=10 dv=0
EndChar

StartChar: Zacute
Encoding: 377 377 112
Width: 634
GlyphClass: 2
Flags: MW
HStem: 0 123<243 606 243 606> 568 122<79 413 79 601> 735 118<365 369 283 505>
VStem: 51 555<0 119 119 119>
LayerCount: 2
Fore
SplineSet
369 735 m 1
 283 735 l 1
 365 853 l 1
 505 853 l 1
 369 735 l 1
606 123 m 1
 606 0 l 1
 51 0 l 1
 51 119 l 1
 413 568 l 1
 79 568 l 1
 79 690 l 1
 601 690 l 1
 601 569 l 1
 243 123 l 1
 606 123 l 1
EndSplineSet
Position2: "'cpsp' Capital Spacing in Latin lookup 0 subtable" dx=5 dy=0 dh=10 dv=0
EndChar

StartChar: zacute
Encoding: 378 378 227
Width: 510
GlyphClass: 2
Flags: MW
HStem: 0 101<200 481 200 481> 428 101<47 311 47 478> 573 122<300 302 216 440>
VStem: 31 450<0 95 95 95>
LayerCount: 2
Fore
SplineSet
302 573 m 1
 216 573 l 1
 300 695 l 1
 440 695 l 1
 302 573 l 1
481 101 m 1
 481 0 l 1
 31 0 l 1
 31 95 l 1
 311 428 l 1
 47 428 l 1
 47 529 l 1
 478 529 l 1
 478 429 l 1
 200 101 l 1
 481 101 l 1
EndSplineSet
EndChar

StartChar: Zdotaccent
Encoding: 379 379 114
Width: 634
GlyphClass: 2
Flags: MW
HStem: 0 123<243 606 243 606> 568 122<79 413 79 601> 728 155<308 356>
VStem: 251 162<782.5 829>
LayerCount: 2
Fore
SplineSet
332 728 m 0
 284 728 251 759 251 806 c 0
 251 852 284 883 332 883 c 0
 380 883 413 852 413 806 c 0
 413 759 380 728 332 728 c 0
606 123 m 1
 606 0 l 1
 51 0 l 1
 51 119 l 1
 413 568 l 1
 79 568 l 1
 79 690 l 1
 601 690 l 1
 601 569 l 1
 243 123 l 1
 606 123 l 1
EndSplineSet
Position2: "'cpsp' Capital Spacing in Latin lookup 0 subtable" dx=5 dy=0 dh=10 dv=0
EndChar

StartChar: zdotaccent
Encoding: 380 380 229
Width: 510
GlyphClass: 2
Flags: MW
HStem: 0 101<200 481 200 481> 428 101<47 311 47 478> 580 159<240 290>
VStem: 182 167<635.5 684>
LayerCount: 2
Fore
SplineSet
265 580 m 0
 215 580 182 611 182 660 c 0
 182 708 215 739 265 739 c 0
 315 739 349 708 349 660 c 0
 349 611 315 580 265 580 c 0
481 101 m 1
 481 0 l 1
 31 0 l 1
 31 95 l 1
 311 428 l 1
 47 428 l 1
 47 529 l 1
 478 529 l 1
 478 429 l 1
 200 101 l 1
 481 101 l 1
EndSplineSet
EndChar

StartChar: Zcaron
Encoding: 381 381 113
Width: 634
GlyphClass: 2
Flags: MW
HStem: 0 123<243 606 243 606> 568 122<79 413 79 601> 735 118<269 269 269 301 365 396>
VStem: 51 555<0 119 119 119>
LayerCount: 2
Fore
SplineSet
269 735 m 1
 206 853 l 1
 301 853 l 1
 334 782 l 1
 365 853 l 1
 459 853 l 1
 396 735 l 1
 269 735 l 1
606 123 m 1
 606 0 l 1
 51 0 l 1
 51 119 l 1
 413 568 l 1
 79 568 l 1
 79 690 l 1
 601 690 l 1
 601 569 l 1
 243 123 l 1
 606 123 l 1
EndSplineSet
Position2: "'cpsp' Capital Spacing in Latin lookup 0 subtable" dx=5 dy=0 dh=10 dv=0
EndChar

StartChar: zcaron
Encoding: 382 382 228
Width: 510
GlyphClass: 2
Flags: MW
HStem: 0 101<200 481 200 481> 428 101<47 311 47 478> 573 122<202 202 202 233 299 329>
VStem: 31 450<0 95 95 95>
LayerCount: 2
Fore
SplineSet
202 573 m 1
 139 695 l 1
 233 695 l 1
 267 623 l 1
 299 695 l 1
 392 695 l 1
 329 573 l 1
 202 573 l 1
481 101 m 1
 481 0 l 1
 31 0 l 1
 31 95 l 1
 311 428 l 1
 47 428 l 1
 47 529 l 1
 478 529 l 1
 478 429 l 1
 200 101 l 1
 481 101 l 1
EndSplineSet
EndChar

StartChar: Scommaaccent
Encoding: 536 536 84
Width: 616
GlyphClass: 2
Flags: MW
HStem: -211 170<274 286 198 377> -14 116<297.5 357.5 297.5 401> 483 221<253 583 253 425> 588 116<290.5 348>
VStem: 67 164<489 540 489 564.5> 431 164<155.5 203>
AnchorPoint: "Anchor-0" 310 0 basechar 0
LayerCount: 2
Fore
SplineSet
320 704 m 0x5c
 492 704 568 608 583 483 c 1x6c
 425 483 l 1
 417 547 381 588 315 588 c 0
 266 588 231 565 231 515 c 0
 231 463 266 435 377 409 c 0
 529 373 595 301 595 192 c 0
 595 58 470 -14 332 -14 c 0
 163 -14 51 58 39 207 c 1
 197 207 l 1
 211 136 266 102 329 102 c 0
 386 102 431 132 431 179 c 0
 431 227 399 260 305 282 c 1
 157 319 67 368 67 500 c 0
 67 629 186 704 320 704 c 0x5c
377 -51 m 1xdc
 286 -211 l 1
 198 -211 l 1
 274 -41 l 1
 377 -41 l 1
 377 -51 l 1xdc
EndSplineSet
Position2: "'cpsp' Capital Spacing in Latin lookup 0 subtable" dx=5 dy=0 dh=10 dv=0
EndChar

StartChar: uni021A
Encoding: 538 538 89
Width: 627
GlyphClass: 2
Flags: MW
HStem: -211 170<291 303 215 394> 0 21G<249 405 249 249> 568 122<19 249 19 635 405 635 405 405>
VStem: 249 156<0 568 0 568>
AnchorPoint: "Anchor-0" 327 0 basechar 0
LayerCount: 2
Fore
SplineSet
635 568 m 1
 405 568 l 1
 405 0 l 1
 249 0 l 1
 249 568 l 1
 19 568 l 1
 19 690 l 1
 635 690 l 1
 635 568 l 1
291 -41 m 1
 394 -41 l 1
 394 -51 l 1
 303 -211 l 1
 215 -211 l 1
 291 -41 l 1
EndSplineSet
Position2: "'cpsp' Capital Spacing in Latin lookup 0 subtable" dx=5 dy=0 dh=10 dv=0
EndChar

StartChar: uni021B
Encoding: 539 539 204
Width: 378
GlyphClass: 2
Flags: MW
HStem: -211 170<176 188 100 279> -13 108<194.5 350> -5 21G<350 350> 429 100<9 90 9 90 247 360>
VStem: 90 157<196 205 205 429 529 663>
AnchorPoint: "Anchor-0" 213 0 basechar 0
LayerCount: 2
Fore
SplineSet
247 429 m 1x38
 247 205 l 2
 247 187 247 169 248 155 c 0
 252 102 270 90 350 95 c 1
 350 -5 l 1
 318 -10 287 -13 253 -13 c 0x58
 136 -13 98 25 92 103 c 0
 90 130 90 154 90 184 c 2
 90 429 l 1
 9 429 l 1
 9 529 l 1
 90 529 l 1
 90 663 l 1
 247 663 l 1
 247 529 l 1
 360 529 l 1
 360 429 l 1
 247 429 l 1x38
176 -41 m 1xb8
 279 -41 l 1
 279 -51 l 1
 188 -211 l 1
 100 -211 l 1
 176 -41 l 1xb8
EndSplineSet
EndChar

StartChar: circumflex
Encoding: 710 710 328
Width: 300
Flags: MW
HStem: 573 122<87 117 24 214 183 214 87 277 183 183> 645 50<150 150>
VStem: 24 253<573 573>
LayerCount: 2
Fore
SplineSet
183 573 m 1xa0
 150 645 l 1x60
 117 573 l 1
 24 573 l 1
 87 695 l 1
 214 695 l 1
 277 573 l 1
 183 573 l 1xa0
EndSplineSet
EndChar

StartChar: caron
Encoding: 711 711 326
Width: 300
Flags: MW
HStem: 573 122<87 118 184 214 87 87>
VStem: 24 253<695 695>
LayerCount: 2
Fore
SplineSet
277 695 m 1
 214 573 l 1
 87 573 l 1
 24 695 l 1
 118 695 l 1
 152 623 l 1
 184 695 l 1
 277 695 l 1
EndSplineSet
EndChar

StartChar: breve
Encoding: 728 728 325
Width: 300
Flags: MW
HStem: 568 77<135.5 164.5 135.5 185.5> 568 127<23 185.5>
VStem: 23 81<647.5 695> 196 81<647.5 695>
LayerCount: 2
Fore
SplineSet
196 695 m 1x70
 277 695 l 1
 277 600 221 568 150 568 c 0
 78 568 23 600 23 695 c 1
 104 695 l 1x70
 106 661 121 645 150 645 c 0xb0
 179 645 194 661 196 695 c 1x70
EndSplineSet
EndChar

StartChar: dotaccent
Encoding: 729 729 330
Width: 300
Flags: MW
HStem: 580 159<125 175>
VStem: 67 167<635.5 684>
LayerCount: 2
Fore
SplineSet
150 739 m 0
 200 739 234 708 234 660 c 0
 234 611 200 580 150 580 c 0
 100 580 67 611 67 660 c 0
 67 708 100 739 150 739 c 0
EndSplineSet
EndChar

StartChar: ring
Encoding: 730 730 335
Width: 300
Flags: MW
HStem: 567 58<139 161 139 183> 711 58<139 161>
VStem: 38 75<654.5 681.5 654.5 698> 187 75<654.5 681.5>
LayerCount: 2
Fore
SplineSet
150 769 m 0
 216 769 262 728 262 668 c 0
 262 608 216 567 150 567 c 0
 84 567 38 608 38 668 c 0
 38 728 84 769 150 769 c 0
150 711 m 0
 128 711 113 695 113 668 c 0
 113 641 128 625 150 625 c 0
 172 625 187 641 187 668 c 0
 187 695 172 711 150 711 c 0
EndSplineSet
EndChar

StartChar: ogonek
Encoding: 731 731 334
Width: 300
Flags: MW
HStem: -223 90<134.5 250.5> 0 21G<258 258>
VStem: 57 144<-169 -60>
LayerCount: 2
Fore
SplineSet
150 7 m 1
 258 0 l 1
 227 -2 201 -38 201 -82 c 0
 201 -120 220 -133 243 -133 c 0
 258 -133 273 -127 290 -112 c 1
 290 -179 l 1
 262 -205 222 -223 166 -223 c 0
 103 -223 57 -201 57 -137 c 0
 57 -73 102 -18 150 7 c 1
EndSplineSet
EndChar

StartChar: tilde
Encoding: 732 732 336
Width: 300
Flags: MW
HStem: 577 90<206 208.5 199 246.5> 577 119<218 246.5> 581 118<54 82 1 94.5> 609 90<92 94.5 54 101.5>
VStem: 1 81<581 591 581 622.5> 218 82<685.5 696>
LayerCount: 2
Fore
SplineSet
81 699 m 0x2c
 108 699 124 696 158 681 c 0
 182 671 195 667 203 667 c 0x8c
 214 667 218 675 218 696 c 1
 300 696 l 1
 300 612 274 577 219 577 c 0x4c
 193 577 177 581 142 595 c 0
 118 604 106 609 97 609 c 0x1c
 87 609 82 601 82 581 c 1
 1 581 l 1
 1 664 27 699 81 699 c 0x2c
EndSplineSet
EndChar

StartChar: hungarumlaut
Encoding: 733 733 332
Width: 300
Flags: MW
HStem: 573 122<82 85 -2 222 172 172 172 222 256 258>
VStem: -2 398<573 695>
LayerCount: 2
Fore
SplineSet
85 573 m 1
 -2 573 l 1
 82 695 l 1
 222 695 l 1
 85 573 l 1
258 573 m 1
 172 573 l 1
 256 695 l 1
 396 695 l 1
 258 573 l 1
EndSplineSet
EndChar

StartChar: uni0326
Encoding: 806 806 337
Width: 0
GlyphClass: 4
Flags: MW
HStem: -211 170<114 126 38 217>
VStem: 38 179<-211 -51>
AnchorPoint: "Anchor-0" 152 0 mark 0
LayerCount: 2
Fore
SplineSet
217 -51 m 1
 126 -211 l 1
 38 -211 l 1
 114 -41 l 1
 217 -41 l 1
 217 -51 l 1
EndSplineSet
EndChar

StartChar: wgrave
Encoding: 7809 7809 219
Width: 847
GlyphClass: 2
Flags: MW
HStem: 0 21G<169 346 169 169 507 683 507 507> 0 130<602 602 602 683 507 602> 513 20G<0 174 174 174 683 852 852 852> 573 122<401 401 401 403 263 487>
VStem: 0 852<533 533>
LayerCount: 2
Fore
SplineSet
401 573 m 1xb8
 263 695 l 1
 403 695 l 1
 487 573 l 1
 401 573 l 1xb8
852 533 m 1
 683 0 l 1
 507 0 l 1
 427 387 l 1
 346 0 l 1
 169 0 l 1
 0 533 l 1
 174 533 l 1
 257 131 l 1
 334 530 l 1
 521 530 l 1
 602 130 l 1x78
 683 533 l 1
 852 533 l 1
EndSplineSet
EndChar

StartChar: Wacute
Encoding: 7810 7810 101
Width: 1000
GlyphClass: 2
Flags: MW
HStem: 0 21G<196 405 196 196 620 828 620 620> 0 117<734 734 734 828 620 734> 670 20G<26 194 194 194 847 1008 1008 1008> 735 118<551 555 469 691>
VStem: 26 982<690 690>
LayerCount: 2
Fore
SplineSet
555 735 m 1xb8
 469 735 l 1
 551 853 l 1
 691 853 l 1
 555 735 l 1xb8
1008 690 m 1
 828 0 l 1
 620 0 l 1
 516 559 l 1
 405 0 l 1
 196 0 l 1
 26 690 l 1
 194 690 l 1
 300 122 l 1
 407 680 l 1
 630 680 l 1
 734 117 l 1x78
 847 690 l 1
 1008 690 l 1
EndSplineSet
Position2: "'cpsp' Capital Spacing in Latin lookup 0 subtable" dx=5 dy=0 dh=10 dv=0
EndChar

StartChar: wacute
Encoding: 7811 7811 216
Width: 847
GlyphClass: 2
Flags: MW
HStem: 0 21G<169 346 169 169 507 683 507 507> 0 130<602 602 602 683 507 602> 513 20G<0 174 174 174 683 852 852 852> 573 122<462 464 378 602>
VStem: 0 852<533 533>
LayerCount: 2
Fore
SplineSet
464 573 m 1xb8
 378 573 l 1
 462 695 l 1
 602 695 l 1
 464 573 l 1xb8
852 533 m 1
 683 0 l 1
 507 0 l 1
 427 387 l 1
 346 0 l 1
 169 0 l 1
 0 533 l 1
 174 533 l 1
 257 131 l 1
 334 530 l 1
 521 530 l 1
 602 130 l 1x78
 683 533 l 1
 852 533 l 1
EndSplineSet
EndChar

StartChar: Wdieresis
Encoding: 7812 7812 103
Width: 1000
GlyphClass: 2
Flags: MW
HStem: 0 21G<196 405 196 196 620 828 620 620> 0 117<734 734 734 828 620 734> 670 20G<26 194 194 194 847 1008 1008 1008> 726 132<406 446 591 631>
VStem: 358 135<772 812> 543 135<772 812>
LayerCount: 2
Fore
SplineSet
426 726 m 0xbc
 386 726 358 752 358 792 c 0
 358 832 386 858 426 858 c 0
 466 858 493 832 493 792 c 0
 493 752 466 726 426 726 c 0xbc
611 726 m 0
 571 726 543 752 543 792 c 0
 543 832 571 858 611 858 c 0
 651 858 678 832 678 792 c 0
 678 752 651 726 611 726 c 0
1008 690 m 1
 828 0 l 1
 620 0 l 1
 516 559 l 1
 405 0 l 1
 196 0 l 1
 26 690 l 1
 194 690 l 1
 300 122 l 1
 407 680 l 1
 630 680 l 1
 734 117 l 1x7c
 847 690 l 1
 1008 690 l 1
EndSplineSet
Position2: "'cpsp' Capital Spacing in Latin lookup 0 subtable" dx=5 dy=0 dh=10 dv=0
EndChar

StartChar: wdieresis
Encoding: 7813 7813 218
Width: 847
GlyphClass: 2
Flags: MW
HStem: 0 21G<169 346 169 169 507 683 507 507> 0 130<602 602 602 683 507 602> 513 20G<0 174 174 174 683 852 852 852> 573 132<314 354 500 540>
VStem: 266 136<619 659> 453 135<619 659>
LayerCount: 2
Fore
SplineSet
334 573 m 0xbc
 294 573 266 599 266 639 c 0
 266 679 294 705 334 705 c 0
 374 705 402 679 402 639 c 0
 402 599 374 573 334 573 c 0xbc
520 573 m 0
 480 573 453 599 453 639 c 0
 453 679 480 705 520 705 c 0
 560 705 588 679 588 639 c 0
 588 599 560 573 520 573 c 0
852 533 m 1
 683 0 l 1
 507 0 l 1
 427 387 l 1
 346 0 l 1
 169 0 l 1
 0 533 l 1
 174 533 l 1
 257 131 l 1
 334 530 l 1
 521 530 l 1
 602 130 l 1x7c
 683 533 l 1
 852 533 l 1
EndSplineSet
EndChar

StartChar: Ygrave
Encoding: 7922 7922 110
Width: 643
GlyphClass: 2
Flags: MW
HStem: 0 21G<259 415 259 259> 670 20G<15 192 192 192 486 658 658 658> 735 118<305 305 305 309 169 391>
VStem: 259 156<0 264 264 264>
LayerCount: 2
Fore
SplineSet
305 735 m 1
 169 853 l 1
 309 853 l 1
 391 735 l 1
 305 735 l 1
415 266 m 1
 415 0 l 1
 259 0 l 1
 259 264 l 1
 15 690 l 1
 192 690 l 1
 342 402 l 1
 486 690 l 1
 658 690 l 1
 415 266 l 1
EndSplineSet
Position2: "'cpsp' Capital Spacing in Latin lookup 0 subtable" dx=5 dy=0 dh=10 dv=0
EndChar

StartChar: ygrave
Encoding: 7923 7923 225
Width: 584
GlyphClass: 2
Flags: MW
HStem: -210 107<127.5 139.5 109 199> 513 20G<0 175 175 175 418 589 589 589> 573 122<263 263 263 265 125 349>
VStem: 0 589<533 533>
LayerCount: 2
Fore
SplineSet
263 573 m 1
 125 695 l 1
 265 695 l 1
 349 573 l 1
 263 573 l 1
589 533 m 1
 376 -11 l 2
 315 -166 257 -210 141 -210 c 0
 114 -210 95 -209 73 -206 c 1
 73 -101 l 1
 87 -103 101 -103 117 -103 c 0
 162 -103 192 -87 212 -41 c 2
 219 -24 l 1
 0 533 l 1
 175 533 l 1
 297 121 l 1
 418 533 l 1
 589 533 l 1
EndSplineSet
EndChar

StartChar: endash
Encoding: 8211 8211 268
Width: 500
Flags: MW
HStem: 248 86<85 415 85 415>
VStem: 85 330<248 334 248 334>
LayerCount: 2
Fore
SplineSet
415 248 m 1
 85 248 l 1
 85 334 l 1
 415 334 l 1
 415 248 l 1
EndSplineSet
EndChar

StartChar: emdash
Encoding: 8212 8212 267
Width: 1000
Flags: MW
HStem: 248 86<85 915 85 915>
VStem: 85 830<248 334 248 334>
LayerCount: 2
Fore
SplineSet
915 248 m 1
 85 248 l 1
 85 334 l 1
 915 334 l 1
 915 248 l 1
EndSplineSet
EndChar

StartChar: quoteleft
Encoding: 8216 8216 277
Width: 303
Flags: MW
HStem: 451 284<162 206 57 285>
VStem: 57 228
LayerCount: 2
Fore
SplineSet
57 461 m 1
 162 735 l 1
 285 735 l 1
 206 451 l 1
 57 451 l 1
 57 461 l 1
EndSplineSet
EndChar

StartChar: quoteright
Encoding: 8217 8217 278
Width: 303
Flags: MW
HStem: 451 284<98 141 18 246> 715 20G<98 246 246 246>
VStem: 18 228
LayerCount: 2
Fore
SplineSet
246 725 m 1x60
 141 451 l 1
 18 451 l 1xa0
 98 735 l 1
 246 735 l 1
 246 725 l 1x60
EndSplineSet
EndChar

StartChar: quotedblleft
Encoding: 8220 8220 275
Width: 526
Flags: MW
HStem: 451 285<162 205 57 285 280 280 280 285 385 428>
VStem: 57 451<451 736 461 736>
LayerCount: 2
Fore
SplineSet
57 461 m 1
 162 736 l 1
 285 736 l 1
 205 451 l 1
 57 451 l 1
 57 461 l 1
280 461 m 1
 385 736 l 1
 508 736 l 1
 428 451 l 1
 280 451 l 1
 280 461 l 1
EndSplineSet
EndChar

StartChar: quotedblright
Encoding: 8221 8221 276
Width: 526
Flags: MW
HStem: 451 284<98 141 18 246 241 241 241 246 320 364>
VStem: 18 451<451 725>
LayerCount: 2
Fore
SplineSet
246 725 m 1
 141 451 l 1
 18 451 l 1
 98 735 l 1
 246 735 l 1
 246 725 l 1
469 725 m 1
 364 451 l 1
 241 451 l 1
 320 735 l 1
 469 735 l 1
 469 725 l 1
EndSplineSet
EndChar

StartChar: quotedblbase
Encoding: 8222 8222 274
Width: 477
Flags: MW
HStem: -123 277<52 97 -27 201 195 195 195 201 275 319>
VStem: -27 450<-123 144>
LayerCount: 2
Fore
SplineSet
201 144 m 1
 97 -123 l 1
 -27 -123 l 1
 52 154 l 1
 201 154 l 1
 201 144 l 1
423 144 m 1
 319 -123 l 1
 195 -123 l 1
 275 154 l 1
 423 154 l 1
 423 144 l 1
EndSplineSet
EndChar

StartChar: dagger
Encoding: 8224 8224 317
Width: 565
Flags: MW
HStem: 349.5 127 670 20G<209 356 356 356>
VStem: 214.5 136
LayerCount: 2
Fore
SplineSet
524 347 m 1
 345 352 l 1
 356 -160 l 1
 209 -160 l 1
 220 352 l 1
 41 347 l 1
 41 479 l 1
 219 474 l 1
 209 690 l 1
 356 690 l 1
 346 474 l 1
 524 479 l 1
 524 347 l 1
EndSplineSet
EndChar

StartChar: daggerdbl
Encoding: 8225 8225 318
Width: 565
Flags: MW
HStem: 53.5 127 349.5 127 670 20G<209 356 356 356>
VStem: 214 137 221 123<178 352 178 352>
LayerCount: 2
Fore
SplineSet
344 352 m 1xe8
 344 178 l 1xe8
 524 183 l 1
 524 51 l 1
 346 56 l 1
 356 -160 l 1
 209 -160 l 1
 219 56 l 1xf0
 41 51 l 1
 41 183 l 1
 221 178 l 1
 221 352 l 1xe8
 41 347 l 1
 41 479 l 1
 219 474 l 1
 209 690 l 1
 356 690 l 1
 346 474 l 1xf0
 524 479 l 1
 524 347 l 1
 344 352 l 1xe8
EndSplineSet
EndChar

StartChar: bullet
Encoding: 8226 8226 245
Width: 385
Flags: MW
HStem: 182 247<156 229.5>
VStem: 69 247<268.5 341.5>
LayerCount: 2
Fore
SplineSet
193 429 m 0
 266 429 316 378 316 305 c 0
 316 232 266 182 193 182 c 0
 119 182 69 232 69 305 c 0
 69 378 119 429 193 429 c 0
EndSplineSet
EndChar

StartChar: ellipsis
Encoding: 8230 8230 248
Width: 775
Flags: MW
HStem: -14 182<103.5 157 363.5 417 623.5 677>
VStem: 39 182<50.5 104> 299 182<50.5 104> 559 182<50.5 104>
LayerCount: 2
Fore
SplineSet
130 168 m 0
 184 168 221 131 221 77 c 0
 221 24 184 -14 130 -14 c 0
 77 -14 39 24 39 77 c 0
 39 131 77 168 130 168 c 0
390 168 m 0
 444 168 481 131 481 77 c 0
 481 24 444 -14 390 -14 c 0
 337 -14 299 24 299 77 c 0
 299 131 337 168 390 168 c 0
650 168 m 0
 704 168 741 131 741 77 c 0
 741 24 704 -14 650 -14 c 0
 597 -14 559 24 559 77 c 0
 559 131 597 168 650 168 c 0
EndSplineSet
EndChar

StartChar: perthousand
Encoding: 8240 8240 304
Width: 1118
Flags: MW
HStem: -14 78<563 599.5 563 630 909.5 946> 0 21G<109 223 109 109> 241 78<563 599.5 909.5 946> 370 78<172.5 209 172.5 239.5> 625 78<172.5 209> 670 20G<556 670 670 670>
VStem: 34 102<508.5 565.5 508.5 589.5> 246 102<508.5 565.5> 424 102<124.5 181.5 124.5 205.5> 636 102<124.5 181.5> 771 102<124.5 181.5 124.5 205.5> 983 102<124.5 181.5>
LayerCount: 2
Fore
SplineSet
348 537 m 0xbbf0
 348 432 288 370 191 370 c 0
 93 370 34 432 34 537 c 0
 34 642 93 703 191 703 c 0
 288 703 348 642 348 537 c 0xbbf0
670 690 m 1x4440
 223 0 l 1
 109 0 l 1
 556 690 l 1
 670 690 l 1x4440
136 537 m 0xbbf0
 136 480 154 448 191 448 c 0
 227 448 246 480 246 537 c 0
 246 594 227 625 191 625 c 0
 154 625 136 594 136 537 c 0xbbf0
581 319 m 0
 679 319 738 258 738 153 c 0
 738 48 679 -14 581 -14 c 0
 484 -14 424 48 424 153 c 0
 424 258 484 319 581 319 c 0
928 319 m 0
 1025 319 1085 258 1085 153 c 0
 1085 48 1025 -14 928 -14 c 0
 830 -14 771 48 771 153 c 0
 771 258 830 319 928 319 c 0
581 64 m 0
 618 64 636 96 636 153 c 0
 636 210 618 241 581 241 c 0
 545 241 526 210 526 153 c 0
 526 96 545 64 581 64 c 0
928 64 m 0
 964 64 983 96 983 153 c 0
 983 210 964 241 928 241 c 0
 891 241 873 210 873 153 c 0
 873 96 891 64 928 64 c 0
EndSplineSet
EndChar

StartChar: guilsinglleft
Encoding: 8249 8249 272
Width: 440
Flags: MW
HStem: 82 332<277 392 277 392>
VStem: 140 252<82 248>
LayerCount: 2
Fore
SplineSet
392 414 m 1
 255 248 l 1
 392 82 l 1
 277 82 l 1
 140 248 l 1
 277 414 l 1
 392 414 l 1
EndSplineSet
EndChar

StartChar: guilsinglright
Encoding: 8250 8250 273
Width: 415
Flags: MW
HStem: 82 332<47 162 47 162>
VStem: 47 252<82 248 248 414>
LayerCount: 2
Fore
SplineSet
299 248 m 1
 162 82 l 1
 47 82 l 1
 184 248 l 1
 47 414 l 1
 162 414 l 1
 299 248 l 1
EndSplineSet
EndChar

StartChar: fraction
Encoding: 8260 8260 242
Width: 336
Flags: MW
HStem: 0 21G<-113 2 -113 -113> 670 20G<335 449 449 449>
VStem: -113 562
LayerCount: 2
Fore
SplineSet
2 0 m 1
 -113 0 l 1
 335 690 l 1
 449 690 l 1
 2 0 l 1
EndSplineSet
EndChar

StartChar: Euro
Encoding: 8364 8364 284
Width: 642
Flags: MW
HStem: -14 116<395 441> 233 86<53 109 53 117 35 109 284 485 284 284> 370 86<81 110 63 120 285 512> 588 116<391.5 454>
VStem: 109 165<319 342 342 346 346 347>
LayerCount: 2
Fore
SplineSet
485 233 m 1
 284 233 l 1
 305 133 357 102 433 102 c 0
 488 102 536 115 580 141 c 1
 580 27 l 1
 531 -1 485 -14 397 -14 c 0
 249 -14 145 55 117 233 c 1
 35 233 l 1
 53 319 l 1
 109 319 l 1
 109 342 l 2
 109 352 109 361 110 370 c 1
 63 370 l 1
 81 456 l 1
 120 456 l 1
 156 626 274 704 421 704 c 0
 514 704 577 680 614 642 c 1
 557 545 l 1
 518 576 480 588 428 588 c 0
 355 588 305 546 285 456 c 1
 531 456 l 1
 512 370 l 1
 274 370 l 1
 274 346 l 2
 274 337 274 328 274 319 c 1
 502 319 l 1
 485 233 l 1
EndSplineSet
EndChar

StartChar: trademark
Encoding: 8482 8482 323
Width: 538
Flags: MW
HStem: 456 203<94 335 94 335 248 335 248 306 432 432 432 490> 460 54<371 371 371 399 340 371> 616 44<22 94 22 224 152 224 152 152>
VStem: 94 58<456 616 456 616> 248 57.5 433 57
LayerCount: 2
Fore
SplineSet
224 660 m 1x3c
 224 616 l 1
 152 616 l 1
 152 456 l 1
 94 456 l 1
 94 616 l 1
 22 616 l 1
 22 660 l 1
 224 660 l 1x3c
490 659 m 1x9c
 490 456 l 1
 432 456 l 1
 434 598 l 1x9c
 399 460 l 1
 340 460 l 1
 305 597 l 1
 306 456 l 1
 248 456 l 1
 248 659 l 1
 335 659 l 1
 371 514 l 1x7c
 406 659 l 1
 490 659 l 1x9c
EndSplineSet
EndChar

StartChar: partialdiff
Encoding: 8706 8706 302
Width: 642
Flags: MW
HStem: -14 116<283.5 355.5 283.5 395.5> 394 115<287 329.5 222 348> 643 115<257.5 325.5>
VStem: 43 164<201 293.5 201 329> 433 161
LayerCount: 2
Fore
SplineSet
299 758 m 0
 503 758 594 598 594 353 c 0
 594 99 482 -14 309 -14 c 0
 162 -14 43 69 43 244 c 0
 43 414 148 509 296 509 c 0
 363 509 404 487 426 457 c 1
 415 576 374 643 277 643 c 0
 227 643 188 629 146 600 c 1
 96 699 l 1
 161 741 216 758 299 758 c 0
316 102 m 0
 395 102 432 171 433 333 c 1
 410 379 371 394 325 394 c 0
 249 394 207 338 207 249 c 0
 207 153 251 102 316 102 c 0
EndSplineSet
EndChar

StartChar: emptyset
Encoding: 8709 8709 290
Width: 838
Flags: MW
HStem: -48 87<385.5 502.5 385.5 528.5> 671 87<335.5 456> 720 20G<757 757>
VStem: 19 96<318 445 318 468.5> 723 96<265 388>
LayerCount: 2
Fore
SplineSet
819 678 m 1xb8
 739 598 l 1
 789 531 819 447 819 355 c 0
 819 128 638 -48 419 -48 c 0
 328 -48 244 -18 176 34 c 1
 82 -60 l 1
 20 3 l 1
 112 95 l 1
 54 165 19 255 19 355 c 0
 19 582 200 758 419 758 c 0
 518 758 609 722 679 662 c 1xd8
 757 740 l 1
 819 678 l 1xb8
115 355 m 0
 115 281 138 214 178 161 c 1
 615 598 l 1
 562 644 493 671 419 671 c 0
 252 671 115 535 115 355 c 0
723 355 m 0
 723 421 704 482 673 531 c 1
 240 98 l 1
 290 61 352 39 419 39 c 0
 586 39 723 175 723 355 c 0
EndSplineSet
EndChar

StartChar: product
Encoding: 8719 8719 307
Width: 642
Flags: MW
HStem: 568 122<36 94 36 606 250 392 250 250 548 606 548 548>
VStem: 94 156<-110 568 -110 568> 392 156<-110 568 -110 568>
LayerCount: 2
Fore
SplineSet
606 568 m 1
 548 568 l 1
 548 -110 l 1
 392 -110 l 1
 392 568 l 1
 250 568 l 1
 250 -110 l 1
 94 -110 l 1
 94 568 l 1
 36 568 l 1
 36 690 l 1
 606 690 l 1
 606 568 l 1
EndSplineSet
EndChar

StartChar: summation
Encoding: 8721 8721 309
Width: 642
Flags: MW
HStem: -110 123<247 592 247 592> 568 122<275 586 275 275>
VStem: 51 541<-110 -9 -9 -9>
LayerCount: 2
Fore
SplineSet
592 13 m 1
 592 -110 l 1
 51 -110 l 1
 51 -9 l 1
 303 301 l 1
 81 589 l 1
 81 690 l 1
 586 690 l 1
 586 568 l 1
 275 568 l 1
 484 300 l 1
 247 13 l 1
 592 13 l 1
EndSplineSet
EndChar

StartChar: minus
Encoding: 8722 8722 299
Width: 642
Flags: MW
HStem: 275 86<100 542 100 542>
VStem: 100 442<275 361 275 361>
LayerCount: 2
Fore
SplineSet
542 275 m 1
 100 275 l 1
 100 361 l 1
 542 361 l 1
 542 275 l 1
EndSplineSet
EndChar

StartChar: radical
Encoding: 8730 8730 308
Width: 642
Flags: MW
HStem: 230 80<53 131 53 203>
VStem: 53 546<230 780 310 780>
LayerCount: 2
Fore
SplineSet
599 780 m 1
 376 -160 l 1
 258 -160 l 1
 131 230 l 1
 53 230 l 1
 53 310 l 1
 203 310 l 1
 315 -60 l 1
 504 780 l 1
 599 780 l 1
EndSplineSet
EndChar

StartChar: infinity
Encoding: 8734 8734 294
Width: 1013
Flags: MW
HStem: -14 108<262.5 324 262.5 329.5 689 751> 436 108<262.5 324 689 751>
VStem: 26 161<213.5 317 213.5 348.5> 826 162<213.5 317>
LayerCount: 2
Fore
SplineSet
734 544 m 0
 885 544 988 432 988 265 c 0
 988 99 885 -14 727 -14 c 0
 628 -14 552 19 500 110 c 1
 449 19 380 -14 279 -14 c 0
 128 -14 26 99 26 265 c 0
 26 432 128 544 287 544 c 0
 386 544 464 512 516 420 c 1
 566 512 633 544 734 544 c 0
295 94 m 0
 353 94 397 141 410 265 c 1
 391 391 353 436 295 436 c 0
 230 436 187 369 187 265 c 0
 187 162 230 94 295 94 c 0
718 94 m 0
 784 94 826 162 826 265 c 0
 826 369 784 436 718 436 c 0
 660 436 619 389 606 265 c 1
 625 140 660 94 718 94 c 0
EndSplineSet
EndChar

StartChar: integral
Encoding: 8747 8747 295
Width: 641
Flags: MW
HStem: -160 86<253.5 280.5 248.5 320.5> 668 86<360 386.5 319.5 392>
VStem: 210 96<553.5 612 553.5 629> 335 96<-17.5 41.5>
LayerCount: 2
Fore
SplineSet
368 754 m 0
 405 754 432 749 458 732 c 1
 443 651 l 1
 422 664 404 668 380 668 c 0
 340 668 306 642 306 582 c 0xe0
 306 525 312 474 369 304 c 0
 418 156 431 89 431 18 c 0
 431 -87 369 -160 272 -160 c 0
 235 -160 208 -155 182 -138 c 1
 197 -57 l 1
 218 -70 236 -74 261 -74 c 0
 300 -74 335 -48 335 13 c 0xf0
 335 70 329 120 272 290 c 0
 223 438 210 505 210 577 c 0
 210 681 271 754 368 754 c 0
EndSplineSet
EndChar

StartChar: approxequal
Encoding: 8776 8776 287
Width: 642
Flags: MW
HStem: 122 94<414.5 443.5 414.5 454> 198 94<197.5 226.5> 312 94<414.5 443.5 414.5 454> 388 94<197.5 226.5>
VStem: 77 487<207 207 207 397>
LayerCount: 2
Fore
SplineSet
213 482 m 0x58
 254 482 280 469 334 441 c 1
 383 414 402 406 427 406 c 0
 460 406 484 421 510 452 c 1
 564 397 l 1
 525 333 481 312 427 312 c 0x68
 387 312 361 324 307 353 c 0
 257 379 239 388 214 388 c 0
 181 388 156 373 131 341 c 1
 77 397 l 1
 116 461 160 482 213 482 c 0x58
213 292 m 0
 254 292 280 279 334 251 c 1
 383 224 402 216 427 216 c 0
 460 216 484 231 510 262 c 1
 564 207 l 1
 525 143 481 122 427 122 c 0x98
 387 122 361 134 307 163 c 0
 257 189 239 198 214 198 c 0
 181 198 156 183 131 151 c 1
 77 207 l 1
 116 271 160 292 213 292 c 0
EndSplineSet
EndChar

StartChar: notequal
Encoding: 8800 8800 301
Width: 642
Flags: MW
HStem: 177 80<85 202 85 243 338 557 85 297> 377 80<85 304 85 345 440 557 85 399>
VStem: 85 472<177 257 177 257 377 457 177 457>
LayerCount: 2
Fore
SplineSet
399 377 m 1
 338 257 l 1
 557 257 l 1
 557 177 l 1
 297 177 l 1
 243 72 l 1
 148 72 l 1
 202 177 l 1
 85 177 l 1
 85 257 l 1
 243 257 l 1
 304 377 l 1
 85 377 l 1
 85 457 l 1
 345 457 l 1
 399 562 l 1
 494 562 l 1
 440 457 l 1
 557 457 l 1
 557 377 l 1
 399 377 l 1
EndSplineSet
EndChar

StartChar: lessequal
Encoding: 8804 8804 297
Width: 642
Flags: MW
HStem: 0 86<113 548 113 548>
VStem: 113 435<0 86 0 86 0 377 0 377>
LayerCount: 2
Fore
SplineSet
548 419 m 1
 204 317 l 1
 548 211 l 1
 548 116 l 1
 113 258 l 1
 113 377 l 1
 548 518 l 1
 548 419 l 1
113 86 m 1
 548 86 l 1
 548 0 l 1
 113 0 l 1
 113 86 l 1
EndSplineSet
EndChar

StartChar: greaterequal
Encoding: 8805 8805 293
Width: 642
Flags: MW
HStem: 0 86<94 522 94 522>
VStem: 94 428<0 86 0 86 0 215 0 215 0 518>
LayerCount: 2
Fore
SplineSet
522 377 m 1
 522 258 l 1
 94 116 l 1
 94 215 l 1
 432 317 l 1
 94 423 l 1
 94 518 l 1
 522 377 l 1
94 86 m 1
 522 86 l 1
 522 0 l 1
 94 0 l 1
 94 86 l 1
EndSplineSet
EndChar

StartChar: lozenge
Encoding: 9674 9674 310
Width: 544
Flags: MW
HStem: 0 21G<207 337 207 207> 0 100<272 272 272 337 207 272> 590 100<272 272> 670 20G<207 337 337 337>
VStem: 47 450<345 345>
LayerCount: 2
Fore
SplineSet
497 345 m 1x98
 337 0 l 1
 207 0 l 1
 47 345 l 1
 207 690 l 1
 337 690 l 1
 497 345 l 1x98
381 345 m 1
 272 590 l 1
 163 345 l 1
 272 100 l 1x68
 381 345 l 1
EndSplineSet
EndChar

StartChar: fi
Encoding: 64257 64257 230
Width: 630
GlyphClass: 3
Flags: MW
HStem: 0 21G<77 233 77 77 414 570 414 414> 429 100<20 77 20 77 233 414> 643.11 103.89
VStem: 77 156<0 429 0 429 529 536 536 538 0 544.5> 414 156<0 429 429 429 0 641 0 747>
LayerCount: 2
Fore
SplineSet
570 529 m 1
 570 0 l 1
 414 0 l 1
 414 429 l 1
 233 429 l 1
 233 0 l 1
 77 0 l 1
 77 429 l 1
 20 429 l 1
 20 529 l 1
 77 529 l 1
 77 536 l 2
 77 553 77 577 78 595 c 0
 87 694 150 754 331 754 c 0
 367 754 388 751 414 747 c 1
 414 641 l 1
 279 650 241 632 235 581 c 0
 233 567 233 551 233 538 c 2
 233 529 l 1
 570 529 l 1
EndSplineSet
Ligature2: "'liga' Standard Ligatures in Latin lookup 4 subtable" f i
EndChar

StartChar: fl
Encoding: 64258 64258 231
Width: 635
GlyphClass: 3
Flags: MW
HStem: -9 105<483.5 618> 0 21G<67 223 67 67> 429 100<20 67 20 67 223 332> 646 108<300 350>
VStem: 67 156<0 429 0 429 529 536 536 538 0 544.5> 400 156<179 182 182 639 639 639>
LayerCount: 2
Fore
SplineSet
558 133 m 0xbc
 561 101 577 93 618 96 c 1
 618 -3 l 1
 585 -7 552 -9 517 -9 c 0
 450 -9 405 20 401 90 c 0xbc
 400 116 400 142 400 179 c 2
 400 639 l 1
 380 645 363 646 337 646 c 0
 263 646 229 623 225 581 c 0
 223 567 223 551 223 538 c 2
 223 529 l 1
 332 529 l 1
 332 429 l 1
 223 429 l 1
 223 0 l 1
 67 0 l 1x7c
 67 429 l 1
 20 429 l 1
 20 529 l 1
 67 529 l 1
 67 536 l 2
 67 553 67 570 68 588 c 0
 77 687 147 754 338 754 c 0
 430 754 503 744 556 726 c 1
 556 182 l 2
 556 159 556 147 558 133 c 0xbc
EndSplineSet
Ligature2: "'liga' Standard Ligatures in Latin lookup 4 subtable" f l
EndChar
